<svg width="40" height="40" viewBox="0 0 40 40" fill="none" xmlns="http://www.w3.org/2000/svg">
<path d="M20 0C8.95211 0 0 8.95211 0 20C0 31.0479 8.95211 40 20 40C31.0479 40 40 31.0479 40 20C40 8.95211 31.0479 0 20 0ZM20.3097 33.7054C12.7764 33.7054 6.72668 27.6557 6.72668 20.1224C6.72668 12.5891 12.7764 6.54663 20.3097 6.54663C23.7667 6.54663 26.8563 7.843 29.2618 9.93878L25.3079 13.8927C23.9467 12.7836 22.2182 12.0994 20.3097 12.0994C15.866 12.0994 12.2866 15.6788 12.2866 20.1224C12.2866 24.5661 15.866 28.1455 20.3097 28.1455C24.0763 28.1455 26.9139 26.2297 27.5909 22.8952H20.3097V17.6449H32.9636C33.1509 18.4444 33.2733 19.3086 33.2733 20.1152C33.2733 28.7577 27.1012 33.6982 20.3097 33.6982V33.7054Z" fill="#495C69"/>
</svg>
