<svg width="19" height="11" viewBox="0 0 19 11" fill="none" xmlns="http://www.w3.org/2000/svg">
<path d="M0.0523326 1.33238C0.00934553 1.20401 -0.00742706 1.0683 0.00300931 0.933324C0.0134457 0.798344 0.0508786 0.666833 0.113088 0.546589C0.175298 0.426345 0.261019 0.319816 0.365167 0.233319C0.469315 0.146821 0.589771 0.0821161 0.719393 0.04304C0.849014 0.00396397 0.985162 -0.00868736 1.11976 0.00583559C1.25437 0.0203585 1.38468 0.0617601 1.50299 0.127586C1.62129 0.193412 1.72517 0.282323 1.80847 0.389045C1.89177 0.495767 1.9528 0.618128 1.98793 0.748875C4.09746 7.81368 14.1051 7.8147 16.2167 0.75292C16.2545 0.625562 16.3171 0.506905 16.4008 0.403725C16.4845 0.300546 16.5877 0.214863 16.7045 0.151571C16.8213 0.0882778 16.9495 0.0486144 17.0816 0.0348443C17.2138 0.0210742 17.3473 0.0334673 17.4747 0.0713162C17.602 0.109165 17.7207 0.171729 17.8239 0.255435C17.9271 0.339141 18.0127 0.44235 18.076 0.559169C18.1393 0.675988 18.179 0.80413 18.1928 0.936277C18.2065 1.06843 18.1941 1.20199 18.1563 1.32935C17.7886 2.59475 17.1645 3.77098 16.3228 4.7849L17.6122 6.07529C17.7964 6.26602 17.8984 6.52147 17.8961 6.78663C17.8938 7.05178 17.7874 7.30543 17.5999 7.49293C17.4124 7.68042 17.1588 7.78678 16.8936 7.78909C16.6285 7.79139 16.373 7.68946 16.1823 7.50524L14.8565 6.17945C14.1411 6.71918 13.3507 7.15152 12.5103 7.46277L12.8713 8.81283C12.9098 8.94233 12.922 9.07822 12.9071 9.2125C12.8923 9.34678 12.8506 9.47672 12.7847 9.59464C12.7188 9.71256 12.6299 9.81608 12.5233 9.89907C12.4167 9.98207 12.2945 10.0429 12.164 10.0779C12.0335 10.1129 11.8974 10.1214 11.7635 10.1029C11.6297 10.0844 11.5009 10.0392 11.3848 9.97016C11.2687 9.90107 11.1677 9.80941 11.0876 9.70061C11.0075 9.59181 10.95 9.46806 10.9185 9.33667L10.5504 7.96437C9.59276 8.10595 8.61384 8.10595 7.65616 7.96437L7.28805 9.33667C7.25658 9.46806 7.19911 9.59181 7.11902 9.70061C7.03893 9.80941 6.93785 9.90107 6.82175 9.97016C6.70566 10.0392 6.57689 10.0844 6.44306 10.1029C6.30923 10.1214 6.17306 10.1129 6.04257 10.0779C5.91208 10.0429 5.78993 9.98207 5.68333 9.89907C5.57673 9.81608 5.48783 9.71256 5.4219 9.59464C5.35597 9.47672 5.31434 9.34678 5.29946 9.2125C5.28458 9.07822 5.29675 8.94233 5.33527 8.81283L5.69629 7.46277C4.85586 7.1512 4.06546 6.71853 3.35012 6.17844L2.02534 7.50524C1.83572 7.69514 1.57843 7.80192 1.31007 7.80211C1.04171 7.8023 0.784271 7.69588 0.594379 7.50626C0.404488 7.31663 0.297701 7.05934 0.297512 6.79098C0.297322 6.52263 0.403745 6.26518 0.593368 6.07529L1.88275 4.78591C1.08991 3.83935 0.456845 2.68851 0.0503102 1.3334L0.0523326 1.33238Z" fill="#495C69"/>
</svg>
