<svg width="40" height="40" viewBox="0 0 40 40" fill="none" xmlns="http://www.w3.org/2000/svg">
<path d="M28.9086 15.9475H25.1573C25.0161 15.9475 24.9023 16.0613 24.9023 16.2025V16.2075V22.025V22.03C24.9023 22.1713 25.0161 22.285 25.1573 22.285H28.9086C29.0498 22.285 29.1636 22.1713 29.1636 22.03V21.0825C29.1636 20.9425 29.0486 20.8275 28.9086 20.8275H26.3598V19.8438H28.9086C29.0498 19.8438 29.1636 19.73 29.1636 19.5888V18.6425C29.1636 18.5025 29.0486 18.3875 28.9086 18.3875H26.3598V17.4038H28.9086C29.0498 17.4038 29.1636 17.29 29.1636 17.1488V16.2025C29.1636 16.0625 29.0486 15.9475 28.9086 15.9475Z" fill="#495C69"/>
<path d="M15.0375 20.8287H12.4887V16.2037C12.4887 16.0637 12.3737 15.9487 12.2337 15.9487H11.2862C11.145 15.9487 11.0312 16.0625 11.0312 16.2037V22.0262V22.0312C11.0312 22.1725 11.145 22.2862 11.2862 22.2862H15.0375C15.1787 22.2862 15.2925 22.1725 15.2925 22.0312V21.0837C15.2925 20.9437 15.1775 20.8287 15.0375 20.8287Z" fill="#495C69"/>
<path d="M17.2911 15.9475H16.3448C16.204 15.9475 16.0898 16.0617 16.0898 16.2025V22.0288C16.0898 22.1696 16.204 22.2838 16.3448 22.2838H17.2911C17.4319 22.2838 17.5461 22.1696 17.5461 22.0288V16.2025C17.5461 16.0617 17.4319 15.9475 17.2911 15.9475Z" fill="#495C69"/>
<path d="M23.7409 15.9475H22.7934C22.6522 15.9475 22.5384 16.0613 22.5384 16.2025V19.6638L19.8722 16.0638C19.8659 16.055 19.8584 16.0463 19.8522 16.0375C19.8522 16.0375 19.8522 16.0375 19.8509 16.0363C19.8459 16.0313 19.8409 16.025 19.8359 16.02C19.8347 16.0188 19.8322 16.0175 19.8309 16.0163C19.8259 16.0125 19.8222 16.0088 19.8172 16.005C19.8147 16.0038 19.8122 16.0013 19.8097 16C19.8059 15.9963 19.8009 15.9938 19.7959 15.9913C19.7934 15.99 19.7909 15.9875 19.7884 15.9863C19.7834 15.9838 19.7797 15.9813 19.7747 15.9788C19.7722 15.9775 19.7697 15.9763 19.7672 15.975C19.7622 15.9725 19.7572 15.97 19.7522 15.9688C19.7497 15.9688 19.7472 15.9663 19.7434 15.9663C19.7384 15.965 19.7334 15.9625 19.7284 15.9613C19.7259 15.9613 19.7222 15.96 19.7197 15.9588C19.7147 15.9588 19.7097 15.9563 19.7047 15.955C19.7009 15.955 19.6972 15.955 19.6934 15.9538C19.6884 15.9538 19.6847 15.9525 19.6797 15.9525C19.6747 15.9525 19.6709 15.9525 19.6659 15.9525C19.6634 15.9525 19.6597 15.9525 19.6572 15.9525H18.7159C18.5747 15.9525 18.4609 16.0663 18.4609 16.2075V22.035C18.4609 22.1763 18.5747 22.29 18.7159 22.29H19.6634C19.8047 22.29 19.9184 22.1763 19.9184 22.035V18.575L22.5872 22.18C22.6059 22.2063 22.6284 22.2275 22.6534 22.2438C22.6534 22.2438 22.6559 22.245 22.6559 22.2463C22.6609 22.25 22.6659 22.2525 22.6722 22.2563C22.6747 22.2575 22.6772 22.2588 22.6797 22.26C22.6834 22.2625 22.6884 22.2638 22.6922 22.2663C22.6959 22.2688 22.7009 22.27 22.7047 22.2713C22.7072 22.2713 22.7097 22.2738 22.7122 22.2738C22.7184 22.2763 22.7234 22.2775 22.7297 22.2788C22.7297 22.2788 22.7322 22.2788 22.7334 22.2788C22.7547 22.2838 22.7772 22.2875 22.7997 22.2875H23.7409C23.8822 22.2875 23.9959 22.1738 23.9959 22.0325V16.205C23.9959 16.0638 23.8822 15.95 23.7409 15.95V15.9475Z" fill="#495C69"/>
<path d="M20 0C8.95375 0 0 8.95375 0 20C0 31.0462 8.95375 40 20 40C31.0462 40 40 31.0462 40 20C40 8.95375 31.0462 0 20 0ZM30.4762 25.5012C27.675 28.725 21.4112 32.6525 19.9862 33.2525C18.5613 33.8525 18.7712 32.87 18.83 32.5325C18.8638 32.3313 19.02 31.39 19.02 31.39C19.065 31.0487 19.1112 30.52 18.9762 30.1825C18.8263 29.8113 18.235 29.6175 17.8 29.5238C11.3837 28.6763 6.63375 24.19 6.63375 18.8337C6.63375 12.8587 12.6238 7.99875 19.985 7.99875C27.3463 7.99875 33.3363 12.86 33.3363 18.8337C33.3363 21.225 32.4087 23.3787 30.4737 25.5L30.4762 25.5012Z" fill="#495C69"/>
</svg>
