<svg width="125" height="19" viewBox="0 0 125 19" fill="none" xmlns="http://www.w3.org/2000/svg">
<line y1="18.5" x2="45" y2="18.5" stroke="#2B333E"/>
<path d="M45 18.5L108 18.5" stroke="#2B333E"/>
<path d="M107.75 18.5C109.959 18.5 111.75 16.7091 111.75 14.5C111.75 12.2909 109.959 10.5 107.75 10.5" stroke="#2B333E"/>
<path d="M104.75 18.5C106.959 18.5 108.75 16.7091 108.75 14.5C108.75 12.2909 106.959 10.5 104.75 10.5" stroke="#2B333E"/>
<path d="M98.75 10.5C95.9886 10.5 93.75 8.26142 93.75 5.5C93.75 2.73858 95.9886 0.5 98.75 0.5" stroke="#2B333E"/>
<path d="M101.75 10.5C98.9886 10.5 96.75 8.26142 96.75 5.5C96.75 2.73858 98.9886 0.5 101.75 0.5" stroke="#2B333E"/>
<path d="M98.75 10.5H107.75" stroke="#2B333E"/>
<path d="M98.75 0.5H124.5" stroke="#2B333E"/>
</svg>
