<svg width="810" height="736" viewBox="0 0 810 736" fill="none" xmlns="http://www.w3.org/2000/svg">
<path opacity="0.3" d="M586.974 627.594C588.151 629.269 589.735 630.721 587.699 633.849C582.992 640.998 583.671 645.466 590.052 651.051C600.326 660.043 611.777 665.461 624.404 666.354C642.463 667.639 660.522 667.415 678.626 667.08C694.467 666.801 710.443 667.08 725.198 676.016C734.612 681.713 744.433 684.841 754.934 685.288C764.529 685.679 773.852 684.841 783.312 682.16C796.392 678.418 809.155 685.008 822.144 686.349C837.85 687.968 849.527 698.524 857.9 712.934C862.109 720.194 865.322 727.399 867.314 734.38C868.445 734.38 869.577 734.38 870.708 734.436C866.816 715.168 854.55 699.697 838.121 685.623C843.824 685.511 847.309 686.46 850.16 688.75C859.71 696.681 870.21 702.825 878.764 712.71C885.508 720.529 888.676 727.12 888.405 734.827C889.491 734.827 890.532 734.827 891.618 734.883C891.845 727.622 890.125 720.25 886.142 714.888C879.624 706.176 872.111 698.915 863.602 693.274C860.796 691.431 858.035 689.197 856.406 686.405C879.67 681.657 900.263 688.862 917.688 709.136C920.494 712.375 922.893 715.782 925.156 719.58C929.365 726.729 931.673 731.588 931.854 735.665C932.85 735.665 933.8 735.665 934.796 735.665C931.764 717.681 921.761 706.064 909.767 696.29C908.5 695.285 907.233 694.28 906.056 693.107C905.739 692.827 905.739 692.101 905.332 690.761C917.597 695.229 930.27 696.402 940.997 705.226C949.279 712.04 950.184 726.84 944.21 735.777C949.279 735.832 954.303 735.944 959.372 736C968.696 728.963 969.782 713.604 960.911 705.729C950.366 696.402 939.684 687.075 925.835 685.567C911.035 683.891 896.461 680.317 882.521 673.559C877.045 670.934 871.161 670.152 865.413 670.599C854.324 671.381 843.326 670.934 832.283 669.314C824.045 668.141 815.582 666.689 807.48 667.918C789.919 670.543 772.404 670.543 754.798 669.37C741.446 668.477 728.411 665.572 715.558 660.825C704.514 656.804 694.602 648.203 682.473 648.705C676.363 648.985 670.434 647.7 664.686 645.019C658.485 642.115 652.149 640.886 645.495 641.054C639.476 641.166 632.732 641.389 627.98 636.753C616.303 625.416 602.137 620.166 589.509 611.285C574.075 600.45 560.181 587.605 549.499 569.677C539.859 553.48 539.678 534.993 549.861 519.467C551.491 517.01 552.622 514.273 552.984 511.089C553.618 505.672 555.881 501.26 558.551 497.015C568.146 481.6 580.638 469.201 594.714 462.779C615.579 453.228 632.37 434.462 653.642 426.531C654.955 426.029 656.177 424.465 657.082 423.069C661.879 415.696 668.125 414.524 675.367 415.361C696.277 417.707 717.006 423.851 738.188 415.473C745.52 412.569 751.946 409.162 754.345 400.728C757.559 389.447 762.809 380.678 769.462 372.468C772.449 368.782 774.486 363.923 775.753 358.785C776.93 354.205 777.971 348.676 775.255 345.38C769.915 338.902 765.705 330.803 758.69 326.559C751.313 322.091 743.438 321.253 735.336 320.08C719.586 317.79 703.835 316.059 687.949 315.891C677.358 315.78 668.08 310.139 658.576 305.391C658.576 305.391 655.588 303.325 652.375 299.974C649.161 296.623 648.528 280.426 644.907 275.623C641.241 270.82 631.148 265.235 626.215 262.833C620.874 259.594 615.805 255.293 611.053 249.708C606.708 244.57 603.947 240.94 608.835 234.629C612.048 230.44 612.139 226.474 608.473 222.677C603.766 217.762 605.803 213.294 609.333 209.384C612.003 206.424 615.488 205.307 618.973 204.413C629.202 201.9 639.431 202.514 649.795 203.017C659.254 203.464 669.619 204.637 677.449 197.32C682.925 192.238 688.537 188.161 694.467 184.195C706.551 176.153 710.896 156.829 704.016 143.369C699.309 134.153 699.626 131.919 707.32 126.781C715.784 121.14 724.157 113.768 726.465 102.765C729.95 86.1776 741.401 76.9064 747.013 62.441C751.358 51.2709 751.901 41.1061 743.03 35.2418C728.819 25.803 715.467 13.4042 698.449 11.7286C692.701 11.1701 687.044 9.21536 681.386 7.93079C656.041 2.06647 630.831 1.06116 606.119 12.1196C586.16 20.9998 565.793 27.2551 544.566 29.7126C527.232 31.7232 511.481 39.8215 496.907 51.5502C480.297 64.9543 463.46 77.9675 444.451 85.7866C438.703 88.1323 432.955 90.4781 427.207 92.6004C427.207 92.7121 427.207 92.8238 427.207 92.9355C408.741 99.0791 390.004 101.816 370.406 92.7679C366.921 91.1483 362.984 90.5898 359.272 90.5898C350.764 90.5898 341.847 89.8637 334.742 96.845C329.401 102.151 323.608 106.116 317.045 106.284C291.835 107.01 270.744 123.151 248.929 134.991C221.366 149.959 194.753 148.339 167.507 137.784C163.252 136.164 155.875 133.706 159.541 123.542C160.265 121.587 158.726 120.246 157.73 118.85C153.295 112.483 154.245 108.797 161.306 107.848C168.548 106.898 173.843 101.648 179.5 97.236C182.397 95.002 185.248 91.6509 184.751 86.6244C183.076 70.1484 189.412 60.1512 200.999 53.1698C208.738 48.4784 215.256 41.2178 219.284 31.5556C221.456 26.3615 224.127 19.9945 216.93 16.0291C198.51 6.19942 179.862 0 159.405 0C137.68 0 118.309 7.76324 99.8431 20.4413C85.5863 30.2152 70.9221 37.5316 54.357 38.3694C47.1155 38.7604 39.3308 38.2577 32.9039 42.6699C22.5394 49.7629 11.1339 49.8188 0 51.2709V82.1563C9.4593 79.4196 19.0996 79.9781 28.74 81.4861C42.5895 83.6643 56.5295 84.2228 69.9717 79.9223C88.845 73.8904 107.99 80.8718 126.818 76.3479C128.628 75.901 130.756 77.1856 132.702 77.8558C134.557 78.4702 137.228 78.1909 137.318 81.542C137.409 84.893 134.557 84.4462 132.883 85.5074C123.65 91.1483 114.236 96.3982 105.184 102.542C96.8107 108.183 91.6059 118.236 92.4205 129.238C93.2352 140.241 101.201 145.826 109.891 148.395C114.055 149.624 118.49 150.518 122.111 153.031C144.831 168.725 168.774 171.238 193.712 164.201C196.02 163.531 198.238 163.587 200.365 164.704C208.919 169.283 217.881 169.898 227.023 169.507C238.429 169.004 249.563 171.182 260.697 174.087C274.772 177.773 288.984 179.783 303.376 177.047C311.795 175.427 320.258 173.751 328.767 172.858C349.179 170.735 368.867 165.541 387.922 155.712C402.993 147.893 415.847 135.996 429.335 125.329C431.733 123.43 434.132 121.866 436.531 120.414C436.531 119.967 436.531 119.576 436.531 119.129C445.764 114.941 455.314 113.991 465.678 116.225C477.944 118.906 489.621 115.555 499.532 107.01C513.654 94.8344 529.494 89.9196 545.924 86.9036C569.233 82.6031 592.722 84.1111 615.85 88.1323C637.213 91.8743 657.037 101.983 674.462 118.348C678.988 122.592 679.44 126.111 674.733 130.746C666.768 138.621 658.575 145.659 648.075 146.999C643.685 147.557 639.793 149.736 636.036 152.249C628.976 156.996 621.281 158.616 613.542 159.621C601.548 161.129 589.464 161.353 577.47 162.749C559.004 164.871 540.764 167.999 528.137 187.714C525.15 192.35 522.343 196.929 517.953 199.89C514.151 202.459 513.292 207.318 514.378 212.121C518.044 228.541 523.973 242.615 538.32 248.815C549.047 253.45 558.868 260.487 568.192 268.53C575.886 275.12 583.897 280.705 592.632 284.615C592.632 284.615 599.738 290.87 601.05 295.394C602.363 299.918 603.494 303.157 604.218 305.559C606.255 313.601 611.551 320.024 619.607 323.431C632.642 328.96 646.084 331.027 659.752 330.301C678.173 329.295 696.503 331.585 714.833 332.591C731.353 333.484 741.31 350.798 735.291 366.436C731.263 376.88 724.881 384.197 716.146 389C695.96 400.114 675.005 404.917 653.009 403.018C646.944 402.516 640.969 403.968 635.176 406.258C632.008 407.486 628.161 409.72 629.021 414.3C630.424 421.896 626.079 423.516 622.549 424.186C603.132 427.704 585.752 438.484 567.467 446.079C560.362 449.039 552.758 450.045 545.879 454.289C526.598 466.241 507.815 478.975 493.287 499.361C489.937 504.108 488.353 509.079 491.793 514.385C496.726 522.036 496.907 530.246 494.644 539.015C493.151 544.823 493.83 550.241 494.735 556.273C496.862 570.961 502.927 580.791 512.794 589.504C520.986 596.708 529.404 602.573 538.863 602.238C552.849 601.735 563.847 610.28 575.75 616.535C580.185 618.881 583.716 623.014 586.884 627.482L586.974 627.594ZM949.143 705.003C950.32 703.383 951.904 703.551 953.307 704.277C958.558 706.958 961.952 711.482 962.359 717.96C962.043 722.54 961.318 726.114 959.508 729.298C957.698 732.481 955.027 735.832 952.221 734.883C948.419 733.543 951.316 729.13 951.361 726.114C951.452 720.585 952.538 715 949.325 710.085C948.329 708.577 947.876 706.734 949.098 705.059L949.143 705.003ZM736.151 670.934C758.102 675.234 780.143 676.072 802.23 672.554C810.739 671.213 819.384 671.325 827.802 673.391C843.009 677.133 858.398 674.006 873.65 675.514C878.855 676.016 883.879 677.468 888.405 681.434C879.172 679.423 869.984 683.612 860.887 680.987C845.091 676.351 828.843 677.524 812.911 674.955C798.247 672.554 784.036 678.418 769.643 681.099C754.798 683.835 740.315 681.099 725.107 671.492C730.267 669.37 733.254 670.431 736.196 671.046L736.151 670.934ZM154.698 128.345C155.422 139.459 165.108 139.962 171.761 145.268C159.179 145.714 149.131 138.398 146.868 127.898C144.515 117.175 147.094 109.356 155.739 103.882C144.56 111.869 154.155 120.302 154.698 128.345ZM202.854 13.1808C207.245 15.9174 211.725 18.5983 216.07 21.4467C218.56 23.1222 218.605 25.9706 217.519 28.7072C214.079 37.3641 208.059 43.005 201.723 48.1433C200.637 49.0369 199.279 49.3161 198.238 48.0316C197.106 46.6353 197.921 45.1832 198.6 43.8986C199.913 41.2736 201.27 38.6487 202.538 35.9678C206.023 28.5955 205.299 21.335 202.854 13.1249V13.1808ZM201.27 23.1222C203.036 28.9865 197.152 43.6752 192.173 45.7975C188.643 47.3055 188.598 44.0662 189.503 41.8321C193.531 31.5556 188.869 24.1833 184.162 15.8616C192.309 12.5105 199.053 15.4706 201.316 23.1222H201.27ZM191.585 8.8244C178.188 13.6276 165.922 11.8403 153.929 13.0691C141.663 14.3536 129.353 14.5212 117.449 19.4919C105.863 24.295 95.6792 33.3987 82.2823 37.5316C116.091 9.15951 150.851 -4.02125 191.585 8.76855V8.8244ZM27.9253 54.1751C44.1736 51.8853 59.6524 44.2896 76.0817 43.2843C87.8493 42.5582 97.3991 34.3482 107.628 28.5397C127.723 17.1462 148.995 15.9174 170.403 16.811C177.102 17.0903 184.841 18.9334 186.878 29.8243C188.598 38.9838 185.294 46.3002 176.83 53.3932C174.386 55.4039 172.53 58.5315 170.448 61.1565C168.05 64.1724 166.285 68.2495 161.532 69.0314C164.565 58.0847 163.071 55.0129 154.11 55.0687C146.642 55.1246 139.989 52.9464 132.973 49.9305C120.753 44.7364 108.035 47.6406 95.6792 50.2656C87.804 51.9411 79.9288 54.1751 72.3704 57.6937C56.0769 65.2336 39.7381 62.4969 23.0825 57.6937C23.9424 54.3985 26.2054 54.4544 27.88 54.1751H27.9253ZM157.006 72.55C139.581 54.6778 118.354 55.9065 97.3539 55.5714C111.656 51.3826 125.732 48.981 139.4 57.4703C143.383 59.9278 147.773 59.1458 152.028 59.09C156.916 59.09 161.759 58.8666 158.047 67.9144C157.549 69.0873 158.681 70.9303 157.006 72.55ZM108.488 74.6165C107.039 75.0633 105.455 75.2867 104.007 74.9516C85.2695 71.042 66.4414 74.0021 47.6586 73.5553C40.0549 73.3878 33.628 70.4277 27.2011 64.7309C31.2293 63.7256 34.6238 64.8985 37.973 65.5687C55.0359 69.199 71.7821 67.8586 88.7545 63.558C108.397 58.5315 128.266 58.3081 147.094 69.2548C149.267 70.5394 153.657 71.433 151.575 75.8452C149.9 79.3638 145.737 82.1563 142.387 79.2521C131.616 69.925 120.255 70.8745 108.488 74.5606V74.6165ZM102.785 140.409C92.7826 131.417 93.1899 117.007 104.731 111.422C116.589 105.669 128.085 98.8557 140.396 94.1084C155.603 88.1882 169.498 78.0234 183.936 65.9038C182.08 78.3026 175.337 83.776 168.366 88.0206C162.347 91.7068 155.422 92.9355 149.176 96.119C138.178 101.76 126.863 107.233 118.852 118.739C110.887 130.188 111.158 132.813 118.445 145.491C112.652 145.714 107.447 144.597 102.785 140.409ZM121.342 121.587C126.094 113.433 133.743 111.534 140.713 105.446C138.676 115.667 137.318 124.77 143.293 132.813C148.452 139.794 154.381 145.212 161.578 148.842C149.448 150.629 137.861 148.507 126.637 143.871C116.091 139.515 114.96 132.645 121.342 121.643V121.587ZM129.443 149.568C152.752 156.158 175.11 153.813 197.197 156.661C182.397 168.613 144.56 165.374 129.443 149.568ZM378.01 104.776L329.582 116.337C343.748 100.475 360.132 98.2413 378.01 104.776ZM329.582 107.457C314.782 120.079 297.538 122.313 280.158 124.547C294.958 111.31 313.56 114.997 329.582 107.457ZM305.73 127.228C284.639 139.738 264.453 147.781 243.181 151.188C263.729 144.597 280.294 122.76 305.73 127.228ZM255.944 167.999C276.447 166.77 295.637 168.166 314.556 169.786C299.032 175.762 276.854 175.259 255.944 167.999ZM413.132 118.459C396.159 126.39 385.704 147.781 366.831 151.914C342.707 157.22 319.353 167.161 294.008 163.754C273.686 161.017 252.957 164.759 231.685 158.113C242.004 156.047 251.418 154.595 260.697 151.97C278.71 146.887 295.637 138.342 312.564 129.629C336.552 117.342 361.988 112.818 387.333 108.015C395.118 106.563 402.858 109.244 410.642 109.914C412.769 110.082 414.761 110.864 415.213 113.824C415.53 115.834 414.58 117.733 413.132 118.403V118.459ZM621.598 266.017C623.092 265.067 624.54 264.118 626.034 263.168L621.644 266.073C621.915 266.24 630.56 272.16 635.086 274.729C643.323 279.477 645.405 291.094 646.446 294.724C647.487 298.354 649.116 301.426 649.116 301.426C649.116 301.426 631.963 288.134 629.926 285.006C627.889 281.878 620.965 269.479 619.109 267.748L614.674 270.652C616.122 269.647 617.615 268.698 619.064 267.748C614.176 263.448 610.464 258.589 609.107 253.73C612.999 259.035 617.163 263.001 621.598 266.073V266.017ZM675.322 194.863C670.162 198.772 664.233 198.717 658.53 199.443C653.099 200.169 647.577 199.61 642.101 199.61C652.103 191.903 663.509 192.35 674.054 188.664C675.593 188.105 677.313 188.273 677.675 190.562C678.037 192.629 676.589 193.858 675.276 194.863H675.322ZM668.849 186.541C664.686 187.491 660.476 187.826 654.502 188.719C661.789 184.251 667.537 180.677 673.285 177.214C678.988 173.807 683.876 169.116 688.447 163.754C693.742 157.555 695.417 150.518 693.561 141.861C693.018 139.347 691.298 136.667 693.199 134.042C693.607 133.483 694.783 133.092 695.236 133.427C698.042 135.661 696.051 139.012 696.413 141.861C696.549 143.089 696.186 144.43 696.413 145.547C701.391 167.664 685.912 182.576 668.849 186.485V186.541ZM701.165 109.244C699.536 112.092 698.495 113.209 696.232 109.691C690.936 101.592 684.509 95.3371 675.774 93.4381C672.742 92.7679 670.117 90.3664 668.306 87.4063C657.806 70.0926 643.051 66.3506 626.758 66.6857C619.2 66.8532 611.686 65.6245 604.943 60.6538C602.227 58.6432 599.24 58.5873 596.162 59.3134C568.735 65.6245 541.081 70.8186 514.74 82.9941C506.774 86.6802 498.356 87.6855 489.892 89.1377C508.087 79.8106 523.203 62.9995 541.986 55.9065C572.175 44.4013 602.363 31.5556 634.724 33.1194C654.05 34.0689 673.285 34.404 690.891 47.4172C704.424 57.4145 709.402 68.1937 706.732 87.2946C705.646 94.9461 704.922 102.598 701.21 109.244H701.165ZM743.347 60.8214C739.817 66.1272 740.043 74.1138 734.838 77.9675C733.209 79.1404 731.761 82.268 729.679 80.2574C727.597 78.2468 728.366 75.2308 729.407 72.6059C729.724 71.7681 730.131 70.9303 730.629 70.2601C738.323 61.1006 740.677 50.5448 734.702 36.8614C746.47 41.3853 749.548 51.4943 743.347 60.8214ZM684.057 13.5159C696.548 16.7552 709.402 18.3749 721.079 25.803C734.838 34.5716 738.188 51.8294 728.502 66.3506C725.515 70.8745 724.926 75.5659 725.605 81.0952C727.959 99.6934 720.084 115.499 704.152 122.816C711.122 111.59 716.961 100.866 718.862 87.8531C721.215 71.8239 720.491 57.582 709.719 44.7364C686.908 17.593 659.707 10.0531 629.473 13.2925C622.277 14.0744 615.126 15.7499 607.975 17.0345C633.23 6.08772 658.576 6.92548 684.012 13.5717L684.057 13.5159ZM562.851 35.2418C585.662 26.4174 609.016 20.3296 632.777 17.0345C656.675 13.7393 679.621 19.6594 698.585 37.2524C718.997 56.1858 722.98 74.1697 710.805 104.217C710.036 106.06 709.493 108.35 705.374 108.63C710.76 100.14 709.493 91.1483 710.624 82.8265C712.525 68.9197 708.588 57.1911 698.947 48.9252C679.395 32.2258 657.535 28.3163 634.316 29.7126C593.718 32.2258 568.871 38.4253 528.816 56.9677C539.904 49.0927 550.586 40.0449 562.851 35.2418ZM539.497 35.2976C522.615 46.2443 505.778 57.8054 487.312 67.5793C493.83 54.6778 517.908 39.7657 539.497 35.2976ZM436.938 94.8903C466.764 80.6483 497.496 69.1431 525.964 50.6565C498.944 73.6112 470.43 92.0977 436.938 94.8903ZM528.273 86.1217C518.134 91.3158 507.362 94.4993 498.265 103.044C490.254 110.64 480.704 113.544 470.476 112.316C461.876 111.255 453.367 108.63 444.587 109.914C450.923 105.278 457.531 104.552 464.682 104.217C478.441 103.603 492.11 103.044 504.737 92.4328C513.11 85.3957 524.335 83.2733 534.428 79.5872C554.478 72.2149 575.162 68.5288 595.574 63.2229C601.096 61.7708 604.445 66.7415 608.926 68.1378C617.751 70.9303 626.713 71.6005 635.81 71.7681C649.252 71.9915 655.136 75.8452 664.459 89.752C653.28 83.7201 643.64 80.034 633.094 79.9223C626.939 79.8664 620.603 77.5766 614.764 74.9516C605.667 70.8186 596.524 69.6458 587.382 72.7734C567.965 79.4196 547.191 76.4037 528.273 86.1217ZM602.272 82.268C596.343 81.8212 590.459 80.7601 584.576 79.9223C593.311 74.7282 601.955 74.3372 610.51 77.7441C620.15 81.542 629.836 83.9994 639.974 85.0047C657.897 86.7919 671.927 98.6881 683.966 114.438C685.415 116.337 687.813 119.018 685.912 121.643C683.83 124.491 681.839 121.308 680.255 119.576C657.851 95.6722 631.51 84.4462 602.272 82.2122V82.268ZM684.555 126.725C667.944 160.515 643.595 171.182 612.592 165.876C638.163 154.818 664.912 151.188 684.555 126.725ZM535.74 243.23C529.676 239.488 526.145 235.355 523.656 229.77C522.434 227.089 521.665 224.073 520.578 221.28C515.69 208.491 516.143 209.049 524.154 198.772C531.26 189.557 537.505 179.336 547.734 175.036C549.273 174.366 550.676 172.467 552.622 173.751C529.132 199.275 525.15 214.467 535.74 243.174V243.23ZM578.556 236.528C575.433 240.716 581.815 248.703 575.705 250.658C571.948 251.831 567.422 248.926 563.213 248.144C548.006 245.24 537.234 229.77 538.456 212.121C539.225 200.727 544.159 192.294 551.627 186.318C567.015 174.031 584.033 168.446 602.363 168.892C614.085 169.395 625.626 174.31 637.53 170.903C653.959 166.156 670.388 161.464 680.029 141.637C681.386 138.845 682.925 135.047 686.32 136.499C689.126 137.728 689.986 141.358 690.438 144.821C691.253 150.685 690.076 155.6 686.682 160.124C677.041 172.914 664.369 179.169 651.56 184.475C642.101 188.384 632.008 190.004 622.187 192.629C601.91 198.046 585.526 209.552 578.782 235.746C578.692 236.025 578.692 236.416 578.556 236.639V236.528ZM633.502 324.213C626.713 322.593 621.915 317.176 616.574 312.708C616.258 312.484 616.031 312.149 615.805 311.814C615.805 311.814 614.176 310.474 611.415 305.559C609.016 305.559 606.663 305.615 604.264 305.671C605.576 305.671 608.201 305.615 611.415 305.559C610.283 303.492 608.926 300.812 607.432 297.349C606.663 295.562 601.186 288.134 596.705 282.213C596.705 282.213 596.705 282.213 596.66 282.213C593.854 278.471 591.365 275.288 590.505 274.283C587.156 271.211 585.571 266.687 585.843 261.102C586.024 257.416 584.893 254.679 583.625 251.551C578.647 239.153 583.806 222.062 594.352 215.416C587.201 236.639 585.979 257.025 599.511 276.405C600.055 277.019 600.869 277.913 601.865 278.974C604.4 281.655 608.563 285.676 613.859 289.474C618.702 292.881 623.725 299.862 627.21 305.224C629.383 305.224 631.012 305.168 631.691 305.168C630.198 305.168 628.704 305.224 627.21 305.224C629.881 309.413 631.148 311.703 631.148 311.703L633.547 315.054C640.381 325.777 650.655 325.33 660.522 325.553C651.47 326.224 642.508 326.224 633.547 324.101L633.502 324.213ZM648.166 320.583C641.377 319.131 634.905 312.652 631.963 305.224C631.963 305.224 625.672 286.905 620.693 283.554C615.669 280.203 609.921 279.03 605.667 276.572C596.298 269.368 592.813 258.644 593.763 244.682C594.442 234.684 591.591 223.905 600.281 216.142C600.417 223.626 599.014 230.775 598.606 237.924C597.882 251.16 606.074 259.761 612.682 268.474C613.27 269.256 613.859 269.926 614.492 270.652C614.492 270.652 624.269 286.458 632.596 293.272C639.974 299.304 646.355 304.163 652.058 307.234C660.386 311.703 668.533 316.562 680.391 320.136C669.574 319.41 658.892 322.929 648.121 320.639L648.166 320.583ZM734.793 327.061C747.511 323.766 758.419 328.737 763.533 338.12C763.805 338.623 763.986 339.237 764.348 339.684C767.561 343.649 772.992 345.38 772.721 352.864C772.54 357.779 770.91 362.247 763.986 373.306C770.186 343.705 752.037 337.003 734.793 327.006V327.061ZM744.026 344.263C753.666 359.287 749.186 372.524 731.263 383.191C734.703 369.62 747.466 360.963 744.026 344.263ZM727.189 391.29C732.802 388.609 738.052 384.811 742.578 379.84C755.929 365.096 756.699 357.333 745.972 338.678C752.173 340.912 756.11 344.71 759.007 349.904C762.447 356.16 764.574 363.644 759.912 369.62C746.742 386.71 732.485 401.79 709.629 398.327C716.372 395.646 721.849 393.803 727.144 391.234L727.189 391.29ZM704.831 408.883C718.545 407.207 732.349 405.755 745.067 398.215C746.742 397.21 749.005 394.752 750.453 397.322C752.263 400.561 749.91 403.689 747.964 405.029C739.862 410.726 731.127 414.524 721.803 415.417C707.728 416.702 693.742 414.97 677.539 411.173C687.859 408.38 696.413 409.888 704.831 408.883ZM658.666 413.63C648.392 424.744 634.859 429.156 623.907 438.93C634.226 427.984 642.87 413.574 658.666 413.63ZM712.797 665.293C699.626 663.115 687.813 662.501 676.001 663.003C657.172 663.841 638.435 663.841 619.969 657.809C614.085 655.854 608.563 653.118 603.268 649.543C599.738 647.197 597.339 643.902 597.475 637.591C602.363 638.094 604.807 642.618 608.292 644.852C626.17 656.469 644.862 659.094 664.595 654.29C681.16 650.213 696.956 652.894 712.797 665.293ZM504.285 573.754C498.899 565.432 495.007 552.531 498.492 539.797C500.981 530.693 500.121 521.813 495.821 513.938C492.744 508.297 493.241 503.829 497.722 500.589C502.384 497.238 504.013 490.536 509.444 485.175C507.543 492.715 504.104 497.35 505.054 504.164C510.44 489.587 517.455 476.462 529.178 469.592C540.583 462.89 551.038 452.893 565.702 451.888C557.51 459.092 548.956 462.443 541.941 469.09C532.708 477.802 524.063 487.297 516.279 497.853C511.481 504.331 507.77 511.815 508.313 521.31C508.403 522.818 508.177 524.438 507.815 525.89C501.207 553.871 505.507 569.733 524.697 587.437C528.318 590.788 532.21 593.637 536.555 597.267C521.755 597.267 511.843 585.594 504.194 573.866L504.285 573.754ZM524.606 581.852C515.781 573.307 510.621 562.137 508.313 548.565C507.227 542.142 507.136 536.334 509.988 530.693C510.757 529.129 511.753 527.286 511.662 525.611C510.938 505.002 522.932 494.055 533.387 482.215C546.557 467.302 562.444 457.864 579.054 450.491C591.229 445.074 602.996 437.534 618.249 438.484C613.678 441.667 610.826 444.962 607.568 445.744C591.546 449.542 577.696 459.707 563.666 468.922C549.001 478.584 534.564 490.536 526.779 508.744C521.348 521.422 517.682 536.837 520.035 552.531C522.389 568.56 529.857 579.953 540.447 588.945C542.665 590.788 545.245 592.352 546.829 596.597C537.777 594.419 531.124 588.219 524.561 581.852H524.606ZM525.104 560.405C522.117 550.352 521.71 540.523 525.24 530.581C525.828 528.906 526.824 527.119 526.824 525.387C526.779 506.956 538.275 498.802 547.282 487.576C558.099 474.116 573.578 471.044 584.666 458.646C586.658 456.412 590.233 456.356 593.085 455.35C577.108 471.938 556.967 481.824 543.842 502.153C532.617 519.635 523.43 539.126 530.49 563.421C532.165 569.23 534.654 573.921 538.909 577.105C542.846 580.009 545.426 584.254 548.142 590.397C537.596 582.243 529.087 573.977 525.059 560.35L525.104 560.405ZM553.437 589.895C547.508 583.639 542.529 576.1 537.551 568.839C531.576 560.126 530.264 548.453 532.979 537.06C534.473 530.861 537.098 525.108 539.225 519.132C539.859 517.4 540.628 515.557 542.529 516.284C543.978 516.842 544.385 518.462 543.661 520.025C528.001 552.531 545.607 572.916 561.946 592.687C573.849 607.097 589.011 616.312 604.128 624.913C610.51 628.543 616.846 632.453 622.458 637.759C629.7 644.572 638.073 645.857 646.808 645.41C652.873 645.075 658.802 645.689 665.183 650.102C644.59 655.575 625.4 653.564 608.518 640.216C589.283 625.025 570.817 608.27 553.392 589.839L553.437 589.895Z" fill="#D0DFE6"/>
</svg>
