<svg width="921" height="696" viewBox="0 0 921 696" fill="none" xmlns="http://www.w3.org/2000/svg">
<path opacity="0.3" d="M673.28 653.272C686.894 653.078 700.625 653.272 713.306 659.487C721.397 663.449 729.838 665.624 738.862 665.935C747.109 666.207 755.122 665.624 763.251 663.76C774.493 661.157 785.462 665.741 796.626 666.673C810.124 667.8 820.159 675.141 827.356 685.163C829.962 688.814 832.101 692.426 833.774 696H837.08C832.762 684.502 822.999 674.947 810.357 666.168C815.258 666.09 818.253 666.751 820.704 668.343C828.911 673.859 837.936 678.132 845.288 685.007C849.45 688.931 851.939 692.349 852.989 696H856.062C855.479 692.504 854.001 689.164 851.589 686.561C845.988 680.501 839.531 675.452 832.218 671.529C829.806 670.247 827.433 668.693 826.033 666.751C846.027 663.449 863.725 668.46 878.701 682.56C881.113 684.813 883.174 687.183 885.119 689.824C886.87 692.232 888.231 694.252 889.165 696H891.927C888.309 686.289 880.724 679.491 871.855 673.665C870.766 672.966 869.677 672.267 868.665 671.451C868.393 671.257 868.393 670.752 868.043 669.819C878.584 672.927 889.476 673.743 898.695 679.88C904.063 683.454 905.852 690.212 904.257 695.961H907.369C907.564 695.379 907.719 694.796 907.719 694.291C907.797 690.445 908.731 686.561 905.969 683.143C905.113 682.094 904.724 680.812 905.774 679.647C906.786 678.52 908.147 678.637 909.353 679.142C913.865 681.006 916.782 684.153 917.133 688.659C916.86 691.611 916.277 693.902 915.032 695.961H919.505C922.267 690.717 921.295 684.153 915.81 680.229C906.747 673.743 897.567 667.256 885.664 666.207C872.944 665.042 860.419 662.556 848.438 657.856C843.732 656.03 838.675 655.486 833.735 655.797C824.205 656.341 814.753 656.03 805.261 654.903C798.182 654.088 790.908 653.078 783.945 653.932C768.853 655.758 753.799 655.758 738.668 654.942C727.193 654.321 715.99 652.301 704.943 648.999C695.452 646.203 686.933 640.221 676.508 640.57C671.257 640.764 666.161 639.871 661.221 638.006C655.892 635.987 650.447 635.132 644.728 635.249C639.555 635.326 633.759 635.482 629.675 632.258C619.639 624.372 607.464 620.721 596.611 614.545C583.347 607.009 571.405 598.075 562.225 585.606C553.94 574.342 553.784 561.485 562.537 550.686C563.937 548.977 564.909 547.074 565.221 544.86C565.765 541.092 567.71 538.023 570.005 535.071C578.251 524.35 588.987 515.727 601.085 511.26C619.017 504.617 633.448 491.566 651.73 486.05C652.858 485.701 653.908 484.613 654.686 483.642C658.81 478.515 664.178 477.699 670.401 478.282C688.372 479.913 706.188 484.186 724.392 478.359C730.693 476.339 736.217 473.97 738.279 468.104C741.04 460.258 745.553 454.16 751.271 448.45C753.838 445.886 755.588 442.507 756.678 438.933C757.689 435.748 758.584 431.902 756.25 429.61C751.66 425.105 748.042 419.472 742.013 416.52C735.672 413.413 728.904 412.83 721.941 412.014C708.405 410.422 694.868 409.218 681.215 409.101C672.113 409.023 664.139 405.1 655.97 401.798C655.97 401.798 653.403 400.361 650.641 398.031C647.879 395.7 647.335 384.435 644.223 381.095C641.072 377.754 632.398 373.87 628.158 372.2C623.568 369.947 619.211 366.956 615.127 363.071C611.393 359.498 609.02 356.973 613.221 352.584C615.983 349.67 616.06 346.912 612.91 344.271C608.864 340.853 610.615 337.745 613.649 335.026C615.944 332.968 618.939 332.191 621.934 331.569C630.725 329.821 639.516 330.248 648.424 330.598C656.554 330.909 665.461 331.725 672.191 326.636C676.897 323.101 681.721 320.266 686.816 317.508C697.202 311.914 700.936 298.474 695.024 289.113C690.978 282.704 691.251 281.15 697.863 277.577C705.137 273.653 712.334 268.526 714.317 260.874C717.313 249.337 727.154 242.889 731.977 232.829C735.711 225.06 736.178 217.99 728.554 213.912C716.34 207.347 704.865 198.724 690.239 197.559C685.299 197.17 680.437 195.811 675.575 194.917C653.792 190.839 632.125 190.14 610.887 197.831C593.733 204.007 576.229 208.357 557.986 210.066C543.087 211.465 529.551 217.097 517.026 225.254C502.75 234.577 488.28 243.627 471.943 249.065C449.693 256.484 427.482 263.826 403.754 254.97C400.759 253.843 397.375 253.455 394.185 253.455C386.872 253.455 379.209 252.95 373.102 257.805C368.512 261.495 363.533 264.253 357.893 264.37C336.227 264.875 318.1 276.1 299.351 284.335C275.662 294.745 252.79 293.619 229.374 286.277C225.717 285.151 219.377 283.442 222.527 276.372C223.15 275.013 221.827 274.081 220.972 273.109C217.16 268.681 217.976 266.118 224.044 265.457C230.268 264.797 234.819 261.146 239.682 258.077C242.171 256.523 244.622 254.193 244.194 250.697C242.755 239.238 248.2 232.285 258.158 227.429C264.81 224.167 270.411 219.117 273.873 212.397C275.74 208.784 278.035 204.356 271.85 201.598C256.136 194.607 240.109 190.295 222.566 190.256C203.895 190.256 187.247 195.655 171.376 204.473C159.123 211.27 146.52 216.359 132.284 216.942C126.06 217.214 119.369 216.864 113.846 219.933C103.382 225.72 91.6739 224.749 80.549 226.575C75.998 227.313 70.63 228.206 66.0011 225.526C62.3058 223.351 58.4938 222.885 54.215 222.807C40.1727 222.652 28.1532 211.853 28.3866 199.928C28.5811 190.411 35.8161 185.595 42.2732 180.739C54.7206 171.378 69.1908 166.367 84.2444 162.832C89.2622 161.667 94.1245 159.686 99.4925 160.308C120.731 162.755 141.969 165.357 163.286 167.338C180.284 168.931 196.66 168.504 211.247 156.695C218.91 150.48 229.412 147.683 233.575 137.351C233.847 136.652 234.819 136.186 235.481 135.603C242.755 129.272 241.665 122.28 233.069 117.929C228.479 115.599 222.994 115.443 218.988 111.598C213.97 106.781 214.242 103.363 220.31 100.139C227.74 96.1768 235.325 92.5255 242.521 88.2139C250.651 83.3584 251.623 72.5599 243.96 67.0829C234.897 60.5961 225.717 54.1092 213.814 53.0604C201.095 51.8951 188.569 49.4091 176.589 44.709C171.882 42.8834 166.825 42.3395 161.885 42.6503C152.355 43.1941 142.903 42.8834 133.412 41.7569C126.332 40.9412 119.058 39.9312 112.095 40.7858C97.003 42.6115 81.9494 42.6115 66.818 41.7957C55.343 41.1742 44.1403 39.1544 33.0932 35.8527C23.6021 33.0559 15.0834 27.074 4.65867 27.4236C-0.59259 27.6178 -5.68825 26.7244 -10.6283 24.8599C-15.9574 22.8401 -21.4031 21.9855 -27.1212 22.102C-32.2946 22.1797 -38.0905 22.3351 -42.1748 19.1111C-52.2883 11.3812 -64.4634 7.72988 -75.316 1.59259C-76.2107 1.08762 -77.1053 0.543811 -78 0V3.3794C-72.9821 6.09845 -67.7698 8.58444 -62.5963 10.9927C-57.1117 13.5176 -51.6659 16.2366 -46.8425 19.9268C-40.6188 24.6657 -33.4227 25.5591 -25.9153 25.2484C-20.703 25.0153 -15.6073 25.4426 -10.1226 28.5112C-27.8213 32.3179 -44.3142 30.9195 -58.8232 21.6359C-65.2803 17.4408 -71.6985 13.0515 -78 8.50675V12.0804C-77.8055 12.3134 -77.5721 12.5465 -77.3776 12.7796C-76.3663 13.9449 -75.0048 14.9548 -76.7553 17.13C-77.2609 17.7515 -77.6499 18.2953 -78 18.878V26.1806C-77.222 27.1128 -76.1718 28.0839 -74.7326 29.0939C-65.9027 35.3477 -56.0614 39.1155 -45.2088 39.737C-29.6884 40.6304 -14.1681 40.4751 1.39122 40.242C15.0056 40.0478 28.7367 40.242 41.4175 46.457C49.5083 50.419 57.9492 52.5943 66.9736 52.905C75.22 53.1769 83.233 52.5943 91.3627 50.7298C102.604 48.1272 113.574 52.7108 124.737 53.643C138.235 54.7695 148.271 62.111 155.467 72.1326C167.175 88.4469 169.898 104.179 157.023 116.065C144.186 127.912 129.133 135.603 110.929 135.448C91.6739 135.253 72.4193 135.137 53.1647 135.37C43.0123 135.487 32.8988 136.535 23.4465 140.925C18.3508 143.294 14.2276 147.334 8.62628 148.771C-4.83249 152.228 -15.9185 159.181 -23.6981 170.99C-24.6317 172.388 -26.032 173.553 -27.4323 174.563C-33.5783 179.069 -36.8068 185.789 -40.4243 192.082C-42.8749 196.316 -42.2526 200.822 -39.7631 205.055C-36.4567 210.61 -28.7549 214.067 -31.3611 222.457C-31.4 222.613 -31.2055 222.924 -31.0499 223.001C-24.0093 226.73 -20.8586 235.431 -12.651 237.684C-2.6153 240.442 6.87586 244.443 16.2114 249.026C23.4854 252.6 31.5373 254.426 39.5503 251.979C46.0463 249.959 52.3868 250.153 58.7272 251.629C65.3399 253.144 71.797 252.833 77.7873 250.153C88.3676 245.453 99.2591 245.725 110.228 247.123C122.131 248.638 134.112 249.026 145.665 246.036C161.885 241.84 178.339 246.696 194.521 243.55C196.077 243.239 197.905 244.132 199.578 244.598C201.172 245.026 203.467 244.87 203.545 247.162C203.623 249.493 201.172 249.182 199.733 249.92C191.798 253.843 183.707 257.494 175.927 261.767C168.731 265.69 164.258 272.682 164.958 280.334C165.658 287.987 172.504 291.871 179.973 293.658C183.551 294.512 187.363 295.134 190.475 296.882C210.002 307.797 230.579 309.545 252.012 304.651C253.996 304.184 255.902 304.223 257.73 305C265.082 308.185 272.784 308.613 280.641 308.341C290.444 307.991 300.013 309.506 309.582 311.526C321.679 314.09 333.893 315.488 346.263 313.585C353.498 312.458 360.772 311.293 368.085 310.671C385.628 309.195 402.548 305.583 418.924 298.746C431.878 293.308 442.925 285.035 454.516 277.615C465.836 270.352 477.35 267.943 490.303 270.235C500.844 272.1 510.88 269.769 519.399 263.826C531.535 255.358 545.149 251.94 559.269 249.842C579.302 246.851 599.49 247.9 619.367 250.697C637.727 253.299 654.764 260.33 669.74 271.711C673.63 274.663 674.019 277.11 669.973 280.334C663.127 285.811 656.087 290.706 647.062 291.638C643.289 292.026 639.944 293.541 636.715 295.289C630.647 298.591 624.035 299.717 617.383 300.417C607.075 301.465 596.689 301.621 586.381 302.592C570.511 304.068 554.835 306.243 543.982 319.955C541.415 323.179 539.003 326.364 535.23 328.423C531.963 330.21 531.224 333.589 532.157 336.93C535.308 348.35 540.403 358.138 552.734 362.45C561.953 365.674 570.394 370.568 578.407 376.162C585.02 380.745 591.905 384.63 599.412 387.349C599.412 387.349 605.519 391.699 606.647 394.845C607.775 397.992 608.748 400.245 609.37 401.915C611.12 407.508 615.672 411.975 622.595 414.345C633.798 418.19 645.351 419.628 657.098 419.123C672.93 418.424 688.683 420.016 704.437 420.715C718.635 421.337 727.193 433.378 722.019 444.255C718.557 451.518 713.073 456.607 705.565 459.947C688.217 467.677 670.207 471.018 651.302 469.697C646.09 469.347 640.955 470.357 635.976 471.95C633.254 472.805 629.947 474.358 630.686 477.544C631.892 482.826 628.158 483.953 625.124 484.419C608.436 486.866 593.5 494.363 577.785 499.646C571.678 501.704 565.143 502.403 559.23 505.356C542.66 513.668 526.517 522.524 514.031 536.702C511.152 540.004 509.791 543.461 512.747 547.151C516.987 552.473 517.142 558.183 515.197 564.281C513.914 568.321 514.497 572.089 515.275 576.284C517.104 586.5 522.316 593.336 530.796 599.396C537.836 604.407 545.071 608.485 553.201 608.252C565.221 607.903 574.673 613.846 584.903 618.196C588.715 619.828 591.749 622.702 594.472 625.81C595.483 626.975 596.845 627.985 595.094 630.16C591.049 635.132 591.632 638.24 597.117 642.124C605.947 648.378 615.788 652.146 626.641 652.767C642.161 653.66 657.682 653.505 673.241 653.272H673.28ZM722.719 655.991C741.585 658.982 760.528 659.565 779.511 657.118C786.824 656.185 794.253 656.263 801.488 657.7C814.558 660.303 827.783 658.127 840.892 659.176C845.365 659.526 849.683 660.536 853.573 663.294C845.638 661.895 837.741 664.809 829.923 662.983C816.347 659.759 802.383 660.575 788.691 658.788C776.088 657.118 763.874 661.196 751.504 663.061C738.745 664.964 726.298 663.061 713.228 656.38C717.663 654.903 720.23 655.641 722.758 656.069L722.719 655.991ZM-0.787079 37.4453C-16.9687 38.0279 -33.0726 38.0279 -48.943 33.8328C-53.9998 32.4733 -58.7454 30.5699 -63.2965 28.0839C-66.3305 26.4525 -68.3921 24.1607 -68.2755 19.7714C-64.0744 20.121 -61.9739 23.2673 -58.9788 24.8211C-43.614 32.9005 -27.549 34.7262 -10.5894 31.3856C3.64731 28.5501 17.2228 30.4146 30.8372 39.0378C19.5178 37.5229 9.36535 37.0957 -0.787079 37.4453ZM119.058 154.908C153.522 155.18 183.668 141.663 214.32 126.397C211.208 134.088 205.412 138.478 199.111 142.44C183.435 152.345 165.697 153.821 147.882 156.035C138.157 157.239 128.744 158.094 119.019 154.87L119.058 154.908ZM178.689 139.643C189.308 130.981 201.678 127.718 209.263 117.618C210.313 116.22 211.83 114.822 213.503 116.919C215.292 119.133 214.125 121.27 212.258 122.474C205.957 126.591 199.578 130.709 192.965 134.282C189.036 136.419 184.563 137.506 178.689 139.643ZM229.374 119.794C238.398 123.639 239.176 127.562 232.135 134.515C229.957 136.691 228.051 139.021 226.962 141.857C225.989 144.421 224.356 146.518 221.827 147.412C214.164 150.208 207.941 155.219 201.445 159.842C195.532 164.075 188.414 164.386 181.568 164.93C175.577 165.435 169.47 165.047 163.441 165.047C170.91 163.609 177.717 159.492 185.574 160.541C189.658 161.085 193.859 159.686 197.205 157.2C202.339 153.432 207.007 149.975 213.62 147.917C225.134 144.343 228.518 129.738 221.905 118.279C224.706 118.123 227.079 118.823 229.374 119.794ZM217.976 126.824C218.21 125.581 218.754 124.067 220.271 124.105C222.255 124.183 222.294 126.048 222.45 127.524C223.111 133.039 217.471 142.245 211.48 144.537C206.151 146.596 201.211 148.926 197.477 153.432C194.365 157.2 189.503 157.394 185.535 157.2C174.294 156.579 164.063 161.978 152.977 161.784C149.788 161.745 146.598 162.716 143.331 160.696C151.966 158.171 161.029 157.783 169.82 155.996C183.318 153.238 196.271 149.548 207.085 140.653C211.675 136.885 216.654 133.272 217.937 126.824H217.976ZM233.847 66.6168C234.858 65.4903 236.22 65.6069 237.425 66.1118C241.938 67.9763 244.855 71.1227 245.205 75.6285C244.933 78.8137 244.31 81.2997 242.755 83.5138C241.199 85.7279 238.904 88.0585 236.492 87.3981C233.224 86.4659 235.714 83.3973 235.753 81.2997C235.831 77.4542 236.764 73.5698 234.002 70.1516C233.147 69.1028 232.758 67.821 233.808 66.6557L233.847 66.6168ZM226.767 66.8499C235.286 72.521 234.858 86.2328 225.951 91.2437C224.239 92.2148 222.411 93.5743 221.866 90.0395C219.843 76.3277 210.78 67.7821 199.928 60.6349C198.838 59.9357 197.749 59.2365 196.738 58.4208C196.466 58.2266 196.466 57.7216 196.116 56.7894C206.657 59.8969 217.548 60.7126 226.767 66.8499ZM116.724 45.6801C104.121 44.0098 91.9073 48.0884 79.5377 49.9529C66.7791 51.8562 54.3317 49.9529 41.2619 43.2718C45.6963 41.7957 48.2635 42.5338 50.7919 42.961C69.6576 45.952 88.601 46.5347 107.583 44.0875C114.896 43.1553 122.326 43.233 129.561 44.6702C142.631 47.2727 155.856 45.0974 168.965 46.1462C173.438 46.4958 177.756 47.5057 181.645 50.2636C173.71 48.8653 165.814 51.7785 157.995 49.9529C144.42 46.7289 130.455 47.5446 116.763 45.7578L116.724 45.6801ZM162.897 116.647C175.305 87.8643 161.613 69.2582 138.391 53.1381C143.292 53.0604 146.287 53.7207 148.738 55.3133C156.945 60.8291 165.969 65.1019 173.321 71.9772C182.735 80.8336 184.057 87.2816 177.833 98.8182C177.133 100.1 176.705 101.537 176.122 102.936C185.341 97.2256 187.247 81.8047 179.584 73.4921C173.983 67.4325 167.525 62.3829 160.213 58.4597C157.801 57.1778 155.428 55.6241 154.028 53.6819C174.021 50.3802 191.72 55.391 206.696 69.4912C209.108 71.7442 211.169 74.1136 213.114 76.755C221.477 88.2139 221.088 91.2048 209.535 98.8959C205.296 101.731 203.351 105.072 205.918 109.772C208.135 113.851 206.929 116.88 203.662 119.328C187.48 131.525 170.598 142.051 149.71 144.382C141.619 145.275 133.762 148.305 124.387 145.702C128.977 142.867 132.712 140.264 136.679 138.167C152.666 129.699 166.942 119.366 175.927 103.091C168.77 104.412 168.498 112.53 162.819 116.609L162.897 116.647ZM101.01 138.516C118.125 141.313 132.789 135.448 146.909 126.941C147.648 126.514 148.426 126.203 149.399 125.737C144.498 134.244 118.475 145.547 91.3627 151.762C69.852 156.695 48.3024 156.384 26.0138 153.821C30.7983 150.869 35.5827 150.83 40.2894 151.063C54.4095 151.801 67.6348 149.198 80.2379 142.362C86.4616 138.944 93.8911 137.351 101.01 138.516ZM19.44 146.324C26.7917 141.935 34.8826 139.526 43.3624 138.866C53.6704 138.05 64.0562 137.739 74.4031 137.351C75.998 137.312 77.6317 138.05 80.938 138.788C70.5522 144.421 61.0221 147.412 50.8308 147.878C40.7951 148.344 30.5649 146.207 21.0348 151.218C19.5567 151.995 17.8841 151.374 17.2617 149.742C16.5615 147.878 18.1563 147.062 19.44 146.285V146.324ZM-19.4971 229.799C-21.3642 227.429 -23.3091 225.138 -26.1487 223.817C-27.5879 223.157 -29.1439 221.952 -28.6382 220.438C-26.6544 213.951 -30.5053 210.532 -34.9008 207.075C-36.34 205.949 -37.4681 204.279 -37.5848 201.327C-33.6172 204.123 -30.4664 206.959 -26.4988 208.513C-24.2038 209.406 -24.4761 211.426 -25.1374 213.485C-26.81 218.612 -24.515 221.952 -20.314 224.827C-15.0627 228.439 -10.1226 232.518 -5.06588 236.402C-11.0951 236.208 -15.9185 234.188 -19.4582 229.76L-19.4971 229.799ZM-3.39326 233.606C-9.22799 229.954 -14.6737 225.643 -20.314 221.719C-23.1924 219.738 -23.348 217.214 -22.22 214.3C-20.7419 210.571 -22.1422 208.279 -25.4485 206.337C-38.246 198.802 -39.9576 191.81 -29.8051 180.739C-23.2702 173.592 -17.3577 165.435 -7.55536 161.434C-1.02047 158.754 5.43663 157.045 13.4108 156.229C1.858 162.794 -8.21663 169.319 -13.6624 180.778C-20.314 194.762 -15.2961 211.97 -0.981574 223.351C7.84832 230.382 18.3119 234.732 28.5033 239.51C30.5649 240.481 33.2488 240.209 35.2327 243.627C21.3071 242.229 8.2373 240.83 -3.31546 233.606H-3.39326ZM41.7675 239.859C24.2634 234.849 6.91476 229.1 -5.33817 214.572C-18.7191 198.685 -16.3853 183.381 -0.903776 169.164C13.5275 155.918 31.265 156.074 49.1971 158.443C53.8649 159.065 58.416 160.424 63.2394 159.492C49.6639 166.989 35.7383 173.359 22.9797 181.905C19.9068 183.963 17.0283 186.294 14.9667 189.401C13.9164 190.994 12.3216 193.092 12.6717 194.607C14.1887 201.793 12.8273 210.183 18.1174 215.932C25.5859 224.011 32.7432 232.945 44.5682 235.354C45.813 235.587 46.941 236.325 48.1079 236.907C48.4191 237.063 48.4969 237.606 48.7303 238.073C46.9021 240.559 44.1014 240.559 41.7675 239.898V239.859ZM60.5943 234.149C59.933 236.674 57.6769 236.014 55.732 235.625C40.7951 232.518 29.0089 224.283 19.5567 212.708C15.7836 208.085 19.1288 201.093 15.4724 197.209C15.2779 193.519 16.7171 191.616 18.273 189.829C23.7577 183.497 31.3428 180.04 38.2278 175.651C39.1614 175.068 40.3283 174.563 41.1452 175.651C42.1954 177.049 40.9896 177.981 40.056 178.836C37.9944 180.701 36.0106 182.72 33.7934 184.43C18.7398 196.044 24.8468 213.64 38.3056 221.758C44.1792 225.332 50.2473 228.634 56.9378 230.692C58.6494 231.236 61.3333 231.469 60.6721 234.149H60.5943ZM218.443 279.713C219.066 287.443 227.39 287.792 233.108 291.483C222.294 291.793 213.659 286.705 211.714 279.402C209.691 271.944 211.908 266.506 219.338 262.699C209.73 268.254 217.976 274.119 218.443 279.713ZM259.831 199.579C263.604 201.482 267.455 203.346 271.189 205.327C273.328 206.493 273.367 208.474 272.434 210.377C269.478 216.398 264.304 220.321 258.858 223.895C257.925 224.516 256.758 224.71 255.863 223.817C254.891 222.846 255.591 221.836 256.174 220.943C257.302 219.117 258.469 217.291 259.559 215.427C262.554 210.299 261.931 205.25 259.831 199.54V199.579ZM258.469 206.493C259.986 210.571 254.93 220.787 250.651 222.263C247.617 223.312 247.578 221.059 248.356 219.505C251.818 212.358 247.811 207.231 243.766 201.443C250.768 199.112 256.563 201.171 258.508 206.493H258.469ZM250.145 196.549C238.631 199.889 228.09 198.646 217.782 199.501C207.24 200.394 196.66 200.511 186.43 203.968C176.472 207.308 167.72 213.64 156.206 216.514C185.224 196.859 215.098 187.654 250.145 196.549ZM109.489 228.129C123.454 226.536 136.757 221.253 150.877 220.554C160.991 220.049 169.198 214.339 177.989 210.299C195.26 202.375 213.542 201.521 231.941 202.142C237.698 202.336 244.349 203.618 246.1 211.193C247.578 217.563 244.738 222.652 237.464 227.585C235.364 228.983 233.769 231.158 231.98 232.984C229.918 235.082 228.401 237.917 224.317 238.461C226.923 230.848 225.639 228.711 217.937 228.75C211.519 228.789 205.801 227.274 199.772 225.176C189.27 221.564 178.339 223.584 167.681 225.41C160.913 226.575 154.144 228.129 147.648 230.576C133.645 235.82 119.603 233.916 105.288 230.576C106.027 228.284 107.972 228.323 109.412 228.129H109.489ZM220.427 240.908C205.451 228.478 187.208 229.333 169.159 229.1C181.451 226.186 193.548 224.516 205.296 230.42C208.719 232.129 212.492 231.586 216.148 231.547C220.349 231.547 224.511 231.391 221.322 237.684C220.894 238.5 221.866 239.782 220.427 240.908ZM178.728 242.345C177.483 242.656 176.122 242.811 174.877 242.578C158.773 239.859 142.592 241.918 126.449 241.607C119.914 241.491 114.39 239.432 108.867 235.47C112.329 234.771 115.246 235.587 118.125 236.053C132.789 238.578 147.182 237.645 161.768 234.654C178.65 231.158 195.727 231.003 211.908 238.616C213.775 239.51 217.548 240.131 215.759 243.2C214.32 245.647 210.741 247.589 207.863 245.569C198.605 239.082 188.842 239.743 178.728 242.307V242.345ZM173.827 288.103C165.23 281.849 165.58 271.828 175.5 267.943C185.691 263.942 195.571 259.203 206.151 255.902C219.221 251.784 231.163 244.715 243.571 236.286C241.977 244.909 236.181 248.716 230.19 251.668C225.017 254.232 219.066 255.086 213.698 257.3C204.245 261.223 194.521 265.03 187.636 273.032C180.79 280.995 181.023 282.82 187.286 291.638C182.307 291.793 177.833 291.016 173.827 288.103ZM189.775 275.013C193.859 269.342 200.433 268.021 206.424 263.787C204.673 270.895 203.506 277.227 208.641 282.82C213.075 287.676 218.171 291.444 224.356 293.969C213.931 295.212 203.973 293.735 194.326 290.511C185.263 287.482 184.291 282.704 189.775 275.052V275.013ZM196.738 294.473C216.771 299.057 235.986 297.426 254.969 299.407C242.249 307.719 209.73 305.466 196.738 294.473ZM410.367 263.321L368.746 271.362C380.921 260.33 395.002 258.776 410.367 263.321ZM368.746 265.185C356.026 273.964 341.206 275.518 326.269 277.072C338.989 267.866 354.976 270.429 368.746 265.185ZM348.246 278.936C330.12 287.637 312.771 293.23 294.489 295.6C312.149 291.016 326.386 275.829 348.246 278.936ZM305.458 307.292C323.079 306.437 339.572 307.408 355.832 308.535C342.489 312.691 323.429 312.342 305.458 307.292ZM440.552 272.838C425.965 278.353 416.98 293.231 400.759 296.105C380.026 299.795 359.955 306.709 338.172 304.34C320.707 302.436 302.891 305.039 284.609 300.417C293.478 298.979 301.569 297.969 309.543 296.144C325.024 292.609 339.572 286.666 354.12 280.606C374.736 272.061 396.597 268.914 418.38 265.574C425.07 264.564 431.722 266.428 438.412 266.895C440.241 267.011 441.952 267.555 442.341 269.614C442.613 271.012 441.797 272.333 440.552 272.799V272.838ZM624.268 374.414C625.552 373.753 626.796 373.093 628.08 372.433L624.307 374.453C624.54 374.569 631.97 378.686 635.86 380.473C642.939 383.775 644.728 391.854 645.623 394.379C646.518 396.904 647.918 399.041 647.918 399.041C647.918 399.041 633.176 389.796 631.425 387.621C629.675 385.445 623.723 376.822 622.129 375.618L618.317 377.638C619.561 376.939 620.845 376.278 622.09 375.618C617.889 372.627 614.699 369.247 613.532 365.868C616.877 369.558 620.456 372.316 624.268 374.453V374.414ZM670.44 324.927C666.006 327.646 660.91 327.607 656.009 328.112C651.341 328.617 646.596 328.229 641.889 328.229C650.485 322.868 660.288 323.179 669.351 320.615C670.674 320.227 672.152 320.343 672.463 321.936C672.774 323.373 671.529 324.228 670.401 324.927H670.44ZM664.878 319.139C661.299 319.8 657.682 320.033 652.547 320.654C658.81 317.547 663.75 315.061 668.69 312.652C673.591 310.283 677.792 307.02 681.721 303.291C686.272 298.979 687.711 294.085 686.116 288.064C685.649 286.316 684.171 284.452 685.805 282.626C686.155 282.238 687.166 281.966 687.555 282.199C689.967 283.753 688.256 286.083 688.567 288.064C688.683 288.919 688.372 289.851 688.567 290.628C692.846 306.01 679.542 316.381 664.878 319.1V319.139ZM692.651 265.38C691.251 267.361 690.356 268.138 688.411 265.69C683.86 260.058 678.337 255.708 670.829 254.387C668.223 253.921 665.967 252.25 664.411 250.192C655.387 238.15 642.706 235.548 628.702 235.781C622.206 235.897 615.749 235.043 609.954 231.586C607.62 230.187 605.052 230.148 602.407 230.653C578.835 235.043 555.068 238.655 532.429 247.123C525.583 249.687 518.348 250.386 511.074 251.396C526.711 244.909 539.703 233.217 555.846 228.284C581.791 220.282 607.736 211.348 635.549 212.436C652.158 213.096 668.69 213.329 683.821 222.38C695.452 229.333 699.731 236.83 697.436 250.114C696.502 255.436 695.88 260.757 692.69 265.38H692.651ZM728.904 231.702C725.87 235.392 726.065 240.947 721.591 243.627C720.191 244.443 718.946 246.618 717.157 245.22C715.368 243.821 716.029 241.724 716.924 239.898C717.196 239.316 717.546 238.733 717.974 238.267C724.587 231.896 726.609 224.555 721.475 215.038C731.588 218.185 734.233 225.215 728.904 231.702ZM677.948 198.802C688.683 201.055 699.731 202.181 709.766 207.347C721.591 213.446 724.47 225.448 716.146 235.548C713.578 238.694 713.073 241.957 713.656 245.802C715.679 258.737 708.911 269.73 695.218 274.819C701.209 267.011 706.227 259.553 707.86 250.503C709.883 239.354 709.261 229.449 700.003 220.515C680.398 201.637 657.02 196.393 631.036 198.646C624.852 199.19 618.706 200.355 612.56 201.249C634.265 193.635 656.048 194.218 677.909 198.84L677.948 198.802ZM573.778 213.912C593.383 207.775 613.454 203.541 633.876 201.249C654.414 198.957 674.136 203.074 690.434 215.31C707.977 228.478 711.4 240.986 700.936 261.884C700.275 263.166 699.808 264.758 696.269 264.952C700.897 259.048 699.808 252.794 700.781 247.007C702.415 237.335 699.03 229.177 690.745 223.429C673.941 211.814 655.153 209.095 635.198 210.066C600.307 211.814 578.952 216.126 544.527 229.022C554.057 223.545 563.237 217.252 573.778 213.912ZM553.707 213.951C539.198 221.564 524.728 229.605 508.857 236.402C514.458 227.429 535.152 217.058 553.707 213.951ZM542.115 224.633C518.893 240.597 494.387 253.455 465.563 255.397C491.197 245.492 517.648 237.49 542.115 224.633ZM544.099 249.298C535.386 252.911 526.128 255.125 518.309 261.068C511.424 266.351 503.217 268.371 494.426 267.516C487.035 266.778 479.722 264.952 472.176 265.846C477.622 262.622 483.301 262.117 489.447 261.884C501.272 261.456 513.019 261.068 523.872 253.688C531.068 248.793 540.715 247.317 549.389 244.754C566.621 239.626 584.397 237.063 601.94 233.372C606.686 232.363 609.565 235.82 613.415 236.791C621.001 238.733 628.702 239.199 636.521 239.316C648.074 239.471 653.131 242.151 661.144 251.823C651.536 247.628 643.25 245.064 634.187 244.987C628.897 244.948 623.451 243.355 618.433 241.53C610.615 238.655 602.757 237.84 594.9 240.015C578.213 244.637 560.358 242.54 544.099 249.298ZM607.697 246.618C602.602 246.307 597.545 245.569 592.488 244.987C599.996 241.374 607.425 241.102 614.777 243.472C623.062 246.113 631.386 247.822 640.1 248.521C655.503 249.764 667.562 258.038 677.909 268.992C679.153 270.313 681.215 272.177 679.581 274.003C677.792 275.984 676.08 273.77 674.719 272.566C655.464 255.941 632.826 248.133 607.697 246.579V246.618ZM678.414 277.538C664.139 301.038 643.211 308.457 616.566 304.767C638.544 297.076 661.533 294.551 678.414 277.538ZM550.517 358.565C545.305 355.963 542.271 353.089 540.131 349.204C539.081 347.34 538.42 345.242 537.486 343.3C533.285 334.405 533.674 334.793 540.559 327.646C546.666 321.237 552.034 314.128 560.825 311.137C562.148 310.671 563.353 309.351 565.026 310.244C544.838 327.996 541.415 338.561 550.517 358.527V358.565ZM587.315 353.904C584.631 356.818 590.115 362.372 584.864 363.732C581.636 364.547 577.746 362.528 574.128 361.984C561.058 359.964 551.801 349.204 552.851 336.93C553.512 329.005 557.752 323.14 564.17 318.984C577.396 310.438 592.021 306.554 607.775 306.865C617.85 307.214 627.769 310.632 637.999 308.263C652.119 304.961 666.239 301.698 674.525 287.909C675.691 285.967 677.014 283.325 679.931 284.335C682.343 285.19 683.082 287.715 683.471 290.123C684.171 294.202 683.16 297.62 680.243 300.766C671.957 309.661 661.066 314.012 650.058 317.702C641.928 320.421 633.253 321.548 624.813 323.373C607.386 327.141 593.305 335.143 587.509 353.36C587.431 353.555 587.431 353.827 587.315 353.982V353.904ZM634.537 414.889C628.702 413.762 624.579 409.994 619.989 406.887C619.717 406.732 619.522 406.498 619.328 406.265C619.328 406.265 617.928 405.333 615.555 401.915C613.493 401.915 611.471 401.954 609.409 401.993C610.537 401.993 612.793 401.954 615.555 401.915C614.582 400.478 613.415 398.613 612.132 396.205C611.471 394.962 606.764 389.796 602.913 385.678C602.913 385.678 602.913 385.678 602.874 385.678C600.462 383.076 598.323 380.862 597.584 380.163C594.705 378.026 593.344 374.88 593.577 370.995C593.733 368.432 592.761 366.528 591.671 364.353C587.393 355.73 591.827 343.844 600.89 339.221C594.744 353.982 593.694 368.16 605.325 381.639C605.791 382.066 606.492 382.687 607.347 383.425C609.526 385.29 613.104 388.087 617.655 390.728C621.817 393.097 626.135 397.953 629.13 401.682C630.997 401.682 632.398 401.643 632.981 401.643C631.698 401.643 630.414 401.682 629.13 401.682C631.425 404.595 632.514 406.188 632.514 406.188L634.576 408.518C640.45 415.976 649.28 415.666 657.759 415.821C649.98 416.287 642.278 416.287 634.576 414.811L634.537 414.889ZM647.14 412.364C641.305 411.354 635.743 406.848 633.215 401.682C633.215 401.682 627.808 388.941 623.529 386.611C619.211 384.28 614.271 383.464 610.615 381.755C602.563 376.744 599.568 369.286 600.385 359.575C600.968 352.622 598.517 345.126 605.986 339.726C606.103 344.931 604.897 349.903 604.547 354.875C603.924 364.081 610.965 370.063 616.644 376.123C617.15 376.667 617.655 377.133 618.2 377.638C618.2 377.638 626.602 388.63 633.759 393.369C640.1 397.564 645.584 400.944 650.485 403.08C657.643 406.188 664.644 409.567 674.836 412.053C665.539 411.548 656.359 413.995 647.101 412.403L647.14 412.364ZM721.591 416.87C732.522 414.578 741.896 418.035 746.292 424.561C746.525 424.91 746.681 425.338 746.992 425.648C749.754 428.406 754.421 429.61 754.188 434.816C754.032 438.234 752.632 441.341 746.681 449.032C752.01 428.445 736.412 423.784 721.591 416.831V416.87ZM729.527 428.834C737.812 439.283 733.961 448.488 718.557 455.908C721.514 446.469 732.483 440.448 729.527 428.834ZM715.056 461.54C719.88 459.675 724.392 457.034 728.282 453.577C739.757 443.322 740.418 437.923 731.199 424.949C736.528 426.503 739.912 429.144 742.402 432.757C745.358 437.107 747.186 442.312 743.18 446.469C731.86 458.355 719.608 468.843 699.964 466.434C705.76 464.57 710.466 463.288 715.018 461.501L715.056 461.54ZM695.841 473.776C707.627 472.61 719.491 471.6 730.421 466.357C731.86 465.657 733.805 463.948 735.05 465.735C736.606 467.988 734.583 470.163 732.911 471.095C725.948 475.057 718.441 477.699 710.428 478.32C698.33 479.214 686.311 478.01 672.385 475.368C681.254 473.426 688.606 474.475 695.841 473.776ZM656.165 477.077C647.335 484.807 635.704 487.876 626.291 494.674C635.16 487.06 642.589 477.039 656.165 477.077ZM523.483 588.442C518.854 582.654 515.509 573.681 518.504 564.825C520.643 558.494 519.904 552.317 516.209 546.841C513.564 542.917 513.992 539.81 517.843 537.557C521.849 535.226 523.249 530.565 527.917 526.836C526.283 532.08 523.327 535.304 524.144 540.043C528.773 529.905 534.802 520.776 544.877 515.999C554.679 511.337 563.665 504.384 576.268 503.685C569.227 508.696 561.875 511.027 555.846 515.649C547.911 521.709 540.481 528.312 533.791 535.654C529.668 540.159 526.478 545.364 526.945 551.968C527.023 553.017 526.828 554.143 526.517 555.153C520.838 574.614 524.533 585.645 541.026 597.959C544.138 600.289 547.483 602.27 551.217 604.795C538.497 604.795 529.979 596.677 523.405 588.52L523.483 588.442ZM540.948 594.074C533.363 588.131 528.929 580.363 526.945 570.924C526.011 566.457 525.933 562.417 528.384 558.494C529.045 557.406 529.901 556.124 529.823 554.959C529.201 540.626 539.509 533.012 548.494 524.777C559.814 514.406 573.467 507.842 587.743 502.714C598.206 498.946 608.32 493.702 621.428 494.363C617.5 496.577 615.049 498.869 612.248 499.412C598.479 502.054 586.576 509.123 574.517 515.533C561.914 522.253 549.506 530.565 542.815 543.228C538.147 552.046 534.997 562.766 537.019 573.681C539.042 584.83 545.46 592.754 554.562 599.008C556.468 600.289 558.686 601.377 560.047 604.329C552.267 602.814 546.549 598.503 540.909 594.074H540.948ZM541.376 579.158C538.809 572.167 538.459 565.33 541.493 558.416C541.998 557.251 542.854 556.008 542.854 554.803C542.815 541.985 552.695 536.314 560.436 528.506C569.733 519.145 583.036 517.009 592.566 508.385C594.278 506.832 597.35 506.793 599.801 506.094C586.07 517.63 568.76 524.505 557.48 538.645C547.833 550.803 539.937 564.359 546.005 581.256C547.444 585.296 549.583 588.559 553.24 590.773C556.624 592.793 558.841 595.745 561.175 600.017C552.112 594.346 544.799 588.597 541.337 579.12L541.376 579.158ZM565.726 599.668C560.631 595.317 556.352 590.073 552.073 585.024C546.938 578.964 545.81 570.846 548.144 562.922C549.428 558.61 551.684 554.609 553.512 550.453C554.057 549.249 554.718 547.967 556.352 548.472C557.597 548.86 557.947 549.987 557.324 551.074C543.865 573.681 558.997 587.859 573.039 601.61C583.269 611.632 596.3 618.041 609.292 624.023C614.777 626.548 620.223 629.267 625.046 632.957C631.27 637.696 638.466 638.589 645.973 638.278C651.186 638.045 656.281 638.473 661.766 641.541C644.067 645.348 627.574 643.95 613.065 634.666C596.534 624.1 580.663 612.447 565.687 599.629L565.726 599.668ZM622.945 646.902C617.889 645.542 613.143 643.639 608.592 641.153C605.558 639.521 603.496 637.23 603.613 632.84C607.814 633.19 609.915 636.336 612.91 637.89C628.275 645.969 644.339 647.795 661.299 644.455C675.536 641.619 689.111 643.483 702.726 652.107C691.406 650.592 681.254 650.165 671.101 650.514C654.92 651.097 638.816 651.097 622.945 646.902Z" fill="#D0DFE6"/>
</svg>
