<svg width="716" height="549" viewBox="0 0 716 549" fill="none" xmlns="http://www.w3.org/2000/svg">
<path opacity="0.3" d="M660.284 33.7035C672.249 33.8567 684.317 33.7035 695.462 28.8012C702.573 25.6759 709.992 23.9601 717.923 23.715C725.17 23.5005 732.213 23.9601 739.358 25.4308C749.238 27.4837 758.879 23.8682 768.69 23.1328C780.553 22.2443 789.373 16.4534 795.698 8.54842C797.988 5.6683 799.869 2.81884 801.339 -2.10648e-06H804.245C800.45 9.06931 791.869 16.6066 780.758 23.5312C785.066 23.5925 787.698 23.0716 789.852 21.8154C797.065 17.4645 804.997 14.0942 811.458 8.67096C815.116 5.57636 817.304 2.88012 818.227 -2.10648e-06H820.928C820.415 2.75756 819.116 5.39254 816.996 7.44539C812.073 12.2252 806.398 16.2083 799.971 19.3029C797.852 20.314 795.766 21.5396 794.535 23.0716C812.107 25.676 827.662 21.7234 840.824 10.6013C842.944 8.82417 844.756 6.95517 846.465 4.87168C848.004 2.97203 849.2 1.37878 850.021 -2.10648e-06H852.448C849.269 7.65989 842.602 13.0218 834.808 17.6178C833.85 18.1693 832.893 18.7208 832.004 19.3642C831.765 19.5174 831.765 19.9157 831.457 20.651C840.722 18.1999 850.294 17.5565 858.396 12.7154C863.114 9.89656 864.687 4.56528 863.285 0.0306206H866.02C866.191 0.490214 866.328 0.949786 866.328 1.3481C866.396 4.38142 867.217 7.44541 864.789 10.1417C864.037 10.969 863.695 11.98 864.618 12.8992C865.507 13.7878 866.704 13.6959 867.764 13.2976C871.729 11.8269 874.293 9.34507 874.601 5.79088C874.362 3.46227 873.849 1.65452 872.755 0.0306206H876.686C879.114 4.16696 878.259 9.34506 873.439 12.4397C865.473 17.5565 857.405 22.6733 846.944 23.5006C835.765 24.4197 824.757 26.3807 814.227 30.088C810.09 31.5281 805.646 31.9571 801.304 31.7119C792.929 31.283 784.621 31.5281 776.28 32.4166C770.058 33.0601 763.665 33.8567 757.545 33.1826C744.281 31.7426 731.051 31.7426 717.752 32.386C707.667 32.8762 697.821 34.4695 688.112 37.0739C679.77 39.2799 672.283 43.9984 663.121 43.7226C658.506 43.5694 654.028 44.2742 649.686 45.7449C645.002 47.3381 640.216 48.0122 635.191 47.9203C630.644 47.859 625.55 47.7364 621.96 50.2795C613.14 56.4994 602.44 59.3795 592.902 64.2512C581.244 70.1952 570.749 77.2424 562.681 87.0777C555.399 95.9632 555.262 106.105 562.954 114.623C564.185 115.971 565.039 117.472 565.313 119.219C565.792 122.191 567.501 124.611 569.518 126.94C576.766 135.396 586.201 142.198 596.833 145.722C612.593 150.961 625.277 161.256 641.344 165.607C642.336 165.883 643.259 166.741 643.943 167.507C647.566 171.551 652.284 172.194 657.754 171.735C673.548 170.448 689.206 167.078 705.205 171.674C710.744 173.267 715.598 175.136 717.41 179.762C719.837 185.952 723.803 190.762 728.828 195.266C731.085 197.288 732.623 199.954 733.58 202.773C734.469 205.285 735.256 208.318 733.204 210.126C729.17 213.68 725.991 218.123 720.692 220.452C715.12 222.903 709.171 223.363 703.052 224.006C691.155 225.262 679.258 226.212 667.258 226.304C659.258 226.365 652.25 229.46 645.071 232.064C645.071 232.064 642.814 233.198 640.387 235.036C637.96 236.875 637.481 245.76 634.746 248.395C631.977 251.03 624.354 254.094 620.627 255.412C616.593 257.189 612.764 259.548 609.175 262.612C605.893 265.431 603.807 267.422 607.499 270.885C609.927 273.182 609.995 275.358 607.226 277.441C603.671 280.138 605.209 282.589 607.876 284.734C609.893 286.358 612.525 286.97 615.157 287.461C622.884 288.839 630.61 288.502 638.439 288.227C645.584 287.981 653.412 287.338 659.327 291.352C663.463 294.14 667.702 296.377 672.181 298.552C681.309 302.964 684.591 313.565 679.394 320.95C675.839 326.005 676.078 327.231 681.89 330.05C688.283 333.144 694.607 337.189 696.351 343.225C698.983 352.325 707.633 357.411 711.872 365.346C715.154 371.474 715.564 377.051 708.863 380.268C698.129 385.446 688.044 392.248 675.189 393.167C670.848 393.473 666.574 394.546 662.301 395.251C643.156 398.468 624.114 399.019 605.448 392.953C590.372 388.081 574.988 384.649 558.954 383.301C545.861 382.198 533.964 377.755 522.956 371.321C510.409 363.968 497.691 356.829 483.333 352.539C463.778 346.687 444.257 340.896 423.404 347.882C420.771 348.77 417.797 349.077 414.994 349.077C408.566 349.077 401.832 349.475 396.464 345.645C392.43 342.734 388.054 340.559 383.097 340.467C364.055 340.069 348.124 331.214 331.646 324.718C310.826 316.507 290.725 317.395 270.144 323.186C266.931 324.075 261.358 325.423 264.127 330.999C264.674 332.072 263.512 332.807 262.76 333.573C259.409 337.066 260.127 339.088 265.461 339.609C270.93 340.13 274.93 343.01 279.204 345.431C281.392 346.656 283.545 348.495 283.169 351.252C281.904 360.291 286.691 365.775 295.442 369.605C301.288 372.179 306.211 376.162 309.254 381.463C310.895 384.312 312.912 387.805 307.476 389.981C293.665 395.496 279.58 398.897 264.161 398.927C247.752 398.927 233.12 394.668 219.172 387.713C208.403 382.351 197.326 378.338 184.814 377.878C179.344 377.663 173.464 377.939 168.609 375.519C159.413 370.953 149.123 371.719 139.345 370.279C135.346 369.697 130.628 368.992 126.56 371.107C123.312 372.822 119.961 373.19 116.201 373.251C103.86 373.374 93.2958 381.892 93.5009 391.298C93.6718 398.805 100.031 402.604 105.706 406.434C116.645 413.818 129.363 417.771 142.593 420.559C147.003 421.478 151.277 423.041 155.994 422.55C174.66 420.62 193.326 418.567 212.061 417.005C227 415.748 241.393 416.085 254.213 425.4C260.948 430.302 270.178 432.508 273.836 440.658C274.076 441.21 274.93 441.578 275.511 442.037C281.904 447.031 280.947 452.547 273.392 455.978C269.358 457.817 264.537 457.939 261.016 460.972C256.606 464.772 256.845 467.468 262.179 470.011C268.708 473.136 275.375 476.017 281.699 479.418C288.844 483.247 289.699 491.765 282.964 496.085C274.999 501.202 266.931 506.319 256.469 507.146C245.29 508.066 234.282 510.026 223.753 513.734C219.616 515.174 215.172 515.603 210.83 515.358C202.454 514.929 194.147 515.174 185.805 516.062C179.583 516.706 173.19 517.503 167.071 516.828C153.806 515.388 140.576 515.388 127.277 516.032C117.192 516.522 107.347 518.115 97.6375 520.72C89.2959 522.926 81.809 527.644 72.647 527.368C68.0317 527.215 63.5533 527.92 59.2115 529.391C54.5279 530.984 49.7418 531.658 44.7163 531.566C40.1695 531.505 35.0757 531.382 31.486 533.925C22.5975 540.023 11.897 542.903 2.35889 547.744C1.57259 548.142 0.786296 548.571 0 549V546.334C4.4101 544.19 8.99113 542.229 13.538 540.329C18.3583 538.337 23.1445 536.193 27.3836 533.282C32.8535 529.544 39.1781 528.839 45.7761 529.084C50.3572 529.268 54.8356 528.931 59.656 526.511C44.101 523.508 29.6058 524.611 16.8541 531.934C11.1791 535.243 5.53826 538.705 0 542.29V539.471C0.170934 539.287 0.376055 539.103 0.546989 538.92C1.43585 538 2.63238 537.204 1.09398 535.488C0.649549 534.998 0.307681 534.569 0 534.109V528.349C0.683736 527.614 1.60678 526.848 2.87169 526.051C10.6321 521.118 19.2814 518.146 28.8195 517.656C42.46 516.951 56.1005 517.074 69.7753 517.257C81.7406 517.411 93.8086 517.257 104.953 512.355C112.064 509.23 119.483 507.514 127.414 507.269C134.662 507.054 141.704 507.514 148.849 508.985C158.729 511.038 168.37 507.422 178.182 506.687C190.044 505.798 198.865 500.007 205.189 492.102C215.479 479.234 217.872 466.825 206.557 457.449C195.275 448.104 182.045 442.037 166.045 442.16C149.123 442.313 132.2 442.405 115.278 442.221C106.355 442.129 97.4666 441.302 89.1592 437.84C84.6807 435.971 81.0569 432.784 76.134 431.65C64.3054 428.923 54.5621 423.439 47.7248 414.125C46.9043 413.022 45.6736 412.102 44.4428 411.306C39.0413 407.752 36.2038 402.451 33.0245 397.487C30.8707 394.148 31.4177 390.593 33.6056 387.254C36.5115 382.872 43.2805 380.145 40.99 373.527C40.9558 373.405 41.1267 373.159 41.2635 373.098C47.4513 370.157 50.2204 363.293 57.4338 361.516C66.254 359.341 74.5956 356.185 82.8004 352.57C89.1934 349.751 96.27 348.311 103.313 350.241C109.022 351.834 114.594 351.681 120.167 350.517C125.978 349.322 131.653 349.567 136.918 351.681C146.217 355.388 155.789 355.174 165.43 354.071C175.891 352.876 186.421 352.57 196.574 354.929C210.83 358.238 225.291 354.408 239.513 356.89C240.88 357.135 242.487 356.43 243.957 356.063C245.359 355.726 247.376 355.848 247.444 354.04C247.512 352.202 245.359 352.447 244.094 351.865C237.12 348.77 230.009 345.89 223.171 342.52C216.847 339.425 212.915 333.91 213.531 327.874C214.146 321.838 220.163 318.774 226.727 317.365C229.872 316.691 233.222 316.2 235.957 314.822C253.119 306.212 271.204 304.833 290.041 308.694C291.784 309.061 293.459 309.031 295.066 308.418C301.528 305.906 308.297 305.569 315.202 305.783C323.817 306.059 332.227 304.864 340.637 303.271C351.269 301.248 362.004 300.145 372.875 301.647C379.234 302.535 385.627 303.454 392.054 303.945C407.472 305.109 422.344 307.958 436.736 313.351C448.121 317.641 457.83 324.167 468.017 330.019C477.966 335.749 488.085 337.648 499.469 335.84C508.734 334.37 517.554 336.208 525.041 340.896C535.707 347.575 547.673 350.272 560.082 351.926C577.689 354.285 595.432 353.458 612.901 351.252C629.037 349.199 644.011 343.654 657.173 334.676C660.592 332.348 660.933 330.417 657.378 327.874C651.361 323.554 645.173 319.693 637.242 318.958C633.926 318.652 630.986 317.457 628.148 316.078C622.815 313.474 617.003 312.585 611.157 312.033C602.098 311.206 592.97 311.084 583.911 310.318C569.962 309.153 556.185 307.438 546.647 296.622C544.391 294.079 542.271 291.566 538.955 289.942C536.083 288.533 535.434 285.867 536.254 283.232C539.023 274.224 543.502 266.503 554.339 263.102C562.441 260.559 569.86 256.698 576.902 252.286C582.714 248.671 588.765 245.607 595.363 243.462C595.363 243.462 600.73 240.03 601.722 237.549C602.713 235.067 603.568 233.29 604.115 231.972C605.653 227.56 609.653 224.037 615.738 222.168C625.584 219.134 635.738 218.001 646.062 218.399C659.976 218.95 673.822 217.694 687.667 217.143C700.146 216.652 707.667 207.154 703.12 198.575C700.077 192.845 695.257 188.832 688.659 186.197C673.412 180.099 657.583 177.464 640.968 178.506C636.387 178.782 631.875 177.985 627.499 176.729C625.106 176.055 622.2 174.829 622.849 172.317C623.909 168.15 620.627 167.261 617.961 166.894C603.294 164.963 590.167 159.05 576.355 154.883C570.988 153.259 565.245 152.708 560.048 150.379C545.485 143.822 531.297 136.836 520.323 125.653C517.793 123.049 516.597 120.322 519.195 117.411C522.921 113.213 523.058 108.709 521.349 103.899C520.221 100.712 520.733 97.7402 521.417 94.4312C523.024 86.373 527.605 80.9804 535.058 76.2006C541.245 72.2481 547.604 69.031 554.749 69.2148C565.313 69.4906 573.62 64.8027 582.611 61.3711C585.962 60.0842 588.628 57.8169 591.021 55.3657C591.91 54.4465 593.107 53.6499 591.568 51.9341C588.013 48.0122 588.526 45.561 593.346 42.4971C601.107 37.5641 609.756 34.5921 619.294 34.1018C632.934 33.3971 646.575 33.5197 660.25 33.7035H660.284ZM703.735 31.5587C720.316 29.1995 736.965 28.7399 753.648 30.6702C760.075 31.4056 766.605 31.3442 772.964 30.2106C784.45 28.1577 796.074 29.8736 807.595 29.0463C811.526 28.7706 815.321 27.9739 818.74 25.7985C811.766 26.9015 804.826 24.6036 797.954 26.0436C786.023 28.5867 773.75 27.9433 761.716 29.3527C750.64 30.6702 739.905 27.453 729.034 25.9824C717.82 24.481 706.881 25.9824 695.394 31.2524C699.291 32.4167 701.547 31.8345 703.77 31.4975L703.735 31.5587ZM67.8608 519.463C53.6391 519.004 39.4858 519.004 25.5375 522.313C21.0933 523.385 16.9225 524.887 12.9226 526.848C10.256 528.134 8.44414 529.942 8.5467 533.404C12.2389 533.129 14.085 530.647 16.7173 529.421C30.2211 523.048 44.3403 521.608 59.2457 524.243C71.7581 526.48 83.6893 525.009 95.6547 518.207C85.7063 519.402 76.7836 519.739 67.8608 519.463ZM173.19 426.809C203.48 426.595 229.975 437.257 256.914 449.299C254.179 443.232 249.085 439.77 243.547 436.645C229.769 428.832 214.18 427.667 198.523 425.921C189.976 424.971 181.703 424.297 173.156 426.84L173.19 426.809ZM225.599 438.851C234.932 445.683 245.803 448.257 252.47 456.223C253.393 457.326 254.726 458.429 256.196 456.775C257.768 455.028 256.743 453.343 255.102 452.393C249.564 449.146 243.957 445.898 238.145 443.079C234.692 441.394 230.761 440.536 225.599 438.851ZM270.144 454.508C278.075 451.474 278.759 448.38 272.571 442.895C270.657 441.179 268.982 439.341 268.025 437.104C267.17 435.082 265.734 433.427 263.512 432.723C256.777 430.517 251.307 426.564 245.598 422.918C240.402 419.578 234.145 419.333 228.129 418.904C222.864 418.506 217.496 418.812 212.197 418.812C218.761 419.946 224.744 423.194 231.65 422.367C235.239 421.938 238.932 423.041 241.872 425.002C246.384 427.974 250.487 430.701 256.298 432.324C266.418 435.143 269.392 446.664 263.58 455.702C266.042 455.825 268.127 455.274 270.144 454.508ZM260.127 448.962C260.332 449.942 260.811 451.137 262.144 451.107C263.888 451.045 263.922 449.575 264.059 448.41C264.64 444.059 259.683 436.798 254.418 434.99C249.735 433.366 245.393 431.528 242.111 427.974C239.376 425.002 235.103 424.848 231.616 425.002C221.736 425.492 212.744 421.233 203.001 421.386C200.198 421.417 197.395 420.651 194.523 422.244C202.112 424.236 210.078 424.542 217.804 425.951C229.667 428.127 241.051 431.038 250.555 438.054C254.589 441.026 258.965 443.876 260.093 448.962H260.127ZM274.076 496.453C274.964 497.342 276.161 497.25 277.221 496.851C281.186 495.381 283.75 492.899 284.058 489.345C283.819 486.832 283.272 484.871 281.904 483.125C280.537 481.378 278.52 479.54 276.4 480.061C273.529 480.796 275.717 483.217 275.751 484.871C275.819 487.905 276.64 490.969 274.212 493.665C273.46 494.492 273.118 495.503 274.041 496.422L274.076 496.453ZM267.854 496.269C275.34 491.796 274.964 480.98 267.136 477.028C265.631 476.262 264.025 475.189 263.546 477.977C261.768 488.793 253.803 495.534 244.265 501.172C243.307 501.723 242.35 502.275 241.461 502.918C241.222 503.071 241.222 503.47 240.914 504.205C250.179 501.754 259.751 501.11 267.854 496.269ZM171.139 512.968C160.063 514.285 149.328 511.068 138.457 509.597C127.243 508.096 116.303 509.597 104.817 514.868C108.714 516.032 110.97 515.45 113.193 515.113C129.773 512.753 146.422 512.294 163.105 514.224C169.532 514.959 176.062 514.898 182.421 513.764C193.908 511.712 205.531 513.427 217.052 512.6C220.983 512.324 224.778 511.528 228.197 509.352C221.223 510.455 214.283 508.157 207.411 509.597C195.48 512.141 183.207 511.497 171.173 512.907L171.139 512.968ZM211.719 456.989C222.624 479.693 210.591 494.37 190.181 507.085C194.489 507.146 197.121 506.625 199.275 505.369C206.488 501.018 214.42 497.648 220.881 492.225C229.154 485.239 230.316 480.153 224.847 471.053C224.231 470.042 223.855 468.908 223.342 467.805C231.445 472.309 233.12 484.473 226.385 491.03C221.462 495.81 215.787 499.793 209.36 502.887C207.24 503.899 205.155 505.124 203.924 506.656C221.496 509.26 237.051 505.308 250.213 494.186C252.333 492.409 254.145 490.54 255.854 488.456C263.204 479.418 262.862 477.058 252.709 470.992C248.982 468.755 247.273 466.12 249.529 462.413C251.478 459.195 250.418 456.806 247.547 454.875C233.325 445.254 218.488 436.951 200.13 435.113C193.019 434.408 186.113 432.018 177.874 434.071C181.908 436.308 185.19 438.36 188.677 440.015C202.728 446.694 215.274 454.845 223.171 467.683C216.881 466.641 216.642 460.237 211.65 457.02L211.719 456.989ZM157.328 439.739C172.37 437.533 185.258 442.16 197.668 448.87C198.318 449.207 199.001 449.452 199.856 449.82C195.549 443.11 172.678 434.193 148.849 429.291C129.944 425.4 111.005 425.645 91.4155 427.667C95.6205 429.996 99.8255 430.027 103.962 429.843C116.372 429.261 127.995 431.313 139.072 436.706C144.542 439.402 151.071 440.658 157.328 439.739ZM85.6379 433.581C92.0992 437.043 99.2101 438.943 106.663 439.463C115.722 440.107 124.85 440.352 133.944 440.658C135.346 440.689 136.781 440.107 139.687 439.525C130.559 435.082 122.184 432.723 113.227 432.355C104.406 431.987 95.4154 433.673 87.0396 429.72C85.7405 429.107 84.2705 429.598 83.7235 430.884C83.1081 432.355 84.5098 432.999 85.6379 433.611V433.581ZM51.4169 367.736C49.776 369.605 48.0666 371.413 45.571 372.455C44.3061 372.976 42.9386 373.925 43.3831 375.12C45.1266 380.237 41.7421 382.933 37.879 385.66C36.6141 386.549 35.6226 387.866 35.5201 390.195C39.0071 387.989 41.7763 385.752 45.2633 384.527C47.2803 383.822 47.041 382.229 46.4599 380.605C44.9898 376.56 47.0069 373.925 50.699 371.658C55.3142 368.809 59.656 365.591 64.1003 362.528C58.8013 362.681 54.5621 364.274 51.4511 367.767L51.4169 367.736ZM65.5703 364.734C60.4423 367.614 55.6561 371.015 50.699 374.109C48.1692 375.672 48.0325 377.663 49.0239 379.961C50.323 382.903 49.0922 384.711 46.1864 386.243C34.9389 392.187 33.4347 397.702 42.3574 406.434C48.1008 412.072 53.2972 418.506 61.9123 421.662C67.6557 423.776 73.3307 425.124 80.339 425.768C70.1855 420.59 61.3311 415.442 56.545 406.403C50.699 395.373 55.1091 381.8 67.6899 372.822C75.4503 367.277 84.6465 363.845 93.6035 360.076C95.4154 359.31 97.7743 359.525 99.5178 356.829C87.2789 357.932 75.7921 359.035 65.6387 364.734H65.5703ZM105.261 359.801C89.8771 363.753 74.6298 368.288 63.8609 379.747C52.1007 392.279 54.1519 404.351 67.7582 415.565C80.4415 426.013 96.0307 425.89 111.791 424.021C115.893 423.531 119.893 422.459 124.132 423.194C112.201 417.28 99.9622 412.256 88.7489 405.515C86.0482 403.891 83.5184 402.053 81.7065 399.601C80.7834 398.345 79.3818 396.691 79.6894 395.496C81.0227 389.827 79.8262 383.209 84.4756 378.675C91.0395 372.302 97.3298 365.254 107.723 363.355C108.817 363.171 109.808 362.589 110.834 362.129C111.107 362.007 111.175 361.578 111.381 361.21C109.774 359.249 107.312 359.249 105.261 359.77V359.801ZM121.808 364.305C121.226 362.313 119.244 362.834 117.534 363.14C104.406 365.591 94.0479 372.087 85.7405 381.218C82.4244 384.864 85.3644 390.379 82.1509 393.443C81.98 396.354 83.2449 397.855 84.6123 399.264C89.4327 404.259 96.0991 406.986 102.15 410.448C102.971 410.907 103.996 411.306 104.714 410.448C105.637 409.345 104.577 408.609 103.757 407.935C101.945 406.465 100.202 404.871 98.2529 403.523C85.0226 394.362 90.3899 380.482 102.219 374.079C107.381 371.26 112.714 368.655 118.594 367.032C120.098 366.603 122.457 366.419 121.876 364.305H121.808ZM260.538 328.364C261.085 322.267 268.401 321.991 273.426 319.081C263.922 318.835 256.333 322.849 254.623 328.609C252.846 334.492 254.794 338.782 261.324 341.785C252.88 337.403 260.127 332.776 260.538 328.364ZM296.912 391.574C300.228 390.072 303.613 388.602 306.895 387.039C308.775 386.12 308.809 384.557 307.989 383.056C305.391 378.307 300.844 375.212 296.058 372.393C295.237 371.903 294.212 371.75 293.425 372.455C292.571 373.221 293.186 374.017 293.699 374.722C294.69 376.162 295.716 377.602 296.673 379.073C299.305 383.117 298.758 387.1 296.912 391.604V391.574ZM295.716 386.12C297.049 382.903 292.605 374.845 288.844 373.68C286.178 372.853 286.144 374.63 286.827 375.856C289.87 381.493 286.349 385.538 282.793 390.103C288.947 391.942 294.041 390.318 295.75 386.12H295.716ZM288.4 393.964C278.281 391.329 269.016 392.309 259.956 391.635C250.692 390.93 241.393 390.838 232.402 388.112C223.65 385.477 215.958 380.482 205.839 378.215C231.342 393.719 257.598 400.98 288.4 393.964ZM164.78 369.054C177.053 370.31 188.745 374.477 201.155 375.028C210.044 375.427 217.257 379.931 224.983 383.117C240.162 389.368 256.23 390.042 272.4 389.552C277.46 389.398 283.306 388.387 284.844 382.413C286.144 377.388 283.648 373.374 277.255 369.483C275.409 368.38 274.007 366.664 272.435 365.224C270.623 363.569 269.289 361.333 265.7 360.904C267.99 366.909 266.862 368.594 260.093 368.564C254.452 368.533 249.427 369.728 244.128 371.382C234.898 374.232 225.291 372.639 215.924 371.199C209.975 370.279 204.027 369.054 198.318 367.123C186.01 362.987 173.669 364.488 161.088 367.123C161.738 368.931 163.447 368.901 164.712 369.054H164.78ZM262.281 358.973C249.119 368.778 233.086 368.104 217.223 368.288C228.026 370.586 238.658 371.903 248.982 367.246C251.991 365.898 255.307 366.327 258.521 366.357C262.213 366.357 265.871 366.48 263.067 361.516C262.691 360.873 263.546 359.862 262.281 358.973ZM225.633 357.84C224.539 357.595 223.342 357.472 222.248 357.656C208.095 359.801 193.873 358.177 179.686 358.422C173.942 358.514 169.088 360.138 164.233 363.263C167.276 363.814 169.84 363.171 172.37 362.803C185.258 360.812 197.907 361.547 210.727 363.906C225.565 366.664 240.573 366.786 254.794 360.781C256.435 360.076 259.751 359.586 258.179 357.166C256.914 355.235 253.769 353.703 251.239 355.297C243.102 360.413 234.521 359.892 225.633 357.87V357.84ZM221.325 321.746C213.77 326.679 214.078 334.584 222.795 337.648C231.752 340.804 240.436 344.542 249.735 347.146C261.221 350.394 271.717 355.971 282.622 362.619C281.221 355.817 276.127 352.815 270.862 350.486C266.315 348.464 261.085 347.79 256.367 346.043C248.059 342.949 239.513 339.946 233.462 333.634C227.445 327.353 227.65 325.913 233.154 318.958C228.778 318.835 224.847 319.448 221.325 321.746ZM235.342 332.072C238.932 336.545 244.709 337.587 249.974 340.927C248.435 335.32 247.41 330.325 251.923 325.913C255.82 322.083 260.298 319.111 265.734 317.12C256.572 316.139 247.82 317.303 239.342 319.847C231.376 322.236 230.522 326.005 235.342 332.041V332.072ZM241.461 316.721C259.068 313.106 275.956 314.393 292.639 312.83C281.46 306.273 252.88 308.05 241.461 316.721ZM429.215 341.294L392.635 334.952C403.336 343.654 415.712 344.879 429.215 341.294ZM392.635 339.824C381.456 332.899 368.431 331.673 355.303 330.448C366.483 337.709 380.533 335.687 392.635 339.824ZM374.619 328.977C358.688 322.114 343.441 317.702 327.373 315.833C342.894 319.448 355.406 331.428 374.619 328.977ZM337.013 306.61C352.5 307.284 366.995 306.518 381.285 305.63C369.559 302.351 352.808 302.627 337.013 306.61ZM455.744 333.788C442.924 329.437 435.027 317.702 420.771 315.434C402.55 312.524 384.909 307.07 365.765 308.939C350.415 310.44 334.757 308.387 318.689 312.033C326.484 313.167 333.595 313.964 340.603 315.404C354.209 318.192 366.995 322.88 379.781 327.66C397.9 334.4 417.113 336.882 436.258 339.517C442.138 340.314 447.984 338.843 453.864 338.475C455.471 338.384 456.975 337.955 457.317 336.331C457.556 335.228 456.838 334.186 455.744 333.818V333.788ZM617.208 253.665C618.337 254.186 619.431 254.707 620.559 255.228L617.243 253.634C617.448 253.543 623.978 250.295 627.396 248.885C633.618 246.281 635.191 239.908 635.977 237.916C636.763 235.925 637.994 234.24 637.994 234.24C637.994 234.24 625.037 241.532 623.499 243.248C621.961 244.963 616.73 251.765 615.328 252.715L611.978 251.122C613.072 251.673 614.2 252.194 615.294 252.715C611.602 255.075 608.799 257.74 607.773 260.406C610.713 257.495 613.858 255.32 617.208 253.634V253.665ZM657.788 292.7C653.891 290.555 649.412 290.586 645.105 290.187C641.003 289.789 636.832 290.096 632.695 290.096C640.25 294.324 648.866 294.079 656.831 296.101C657.993 296.407 659.292 296.315 659.566 295.059C659.839 293.925 658.745 293.251 657.754 292.7H657.788ZM652.9 297.265C649.754 296.744 646.575 296.56 642.062 296.07C647.566 298.521 651.908 300.482 656.25 302.382C660.557 304.251 664.25 306.825 667.702 309.766C671.702 313.167 672.967 317.028 671.566 321.777C671.155 323.156 669.856 324.626 671.292 326.066C671.6 326.373 672.489 326.587 672.83 326.403C674.95 325.178 673.446 323.339 673.719 321.777C673.822 321.103 673.548 320.367 673.719 319.755C677.48 307.621 665.788 299.441 652.9 297.296V297.265ZM677.309 339.67C676.078 338.108 675.292 337.495 673.583 339.425C669.583 343.868 664.728 347.3 658.13 348.341C655.84 348.709 653.857 350.027 652.489 351.65C644.558 361.149 633.413 363.202 621.106 363.018C615.397 362.926 609.722 363.6 604.628 366.327C602.577 367.43 600.32 367.46 597.996 367.062C577.278 363.6 556.39 360.75 536.493 354.071C530.477 352.049 524.118 351.497 517.725 350.701C531.468 355.817 542.886 365.04 557.074 368.931C579.877 375.243 602.679 382.29 627.123 381.432C641.72 380.911 656.25 380.727 669.549 373.588C679.77 368.104 683.531 362.19 681.514 351.712C680.693 347.514 680.146 343.316 677.343 339.67H677.309ZM709.171 366.235C706.504 363.324 706.675 358.943 702.744 356.829C701.513 356.185 700.419 354.469 698.847 355.572C697.274 356.675 697.855 358.33 698.641 359.77C698.881 360.23 699.188 360.689 699.565 361.057C705.376 366.082 707.154 371.873 702.641 379.379C711.53 376.897 713.855 371.352 709.171 366.235ZM664.386 392.187C673.822 390.41 683.531 389.521 692.351 385.446C702.744 380.635 705.274 371.168 697.958 363.202C695.701 360.72 695.257 358.146 695.77 355.113C697.548 344.91 691.599 336.239 679.565 332.225C684.83 338.384 689.24 344.266 690.676 351.405C692.454 360.199 691.907 368.012 683.77 375.059C666.54 389.95 645.994 394.086 623.157 392.309C617.721 391.88 612.32 390.961 606.918 390.256C625.995 396.262 645.139 395.802 664.352 392.156L664.386 392.187ZM572.834 380.268C590.064 385.109 607.705 388.449 625.653 390.256C643.703 392.064 661.036 388.816 675.36 379.165C690.779 368.778 693.787 358.912 684.591 342.428C684.01 341.417 683.599 340.161 680.488 340.007C684.557 344.665 683.599 349.598 684.454 354.163C685.89 361.792 682.916 368.226 675.634 372.761C660.865 381.922 644.353 384.067 626.815 383.301C596.149 381.922 577.381 378.521 547.126 368.349C555.501 372.669 563.569 377.633 572.834 380.268ZM555.194 380.237C542.442 374.232 529.724 367.889 515.776 362.528C520.699 369.605 538.887 377.786 555.194 380.237ZM545.006 371.811C524.596 359.218 503.059 349.077 477.726 347.545C500.255 355.358 523.502 361.67 545.006 371.811ZM546.749 352.355C539.092 349.506 530.955 347.759 524.084 343.071C518.033 338.904 510.819 337.311 503.093 337.985C496.597 338.567 490.17 340.007 483.538 339.303C488.324 341.846 493.316 342.244 498.717 342.428C509.11 342.765 519.434 343.071 528.972 348.893C535.297 352.753 543.775 353.918 551.399 355.94C566.544 359.984 582.167 362.007 597.585 364.917C601.756 365.714 604.286 362.987 607.67 362.221C614.337 360.689 621.106 360.321 627.977 360.23C638.131 360.107 642.575 357.993 649.618 350.364C641.173 353.673 633.892 355.695 625.926 355.756C621.277 355.787 616.491 357.043 612.08 358.483C605.209 360.75 598.303 361.394 591.398 359.678C576.731 356.032 561.04 357.686 546.749 352.355ZM602.645 354.469C598.166 354.714 593.722 355.297 589.278 355.756C595.876 358.606 602.406 358.82 608.867 356.951C616.149 354.868 623.465 353.519 631.123 352.968C644.661 351.987 655.258 345.461 664.352 336.821C665.446 335.779 667.258 334.308 665.822 332.868C664.25 331.306 662.745 333.052 661.549 334.002C644.626 347.116 624.73 353.274 602.645 354.5V354.469ZM664.797 330.08C652.25 311.543 633.857 305.691 610.44 308.602C629.755 314.668 649.96 316.66 664.797 330.08ZM552.39 266.166C547.809 268.219 545.143 270.486 543.262 273.55C542.339 275.021 541.758 276.675 540.938 278.207C537.246 285.224 537.587 284.917 543.639 290.555C549.006 295.611 553.724 301.218 561.45 303.577C562.612 303.945 563.672 304.986 565.142 304.282C547.399 290.279 544.391 281.945 552.39 266.197V266.166ZM584.731 269.843C582.372 267.545 587.193 263.163 582.577 262.091C579.74 261.448 576.321 263.041 573.142 263.47C561.655 265.063 553.518 273.55 554.442 283.232C555.023 289.483 558.749 294.109 564.39 297.388C576.013 304.128 588.868 307.192 602.713 306.947C611.568 306.672 620.285 303.975 629.276 305.844C641.686 308.449 654.096 311.022 661.378 321.899C662.403 323.431 663.566 325.515 666.13 324.718C668.249 324.044 668.899 322.053 669.241 320.153C669.856 316.936 668.967 314.24 666.403 311.758C659.122 304.741 649.549 301.31 639.874 298.399C632.729 296.254 625.106 295.366 617.687 293.925C602.371 290.953 589.996 284.642 584.902 270.272C584.834 270.119 584.834 269.904 584.731 269.782V269.843ZM626.234 221.739C621.106 222.627 617.482 225.599 613.448 228.05C613.209 228.173 613.038 228.357 612.867 228.541C612.867 228.541 611.636 229.276 609.551 231.972C607.739 231.972 605.961 231.942 604.149 231.911C605.141 231.911 607.123 231.942 609.551 231.972C608.696 233.106 607.67 234.577 606.542 236.476C605.961 237.457 601.824 241.532 598.44 244.78C598.44 244.78 598.44 244.78 598.406 244.78C596.286 246.832 594.406 248.579 593.756 249.13C591.227 250.816 590.03 253.297 590.235 256.361C590.372 258.384 589.517 259.885 588.56 261.601C584.799 268.403 588.697 277.778 596.662 281.425C591.261 269.781 590.338 258.598 600.56 247.966C600.97 247.629 601.585 247.139 602.337 246.557C604.252 245.086 607.397 242.88 611.397 240.796C615.055 238.927 618.849 235.097 621.482 232.156C623.123 232.156 624.354 232.187 624.866 232.187C623.738 232.187 622.61 232.156 621.482 232.156C623.499 229.858 624.456 228.602 624.456 228.602L626.268 226.764C631.43 220.881 639.191 221.126 646.643 221.003C639.806 220.636 633.037 220.636 626.268 221.8L626.234 221.739ZM637.31 223.73C632.182 224.527 627.294 228.081 625.071 232.156C625.071 232.156 620.32 242.206 616.559 244.044C612.764 245.883 608.423 246.526 605.209 247.874C598.132 251.827 595.5 257.709 596.218 265.369C596.731 270.854 594.577 276.767 601.141 281.026C601.243 276.921 600.183 272.999 599.876 269.077C599.329 261.815 605.517 257.097 610.508 252.317C610.952 251.888 611.397 251.52 611.875 251.122C611.875 251.122 619.26 242.451 625.55 238.713C631.123 235.404 635.943 232.738 640.25 231.053C646.541 228.602 652.694 225.936 661.651 223.975C653.481 224.374 645.413 222.443 637.276 223.7L637.31 223.73ZM702.744 220.176C712.35 221.984 720.589 219.257 724.453 214.109C724.658 213.834 724.794 213.497 725.068 213.251C727.495 211.076 731.598 210.126 731.392 206.021C731.256 203.324 730.025 200.873 724.794 194.806C729.478 211.045 715.769 214.722 702.744 220.207V220.176ZM709.718 210.739C717 202.497 713.615 195.235 700.077 189.383C702.676 196.829 712.316 201.578 709.718 210.739ZM697.001 184.94C701.24 186.411 705.205 188.495 708.624 191.222C718.709 199.31 719.29 203.569 711.188 213.803C715.872 212.577 718.846 210.494 721.034 207.644C723.632 204.213 725.239 200.107 721.718 196.829C711.769 187.453 701 179.18 683.736 181.08C688.83 182.551 692.966 183.562 696.966 184.971L697.001 184.94ZM680.112 175.289C690.471 176.208 700.898 177.005 710.504 181.141C711.769 181.693 713.479 183.041 714.573 181.631C715.94 179.854 714.162 178.139 712.692 177.403C706.573 174.278 699.975 172.194 692.932 171.704C682.3 170.999 671.736 171.949 659.498 174.033C667.292 175.565 673.754 174.738 680.112 175.289ZM645.242 172.685C637.481 166.587 627.259 164.167 618.986 158.805C626.781 164.81 633.311 172.715 645.242 172.685ZM528.631 84.841C524.562 89.4063 521.622 96.484 524.255 103.47C526.135 108.464 525.485 113.336 522.238 117.656C519.913 120.751 520.289 123.202 523.673 124.979C527.195 126.817 528.425 130.494 532.528 133.435C531.092 129.299 528.494 126.756 529.212 123.018C533.28 131.015 538.579 138.215 547.433 141.984C556.048 145.661 563.945 151.145 575.022 151.697C568.834 147.744 562.373 145.906 557.074 142.26C550.1 137.48 543.57 132.271 537.69 126.48C534.066 122.926 531.263 118.82 531.673 113.612C531.742 112.784 531.571 111.896 531.297 111.099C526.306 95.7487 529.554 87.047 544.049 77.3343C546.784 75.4959 549.724 73.9333 553.006 71.9417C541.827 71.9417 534.34 78.3454 528.562 84.7797L528.631 84.841ZM543.98 80.3982C537.314 85.0861 533.417 91.214 531.673 98.6594C530.853 102.183 530.784 105.37 532.938 108.464C533.519 109.322 534.271 110.333 534.203 111.252C533.656 122.558 542.715 128.564 550.613 135.059C560.561 143.24 572.561 148.418 585.107 152.463C594.303 155.435 603.192 159.571 614.713 159.05C611.26 157.304 609.106 155.496 606.645 155.067C594.543 152.983 584.082 147.407 573.484 142.351C562.407 137.051 551.502 130.494 545.621 120.505C541.519 113.55 538.75 105.094 540.528 96.484C542.305 87.6905 547.946 81.44 555.946 76.507C557.621 75.4959 559.57 74.638 560.766 72.3094C553.929 73.5043 548.903 76.9053 543.946 80.3982H543.98ZM544.356 92.1638C542.1 97.6789 541.792 103.072 544.459 108.525C544.903 109.445 545.656 110.425 545.656 111.375C545.621 121.486 554.305 125.959 561.108 132.118C569.279 139.502 580.971 141.187 589.346 147.989C590.85 149.215 593.551 149.245 595.705 149.797C583.637 140.697 568.424 135.274 558.51 124.121C550.031 114.531 543.092 103.838 548.425 90.5093C549.69 87.3228 551.57 84.7491 554.783 83.0026C557.758 81.4094 559.706 79.0807 561.758 75.7104C553.792 80.1838 547.365 84.7184 544.322 92.1945L544.356 92.1638ZM565.757 75.9861C561.279 79.4178 557.518 83.5541 553.758 87.5373C549.245 92.317 548.254 98.7207 550.305 104.971C551.433 108.372 553.416 111.528 555.023 114.806C555.501 115.756 556.083 116.767 557.518 116.369C558.612 116.063 558.92 115.174 558.373 114.316C546.544 96.484 559.843 85.3006 572.184 74.4541C581.176 66.5491 592.628 61.4936 604.047 56.7751C608.867 54.7836 613.653 52.6388 617.892 49.728C623.362 45.99 629.687 45.2853 636.285 45.5304C640.866 45.7142 645.344 45.3772 650.165 42.9567C634.61 39.954 620.114 41.057 607.363 48.3799C592.833 56.7138 578.885 65.9057 565.723 76.0168L565.757 75.9861ZM616.046 38.7284C611.602 39.8008 607.431 41.3021 603.431 43.2631C600.765 44.5499 598.953 46.3577 599.055 49.8199C602.747 49.5442 604.594 47.0624 607.226 45.8368C620.73 39.4638 634.849 38.0237 649.754 40.6587C662.267 42.8954 674.198 41.4247 686.163 34.6227C676.215 35.8176 667.292 36.1547 658.369 35.8789C644.148 35.4193 629.994 35.4194 616.046 38.7284Z" fill="#D0DFE6"/>
</svg>
