<svg width="862" height="942" viewBox="0 0 862 942" fill="none" xmlns="http://www.w3.org/2000/svg">
<path opacity="0.3" d="M862 868.378C859.486 868.947 856.973 869.731 854.479 870.799C845.611 874.573 836.561 877.231 827.13 878.275C819.428 879.13 812.43 882.572 805.954 887.556C798.574 893.253 791.093 898.783 782.647 902.106C771.144 906.64 759.662 911.126 747.395 905.714C745.846 905.026 744.097 904.789 742.448 904.789C738.667 904.789 734.706 904.48 731.548 907.447C729.176 909.702 726.601 911.387 723.686 911.458C712.484 911.767 703.113 918.627 693.42 923.659C681.174 930.02 669.349 929.331 657.243 924.845C655.353 924.157 652.075 923.113 653.704 918.793C654.026 917.962 653.342 917.392 652.899 916.799C650.929 914.093 651.351 912.526 654.488 912.123C657.706 911.719 660.059 909.488 662.572 907.613C663.859 906.664 665.126 905.24 664.905 903.103C664.161 896.101 666.976 891.852 672.124 888.885C675.563 886.892 678.459 883.806 680.249 879.7C681.214 877.492 682.4 874.786 679.203 873.101C671.079 868.829 662.793 866.194 653.724 866.17C644.071 866.17 635.464 869.469 627.26 874.858C620.925 879.011 614.41 882.121 607.049 882.477C603.832 882.643 600.373 882.429 597.517 884.304C592.108 887.841 586.055 887.248 580.303 888.363C577.951 888.814 575.175 889.36 572.782 887.722C570.872 886.393 568.901 886.108 566.689 886.061C559.43 885.966 553.216 879.367 553.336 872.08C553.437 866.265 557.177 863.322 560.516 860.355C566.951 854.635 574.431 851.573 582.214 849.413C584.808 848.701 587.322 847.49 590.097 847.87C601.077 849.365 612.057 850.955 623.077 852.166C631.865 853.139 640.331 852.878 647.872 845.662C651.834 841.865 657.263 840.156 659.415 833.842C659.556 833.415 660.058 833.13 660.4 832.774C664.161 828.905 663.598 824.632 659.154 821.974C656.781 820.55 653.945 820.455 651.874 818.105C649.28 815.162 649.42 813.073 652.558 811.103C656.399 808.682 660.32 806.451 664.04 803.816C668.243 800.849 668.746 794.25 664.784 790.904C660.099 786.94 655.353 782.976 649.199 782.335C642.623 781.623 636.148 780.104 629.954 777.232C627.521 776.116 624.907 775.784 622.353 775.974C617.426 776.306 612.539 776.116 607.633 775.428C603.973 774.929 600.212 774.312 596.612 774.834C588.81 775.95 581.027 775.95 573.205 775.452C567.272 775.072 561.481 773.838 555.77 771.82C550.863 770.111 546.459 766.456 541.069 766.669C538.355 766.788 535.72 766.242 533.166 765.103C530.411 763.868 527.596 763.346 524.64 763.418C521.965 763.465 518.969 763.56 516.857 761.59C511.669 756.771 505.375 754.54 499.764 750.766C492.907 746.161 486.733 740.702 481.987 733.083C477.704 726.2 477.623 718.343 482.148 711.744C482.872 710.7 483.375 709.537 483.536 708.184C483.817 705.882 484.823 704.007 486.009 702.203C490.272 695.652 495.823 690.382 502.077 687.653C511.347 683.594 518.808 675.618 528.26 672.248C528.843 672.034 529.386 671.37 529.788 670.776C531.92 667.643 534.695 667.145 537.912 667.501C547.203 668.498 556.413 671.109 565.824 667.548C569.082 666.314 571.938 664.866 573.004 661.282C574.431 656.487 576.764 652.761 579.72 649.272C581.048 647.705 581.952 645.64 582.516 643.456C583.038 641.51 583.501 639.16 582.294 637.76C579.921 635.006 578.051 631.565 574.934 629.761C571.656 627.862 568.157 627.506 564.558 627.007C557.559 626.034 550.561 625.298 543.503 625.227C538.797 625.18 534.675 622.782 530.452 620.765C530.452 620.765 529.124 619.887 527.697 618.462C526.269 617.038 525.987 610.155 524.378 608.114C522.75 606.072 518.265 603.699 516.073 602.678C513.7 601.301 511.448 599.474 509.336 597.1C507.406 594.916 506.179 593.374 508.351 590.691C509.779 588.911 509.819 587.226 508.19 585.612C506.099 583.523 507.004 581.624 508.572 579.963C509.759 578.705 511.307 578.23 512.856 577.85C517.4 576.782 521.945 577.043 526.55 577.257C530.753 577.447 535.358 577.945 538.837 574.836C541.271 572.676 543.764 570.943 546.399 569.258C551.768 565.84 553.698 557.627 550.642 551.907C548.55 547.991 548.691 547.041 552.11 544.857C555.87 542.46 559.59 539.327 560.616 534.651C562.165 527.601 567.252 523.661 569.746 517.514C571.676 512.766 571.918 508.447 567.976 505.954C561.662 501.943 555.729 496.674 548.168 495.961C545.614 495.724 543.101 494.893 540.587 494.347C529.325 491.855 518.124 491.428 507.144 496.128C498.276 499.902 489.227 502.56 479.795 503.604C472.093 504.459 465.095 507.901 458.62 512.885C451.239 518.582 443.759 524.112 435.313 527.435C432.759 528.432 430.205 529.429 427.651 530.331C427.651 530.379 427.651 530.426 427.651 530.473C419.446 533.084 411.121 534.247 402.413 530.402C400.865 529.714 399.115 529.477 397.466 529.477C393.686 529.477 389.724 529.168 386.567 532.135C384.194 534.39 381.62 536.075 378.704 536.146C367.503 536.455 358.132 543.315 348.439 548.347C336.192 554.708 324.367 554.019 312.261 549.533C310.371 548.845 307.093 547.801 308.722 543.481C309.044 542.65 308.36 542.08 307.918 541.487C305.947 538.781 306.369 537.214 309.506 536.811C312.724 536.407 315.077 534.176 317.59 532.301C318.878 531.352 320.144 529.928 319.923 527.791C319.179 520.789 321.995 516.54 327.143 513.574C330.581 511.58 333.477 508.494 335.267 504.388C336.232 502.18 337.419 499.474 334.221 497.789C326.097 493.517 317.812 490.882 308.742 490.858C299.09 490.858 290.483 494.158 282.278 499.546C275.943 503.699 269.428 506.809 262.068 507.165C258.85 507.331 255.391 507.117 252.536 508.992C247.126 512.529 241.073 511.936 235.322 513.051C232.969 513.502 230.194 514.048 227.801 512.41C225.89 511.081 223.92 510.796 221.707 510.749C214.448 510.654 208.234 504.055 208.355 496.768C208.455 490.953 212.196 488.01 215.534 485.043C221.969 479.323 229.45 476.261 237.232 474.101C239.826 473.389 242.34 472.178 245.115 472.558C256.095 474.053 267.075 475.644 278.095 476.854C286.883 477.827 295.349 477.566 302.89 470.35C306.852 466.553 312.282 464.844 314.433 458.53C314.574 458.103 315.077 457.818 315.419 457.462C319.179 453.593 318.616 449.32 314.172 446.662C311.799 445.238 308.963 445.143 306.892 442.793C304.298 439.85 304.439 437.761 307.576 435.791C311.417 433.37 315.338 431.139 319.059 428.504C323.261 425.537 323.764 418.938 319.803 415.592C315.117 411.628 310.371 407.664 304.218 407.023C297.642 406.311 291.166 404.792 284.973 401.92C282.539 400.804 279.925 400.472 277.371 400.662C272.444 400.994 267.558 400.804 262.651 400.116C258.991 399.618 255.23 399 251.631 399.523C243.828 400.638 236.046 400.638 228.223 400.14C222.291 399.76 216.499 398.526 210.788 396.508C205.881 394.799 201.477 391.144 196.088 391.357C193.373 391.476 190.739 390.93 188.185 389.791C185.43 388.557 182.614 388.034 179.658 388.106C176.984 388.153 173.987 388.248 171.876 386.278C166.687 381.46 160.393 379.228 154.782 375.454C147.925 370.85 141.751 365.39 137.005 357.771C132.722 350.888 132.642 343.031 137.166 336.433C137.89 335.388 138.393 334.225 138.554 332.872C138.835 330.57 139.841 328.695 141.027 326.891C145.291 320.34 150.841 315.07 157.095 312.341C166.366 308.282 173.826 300.307 183.278 296.936C183.861 296.722 184.404 296.058 184.806 295.464C186.938 292.331 189.713 291.833 192.931 292.189C202.221 293.186 211.431 295.797 220.843 292.236C224.101 291.002 226.956 289.554 228.022 285.97C229.45 281.175 231.782 277.449 234.739 273.96C236.066 272.393 236.971 270.328 237.534 268.144C238.057 266.198 238.519 263.848 237.313 262.448C234.94 259.694 233.069 256.253 229.952 254.449C226.675 252.55 223.176 252.194 219.576 251.695C212.578 250.722 205.58 249.986 198.521 249.915C193.815 249.868 189.693 247.47 185.47 245.453C185.47 245.453 184.143 244.575 182.715 243.15C181.287 241.726 181.005 234.843 179.397 232.802C177.768 230.76 173.283 228.387 171.091 227.366C168.718 225.989 166.466 224.162 164.355 221.788C162.424 219.604 161.197 218.062 163.369 215.379C164.797 213.599 164.837 211.914 163.208 210.3C161.117 208.211 162.022 206.312 163.591 204.651C164.777 203.393 166.325 202.918 167.874 202.538C172.419 201.47 176.963 201.731 181.569 201.945C185.771 202.135 190.377 202.633 193.856 199.524C196.289 197.364 198.782 195.631 201.417 193.946C206.786 190.528 208.717 182.315 205.66 176.595C203.569 172.679 203.709 171.729 207.128 169.545C210.888 167.148 214.609 164.015 215.634 159.339C217.183 152.289 222.271 148.349 224.764 142.202C226.695 137.455 226.936 133.135 222.995 130.642C216.68 126.631 210.748 121.362 203.186 120.65C200.633 120.412 198.119 119.581 195.605 119.036C184.344 116.543 173.143 116.116 162.163 120.816C153.294 124.59 144.245 127.248 134.814 128.292C127.112 129.147 120.113 132.589 113.638 137.573C106.258 143.27 98.777 148.8 90.3309 152.123C78.8282 156.657 67.3455 161.143 55.0786 155.731C53.5302 155.043 51.7806 154.805 50.1316 154.805C46.351 154.805 42.3894 154.497 39.2322 157.464C36.8592 159.719 34.2852 161.404 31.3693 161.475C20.1682 161.784 10.7971 168.644 1.1042 173.676C-11.1426 180.037 -22.9671 179.348 -35.0731 174.862C-36.9634 174.174 -40.2413 173.13 -38.6124 168.81C-38.2907 167.979 -38.9744 167.409 -39.4168 166.816C-41.3876 164.11 -40.9653 162.543 -37.8281 162.14C-34.6106 161.736 -32.2578 159.505 -29.7441 157.63C-28.457 156.681 -27.1901 155.256 -27.4113 153.12C-28.1554 146.118 -25.34 141.869 -20.192 138.902C-16.7532 136.909 -13.8574 133.823 -12.0676 129.717C-11.1024 127.509 -9.91591 124.803 -13.1134 123.118C-21.2377 118.846 -29.5229 116.211 -38.5923 116.187C-48.245 116.187 -56.8519 119.486 -65.0567 124.875C-71.3912 129.028 -77.9068 132.138 -85.2669 132.494C-88.4845 132.66 -91.9433 132.446 -94.7989 134.321C-100.208 137.858 -106.261 137.265 -112.013 138.38C-114.366 138.831 -117.141 139.377 -119.534 137.739C-121.444 136.41 -123.415 136.125 -125.627 136.078C-132.887 135.983 -139.101 129.384 -138.98 122.097C-138.879 116.282 -135.139 113.339 -131.801 110.372C-125.366 104.652 -117.885 101.59 -110.102 99.4297C-107.508 98.7176 -104.995 97.5071 -102.219 97.8868C-91.2395 99.3822 -80.2596 100.972 -69.2395 102.183C-60.4516 103.156 -51.9854 102.895 -44.4442 95.6794C-40.4826 91.8816 -35.053 90.1727 -32.9013 83.8589C-32.7605 83.4317 -32.2578 83.1468 -31.9159 82.7908C-28.1554 78.9218 -28.7185 74.6494 -33.1627 71.991C-35.5356 70.5668 -38.3711 70.4719 -40.4424 68.122C-43.0366 65.1788 -42.8958 63.09 -39.7587 61.1199C-35.9177 58.6989 -31.9963 56.4677 -28.276 53.833C-24.0731 50.866 -23.5704 44.2674 -27.532 40.9207C-32.2176 36.9568 -36.9634 32.9929 -43.117 32.352C-49.6929 31.6399 -56.1682 30.1208 -62.362 27.2488C-64.7952 26.1332 -67.4095 25.8009 -69.9634 25.9908C-74.8903 26.3231 -79.777 26.1332 -84.6837 25.4449C-88.3437 24.9464 -92.1042 24.3293 -95.7038 24.8515C-103.506 25.9671 -111.289 25.9671 -119.112 25.4686C-125.044 25.0888 -130.835 23.8546 -136.547 21.837C-141.453 20.128 -145.857 16.4727 -151.247 16.6863C-153.962 16.805 -156.596 16.2591 -159.15 15.1198C-161.905 13.8855 -164.72 13.3633 -167.676 13.4345C-170.351 13.482 -173.347 13.5769 -175.459 11.6069C-180.707 6.95462 -187.002 4.72344 -192.612 0.973172C-193.075 0.664605 -193.537 0.332303 -194 0V2.06502C-191.406 3.72654 -188.711 5.24563 -186.037 6.71726C-183.201 8.26009 -180.386 9.9216 -177.892 12.1765C-174.675 15.0723 -170.954 15.6182 -167.073 15.4283C-164.378 15.2859 -161.744 15.547 -158.909 17.4221C-168.058 19.7483 -176.585 18.8938 -184.086 13.2209C-187.424 10.6574 -190.742 7.97526 -194 5.19816V7.38186C-193.899 7.52428 -193.779 7.66669 -193.678 7.80911C-193.155 8.52119 -192.452 9.13832 -193.356 10.4675C-193.618 10.8473 -193.819 11.1796 -194 11.5356V15.998C-193.598 16.5677 -193.055 17.161 -192.311 17.7782C-187.746 21.5997 -182.658 23.902 -177.048 24.2818C-169.024 24.8277 -161 24.7328 -152.956 24.5904C-145.918 24.4717 -138.819 24.5904 -132.263 28.3881C-128.08 30.8092 -123.717 32.1384 -119.051 32.3283C-114.788 32.4944 -110.645 32.1384 -106.442 30.9991C-100.631 29.4088 -94.9598 32.2096 -89.1883 32.7793C-82.2102 33.4676 -77.0219 37.9537 -73.3016 44.0776C-67.2486 54.0466 -65.841 63.6597 -72.4973 70.9228C-79.1335 78.1623 -86.9159 82.862 -96.3272 82.7671C-106.282 82.6484 -116.236 82.5772 -126.19 82.7196C-131.439 82.7908 -136.667 83.4317 -141.554 86.1138C-144.188 87.5617 -146.32 90.0302 -149.216 90.9085C-156.174 93.021 -161.905 97.2697 -165.927 104.485C-166.41 105.34 -167.133 106.052 -167.857 106.669C-171.035 109.422 -172.704 113.529 -174.574 117.374C-175.841 119.961 -175.519 122.715 -174.232 125.302C-172.523 128.696 -168.541 130.809 -169.888 135.935C-169.909 136.03 -169.808 136.22 -169.728 136.268C-166.088 138.546 -164.459 143.863 -160.216 145.24C-155.027 146.925 -150.121 149.37 -145.294 152.171C-141.534 154.355 -137.371 155.47 -133.229 153.975C-129.87 152.74 -126.592 152.859 -123.314 153.761C-119.896 154.687 -116.558 154.497 -113.461 152.859C-107.991 149.987 -102.36 150.153 -96.6892 151.008C-90.5357 151.933 -84.3419 152.171 -78.3693 150.343C-69.9835 147.78 -61.4772 150.747 -53.1115 148.824C-52.3071 148.634 -51.362 149.18 -50.4973 149.465C-49.6728 149.726 -48.4863 149.631 -48.4461 151.031C-48.4059 152.456 -49.6728 152.266 -50.4168 152.717C-54.5192 155.114 -58.702 157.345 -62.724 159.956C-66.4442 162.354 -68.7569 166.626 -68.3949 171.302C-68.0329 175.978 -64.4936 178.351 -60.6325 179.443C-58.7825 179.966 -56.8117 180.345 -55.2029 181.413C-45.1079 188.083 -34.4698 189.151 -23.3894 186.161C-22.3638 185.876 -21.3784 185.9 -20.4333 186.374C-16.6325 188.321 -12.6508 188.582 -8.58867 188.416C-3.52103 188.202 1.42596 189.128 6.37294 190.362C12.6271 191.928 18.9415 192.783 25.3364 191.62C29.0768 190.932 32.8373 190.219 36.6179 189.84C45.6874 188.938 54.4351 186.73 62.9013 182.553C69.5978 179.23 75.3089 174.174 81.3016 169.64C87.1536 165.202 93.106 163.73 99.8026 165.131C105.252 166.27 110.441 164.846 114.845 161.214C121.119 156.04 128.157 153.951 135.457 152.669C145.814 150.842 156.25 151.482 166.527 153.191C176.018 154.782 184.826 159.078 192.569 166.033C194.58 167.836 194.781 169.332 192.689 171.302C189.15 174.649 185.51 177.639 180.845 178.209C178.894 178.446 177.165 179.372 175.495 180.44C172.358 182.458 168.94 183.146 165.501 183.573C160.172 184.214 154.803 184.309 149.473 184.903C141.269 185.805 133.165 187.134 127.554 195.513C126.227 197.483 124.98 199.429 123.029 200.687C121.34 201.779 120.958 203.844 121.441 205.885C123.069 212.863 125.704 218.845 132.079 221.48C136.845 223.45 141.208 226.44 145.351 229.858C148.77 232.659 152.329 235.033 156.21 236.694C156.21 236.694 159.367 239.353 159.951 241.275C160.534 243.198 161.037 244.575 161.358 245.595C162.263 249.013 164.616 251.743 168.196 253.191C173.987 255.541 179.96 256.419 186.033 256.11C194.218 255.683 202.362 256.656 210.506 257.083C217.846 257.463 222.271 264.821 219.596 271.467C217.806 275.906 214.971 279.015 211.09 281.057C202.121 285.78 192.81 287.821 183.037 287.014C180.342 286.801 177.687 287.418 175.113 288.391C173.706 288.913 171.996 289.863 172.378 291.809C173.002 295.037 171.071 295.725 169.503 296.01C160.876 297.506 153.154 302.087 145.029 305.315C141.872 306.573 138.494 307 135.437 308.804C126.87 313.883 118.525 319.295 112.069 327.959C110.581 329.976 109.878 332.089 111.406 334.344C113.598 337.596 113.678 341.085 112.673 344.811C112.009 347.28 112.311 349.582 112.713 352.146C113.658 358.388 116.353 362.566 120.737 366.269C124.377 369.33 128.117 371.823 132.32 371.68C138.534 371.467 143.42 375.098 148.709 377.757C150.68 378.754 152.249 380.51 153.656 382.409C154.179 383.121 154.883 383.738 153.978 385.067C151.887 388.106 152.188 390.004 155.024 392.378C159.589 396.2 164.676 398.502 170.287 398.882C178.311 399.428 186.335 399.333 194.378 399.19C201.417 399.072 208.516 399.19 215.071 402.988C219.254 405.409 223.618 406.738 228.283 406.928C232.547 407.094 236.689 406.738 240.892 405.599C246.704 404.009 252.375 406.809 258.146 407.379C265.124 408.067 270.313 412.554 274.033 418.677C280.086 428.646 281.494 438.26 274.837 445.523C268.201 452.762 260.419 457.462 251.007 457.367C241.053 457.248 231.099 457.177 221.144 457.319C215.896 457.391 210.667 458.032 205.781 460.714C203.146 462.162 201.015 464.63 198.119 465.508C191.161 467.621 185.43 471.87 181.408 479.085C180.925 479.94 180.201 480.652 179.477 481.269C176.3 484.022 174.631 488.129 172.761 491.974C171.494 494.561 171.815 497.314 173.102 499.902C174.812 503.296 178.793 505.408 177.446 510.535C177.426 510.63 177.526 510.82 177.607 510.868C181.247 513.146 182.876 518.463 187.119 519.84C192.307 521.525 197.214 523.97 202.04 526.771C205.801 528.954 209.963 530.07 214.106 528.575C217.464 527.34 220.742 527.459 224.02 528.361C227.439 529.287 230.777 529.097 233.874 527.459C239.344 524.587 244.974 524.753 250.645 525.608C256.799 526.533 262.993 526.771 268.965 524.943C277.351 522.38 285.857 525.347 294.223 523.424C295.027 523.234 295.973 523.78 296.837 524.065C297.662 524.326 298.848 524.207 298.888 525.631C298.929 527.055 297.662 526.866 296.918 527.317C292.815 529.714 288.633 531.945 284.611 534.556C280.89 536.953 278.578 541.226 278.94 545.902C279.302 550.578 282.841 552.951 286.702 554.043C288.552 554.565 290.523 554.945 292.132 556.013C302.227 562.683 312.865 563.751 323.945 560.76C324.971 560.476 325.956 560.499 326.901 560.974C330.702 562.92 334.684 563.182 338.746 563.015C343.814 562.802 348.76 563.727 353.707 564.962C359.962 566.528 366.276 567.383 372.671 566.22C376.411 565.531 380.172 564.819 383.952 564.44C393.022 563.538 401.77 561.33 410.236 557.153C416.932 553.83 422.644 548.774 428.636 544.24C429.702 543.433 430.768 542.769 431.834 542.152C431.834 541.962 431.834 541.795 431.834 541.606C435.936 539.825 440.179 539.422 444.784 540.371C450.234 541.511 455.422 540.086 459.826 536.455C466.101 531.28 473.139 529.192 480.439 527.91C490.795 526.082 501.232 526.723 511.508 528.432C521 530.022 529.808 534.319 537.55 541.273C539.561 543.077 539.762 544.573 537.671 546.543C534.132 549.889 530.492 552.88 525.826 553.45C523.876 553.687 522.146 554.613 520.477 555.681C517.34 557.699 513.921 558.387 510.483 558.814C505.154 559.455 499.784 559.55 494.455 560.143C486.25 561.045 478.146 562.375 472.536 570.753C471.208 572.723 469.962 574.67 468.011 575.928C466.322 577.02 465.94 579.085 466.422 581.126C468.051 588.104 470.686 594.086 477.06 596.72C481.826 598.69 486.19 601.681 490.333 605.099C493.751 607.9 497.311 610.274 501.192 611.935C501.192 611.935 504.349 614.593 504.932 616.516C505.516 618.439 506.018 619.815 506.34 620.836C507.245 624.254 509.598 626.984 513.177 628.432C518.969 630.781 524.941 631.66 531.015 631.351C539.199 630.924 547.344 631.897 555.488 632.324C562.828 632.704 567.252 640.062 564.578 646.708C562.788 651.147 559.952 654.256 556.071 656.297C547.102 661.021 537.792 663.062 528.018 662.255C525.324 662.042 522.669 662.659 520.095 663.632C518.687 664.154 516.978 665.103 517.36 667.05C517.984 670.278 516.053 670.966 514.484 671.251C505.857 672.746 498.135 677.327 490.011 680.556C486.854 681.814 483.475 682.241 480.419 684.045C471.852 689.124 463.506 694.536 457.051 703.2C455.563 705.217 454.859 707.33 456.388 709.585C458.58 712.836 458.66 716.325 457.654 720.052C456.991 722.521 457.293 724.823 457.695 727.386C458.64 733.629 461.335 737.806 465.718 741.509C469.358 744.571 473.099 747.063 477.302 746.921C483.516 746.707 488.402 750.339 493.691 752.997C495.662 753.994 497.23 755.751 498.638 757.65C499.161 758.362 499.865 758.979 498.96 760.308C496.868 763.346 497.17 765.245 500.005 767.619C504.57 771.44 509.658 773.743 515.269 774.122C523.293 774.668 531.316 774.573 539.36 774.431C546.399 774.312 553.497 774.431 560.053 778.229C564.236 780.65 568.6 781.979 573.265 782.169C577.528 782.335 581.671 781.979 585.874 780.84C591.686 779.249 597.357 782.05 603.128 782.62C610.106 783.308 615.294 787.794 619.015 793.918C625.068 803.887 626.475 813.5 619.819 820.763C613.183 828.003 605.4 832.703 595.989 832.608C586.035 832.489 576.08 832.418 566.126 832.56C560.877 832.631 555.649 833.272 550.762 835.954C548.128 837.402 545.996 839.871 543.101 840.749C536.143 842.862 530.411 847.11 526.389 854.326C525.907 855.18 525.183 855.893 524.459 856.51C521.282 859.263 519.612 863.369 517.742 867.215C516.475 869.802 516.797 872.555 518.084 875.142C519.793 878.537 523.775 880.649 522.428 885.776C522.408 885.871 522.508 886.061 522.589 886.108C526.229 888.387 527.857 893.704 532.101 895.081C537.289 896.766 542.196 899.211 547.022 902.011C550.782 904.195 554.945 905.311 559.088 903.815C562.446 902.581 565.724 902.7 569.002 903.602C572.421 904.527 575.759 904.338 578.856 902.7C584.325 899.828 589.956 899.994 595.627 900.848C601.781 901.774 607.974 902.011 613.947 900.184C622.333 897.62 630.839 900.587 639.205 898.665C640.009 898.475 640.954 899.021 641.819 899.306C642.644 899.567 643.83 899.448 643.87 900.872C643.91 902.296 642.644 902.106 641.899 902.557C637.797 904.955 633.614 907.186 629.592 909.797C625.872 912.194 623.559 916.467 623.921 921.142C624.283 925.818 627.823 928.192 631.684 929.284C633.534 929.806 635.505 930.186 637.113 931.254C647.208 937.924 657.846 938.992 668.927 936.001C669.952 935.716 670.938 935.74 671.883 936.215C675.684 938.161 679.665 938.422 683.728 938.256C688.795 938.043 693.742 938.968 698.689 940.202C704.943 941.769 711.258 942.624 717.653 941.46C721.393 940.772 725.154 940.06 728.934 939.68C738.004 938.778 746.751 936.571 755.218 932.393C761.914 929.07 767.625 924.015 773.618 919.481C779.47 915.042 785.422 913.571 792.119 914.971C797.569 916.111 802.757 914.686 807.161 911.055C813.435 905.88 820.474 903.792 827.773 902.51C838.13 900.682 848.567 901.323 858.843 903.032C859.788 903.198 860.713 903.388 861.638 903.602C861.638 903.008 861.638 902.415 861.638 901.822C858.782 901.181 855.846 900.73 852.85 900.516C850.216 900.326 847.601 899.875 844.987 899.519C848.868 897.312 852.709 897.146 856.51 898.593C858.219 899.234 859.929 899.756 861.638 900.231C861.638 899.685 861.638 899.163 861.638 898.617C860.532 898.261 859.426 897.858 858.38 897.407C854.338 895.65 850.276 895.152 846.214 896.481C837.587 899.306 828.356 898.024 819.951 902.154C815.446 904.361 810.66 905.714 806.618 909.346C803.058 912.574 798.815 913.808 794.271 913.286C790.45 912.835 786.669 911.719 782.768 912.265C785.583 910.295 788.519 909.987 791.697 909.844C797.83 909.583 803.883 909.346 809.494 904.836C813.214 901.845 818.201 900.943 822.686 899.377C831.594 896.244 840.784 894.677 849.854 892.422C852.307 891.805 853.795 893.917 855.786 894.511C857.737 895.104 859.687 895.46 861.658 895.698C861.658 895.08 861.658 894.44 861.658 893.823C858.984 893.656 856.349 892.992 853.956 891.307C852.75 890.452 851.422 890.428 850.055 890.737C837.868 893.419 825.581 895.626 813.878 900.801C810.338 902.367 806.598 902.795 802.837 903.412C810.921 899.448 817.638 892.303 825.984 889.289C837.728 885.017 849.432 880.293 861.819 879.628C861.819 879.272 861.819 878.893 861.819 878.537C846.717 879.818 836.139 882.667 820.132 889.74C825.058 886.393 829.804 882.548 835.254 880.507C843.962 877.279 852.85 874.976 861.859 873.481C861.859 872.84 861.859 872.199 861.859 871.558C859.667 871.914 857.475 872.365 855.283 872.745C857.475 871.843 859.667 871.178 861.859 870.633C861.859 869.873 861.859 869.137 861.859 868.378H862ZM-154.082 22.8814C-162.448 23.2374 -170.773 23.2374 -178.978 20.674C-181.592 19.8432 -184.046 18.6801 -186.399 17.1611C-187.967 16.1641 -189.033 14.7637 -188.973 12.0816C-186.801 12.2952 -185.715 14.2178 -184.166 15.1672C-176.223 20.1043 -167.918 21.2199 -159.15 19.1786C-151.79 17.4459 -144.771 18.5852 -137.733 23.8546C-143.585 22.9289 -148.834 22.6678 -154.082 22.8814ZM-92.1243 94.6587C-74.3071 94.8249 -58.7221 86.5648 -42.8757 77.2366C-44.4845 81.9363 -47.4808 84.6185 -50.7386 87.0395C-58.8428 93.0922 -68.0128 93.9941 -77.223 95.3471C-82.2505 96.0829 -87.117 96.6051 -92.1444 94.635L-92.1243 94.6587ZM-61.2962 85.3305C-55.8062 80.0374 -49.4113 78.0436 -45.4899 71.8723C-44.947 71.0178 -44.1627 70.1633 -43.298 71.445C-42.3729 72.798 -42.9762 74.1035 -43.9415 74.8393C-47.1993 77.3553 -50.4973 79.8713 -53.9159 82.055C-55.947 83.3605 -58.2596 84.0251 -61.2962 85.3305ZM-35.0932 73.2015C-30.4278 75.5513 -30.0256 77.9487 -33.6654 82.1974C-34.7916 83.5266 -35.777 84.9508 -36.34 86.6835C-36.8428 88.2501 -37.6874 89.5318 -38.9945 90.0777C-42.9561 91.7867 -46.1737 94.8486 -49.532 97.6732C-52.5887 100.26 -56.2687 100.45 -59.808 100.783C-62.9049 101.091 -66.0622 100.854 -69.1792 100.854C-65.3181 99.9756 -61.7989 97.4596 -57.7367 98.1004C-55.6252 98.4328 -53.4534 97.5783 -51.7239 96.0592C-49.0695 93.7568 -46.6563 91.6443 -43.2377 90.3863C-37.2852 88.2026 -35.5357 79.2779 -38.9543 72.2758C-37.5064 72.1809 -36.2797 72.6081 -35.0932 73.2015ZM-40.9854 77.4977C-40.8647 76.7381 -40.5832 75.8124 -39.7989 75.8362C-38.7733 75.8837 -38.7532 77.023 -38.6728 77.9249C-38.3309 81.2954 -41.2468 86.9208 -44.3437 88.3213C-47.0987 89.5793 -49.6527 91.0034 -51.5832 93.7568C-53.192 96.0592 -55.7057 96.1778 -57.7569 96.0592C-63.5686 95.6794 -68.8574 98.9787 -74.5887 98.86C-76.2377 98.8363 -77.8867 99.4297 -79.5759 98.1954C-75.1115 96.6526 -70.426 96.4152 -65.8812 95.3233C-58.9031 93.6381 -52.2066 91.3832 -46.6161 85.9477C-44.2431 83.6453 -41.6691 81.4379 -41.0055 77.4977H-40.9854ZM-32.7806 40.7071C-32.2578 40.0187 -31.5539 40.0899 -30.9305 40.3985C-28.5978 41.5378 -27.0896 43.4604 -26.9086 46.2138C-27.0494 48.1601 -27.3711 49.6792 -28.1755 51.0322C-28.9799 52.3851 -30.1664 53.8093 -31.4132 53.4058C-33.1024 52.8361 -31.8153 50.961 -31.7952 49.6792C-31.755 47.3294 -31.2724 44.9558 -32.7002 42.867C-33.1426 42.2262 -33.3437 41.4429 -32.8007 40.7308L-32.7806 40.7071ZM-36.4406 40.8495C-32.0366 44.3149 -32.2578 52.6937 -36.8629 55.7556C-37.7477 56.349 -38.6929 57.1798 -38.9744 55.0198C-40.0201 46.641 -44.7057 41.4191 -50.3163 37.0517C-50.8793 36.6245 -51.4424 36.1972 -51.9653 35.6988C-52.106 35.5801 -52.106 35.2715 -52.287 34.7019C-46.8373 36.6007 -41.2066 37.0992 -36.4406 40.8495ZM-93.3309 27.9134C-99.8464 26.8928 -106.161 29.385 -112.556 30.5244C-119.152 31.6874 -125.587 30.5244 -132.344 26.4418C-130.051 25.5398 -128.724 25.9908 -127.417 26.2519C-117.664 28.0796 -107.87 28.4356 -98.0567 26.9402C-94.2761 26.3706 -90.4351 26.418 -86.6947 27.2963C-79.9378 28.8866 -73.1005 27.5574 -66.3236 28.1982C-64.011 28.4119 -61.7788 29.029 -59.7678 30.7142C-63.8702 29.8598 -67.9525 31.6399 -71.9945 30.5244C-79.0128 28.5543 -86.2322 29.0527 -93.3108 27.9609L-93.3309 27.9134ZM-69.4607 71.2789C-63.0457 53.6906 -70.1243 42.3211 -82.1298 32.4707C-79.596 32.4232 -78.0475 32.8267 -76.7806 33.7999C-72.5375 37.1704 -67.872 39.7814 -64.0713 43.9826C-59.2048 49.3944 -58.521 53.3346 -61.7386 60.3841C-62.1006 61.1674 -62.3218 62.0456 -62.6234 62.9001C-57.8574 59.4109 -56.872 49.9878 -60.8336 44.9083C-63.7294 41.2055 -67.0676 38.1198 -70.8483 35.7225C-72.0951 34.9392 -73.3218 33.9898 -74.0457 32.803C-63.7093 30.7855 -54.5594 33.8474 -46.8172 42.4635C-45.5704 43.8402 -44.5046 45.2881 -43.4991 46.9021C-39.1755 53.9042 -39.3766 55.7319 -45.3492 60.4316C-47.5411 62.1643 -48.5466 64.2056 -47.2194 67.0776C-46.0731 69.5699 -46.6965 71.4213 -48.3857 72.9167C-56.7514 80.3697 -65.479 86.8022 -76.2779 88.2263C-80.4607 88.7722 -84.5229 90.6236 -89.3693 89.0333C-86.9963 87.3006 -85.0658 85.7103 -83.0146 84.4286C-74.7495 79.2541 -67.3693 72.9404 -62.724 62.9951C-66.4241 63.8021 -66.5649 68.7629 -69.5009 71.2552L-69.4607 71.2789ZM-101.455 84.6422C-92.6069 86.3512 -85.0256 82.7671 -77.7258 77.5689C-77.3437 77.3078 -76.9415 77.1179 -76.4388 76.8331C-78.9726 82.0312 -92.426 88.9384 -106.442 92.7361C-117.563 95.7506 -128.704 95.5607 -140.227 93.9941C-137.753 92.1902 -135.28 92.1665 -132.846 92.3089C-125.547 92.7599 -118.709 91.1696 -112.194 86.9921C-108.976 84.9033 -105.135 83.9301 -101.455 84.6422ZM-143.625 89.4131C-139.824 86.7309 -135.642 85.2593 -131.258 84.8558C-125.929 84.3574 -120.559 84.1675 -115.21 83.9301C-114.386 83.9064 -113.541 84.3574 -111.832 84.8083C-117.201 88.25 -122.128 90.0777 -127.397 90.3625C-132.585 90.6474 -137.874 89.3419 -142.801 92.4038C-143.565 92.8785 -144.43 92.4988 -144.751 91.5019C-145.113 90.3625 -144.289 89.8641 -143.625 89.3894V89.4131ZM-163.755 140.422C-164.72 138.974 -165.726 137.573 -167.194 136.766C-167.938 136.363 -168.742 135.627 -168.481 134.701C-167.455 130.737 -169.446 128.649 -171.718 126.536C-172.463 125.848 -173.046 124.827 -173.106 123.023C-171.055 124.732 -169.426 126.465 -167.375 127.414C-166.188 127.96 -166.329 129.194 -166.671 130.452C-167.536 133.586 -166.349 135.627 -164.177 137.383C-161.463 139.591 -158.909 142.083 -156.294 144.457C-159.411 144.338 -161.905 143.104 -163.735 140.398L-163.755 140.422ZM-155.43 142.748C-158.446 140.516 -161.261 137.882 -164.177 135.484C-165.665 134.274 -165.746 132.731 -165.163 130.951C-164.399 128.672 -165.122 127.272 -166.832 126.085C-173.448 121.48 -174.333 117.208 -169.084 110.443C-165.706 106.076 -162.649 101.091 -157.581 98.6464C-154.203 97.0086 -150.865 95.9642 -146.742 95.4658C-152.715 99.4771 -157.923 103.465 -160.739 110.467C-164.177 119.012 -161.583 129.527 -154.183 136.481C-149.618 140.778 -144.208 143.436 -138.94 146.356C-137.874 146.949 -136.486 146.783 -135.461 148.872C-142.66 148.017 -149.417 147.163 -155.389 142.748H-155.43ZM-132.082 146.569C-141.132 143.507 -150.101 139.994 -156.435 131.117C-163.353 121.409 -162.146 112.057 -154.143 103.37C-146.682 95.2759 -137.512 95.3708 -128.241 96.8187C-125.828 97.1985 -123.475 98.0292 -120.982 97.4596C-128 102.041 -135.199 105.933 -141.795 111.155C-143.384 112.413 -144.872 113.837 -145.938 115.736C-146.481 116.709 -147.305 117.991 -147.124 118.917C-146.34 123.308 -147.044 128.435 -144.309 131.948C-140.448 136.885 -136.748 142.344 -130.634 143.816C-129.991 143.958 -129.408 144.409 -128.804 144.765C-128.644 144.86 -128.603 145.192 -128.483 145.477C-129.428 146.996 -130.876 146.996 -132.082 146.593V146.569ZM-122.349 143.08C-122.691 144.623 -123.857 144.219 -124.863 143.982C-132.585 142.083 -138.678 137.051 -143.565 129.978C-145.516 127.153 -143.786 122.881 -145.676 120.507C-145.777 118.252 -145.033 117.089 -144.229 115.997C-141.393 112.128 -137.472 110.016 -133.912 107.334C-133.43 106.978 -132.826 106.669 -132.404 107.334C-131.861 108.188 -132.484 108.758 -132.967 109.28C-134.033 110.419 -135.059 111.654 -136.205 112.698C-143.987 119.795 -140.83 130.547 -133.872 135.508C-130.835 137.692 -127.698 139.709 -124.239 140.967C-123.355 141.3 -121.967 141.442 -122.309 143.08H-122.349ZM-40.7441 170.922C-40.4223 175.646 -36.1188 175.859 -33.1627 178.114C-38.7532 178.304 -43.2175 175.195 -44.223 170.732C-45.2687 166.175 -44.1225 162.852 -40.2815 160.526C-45.2486 163.92 -40.9854 167.504 -40.7441 170.922ZM-19.3474 121.955C-17.3967 123.118 -15.4059 124.257 -13.4753 125.468C-12.3693 126.18 -12.3492 127.391 -12.8318 128.554C-14.3602 132.233 -17.0347 134.63 -19.8501 136.814C-20.3327 137.193 -20.936 137.312 -21.3985 136.766C-21.9013 136.173 -21.5393 135.556 -21.2377 135.01C-20.6545 133.894 -20.0512 132.779 -19.4881 131.639C-17.9397 128.506 -18.2614 125.42 -19.3474 121.931V121.955ZM-20.0512 126.18C-19.2669 128.672 -21.8812 134.915 -24.0932 135.817C-25.6618 136.458 -25.6819 135.081 -25.2797 134.132C-23.4899 129.764 -25.5612 126.631 -27.6526 123.094C-24.0329 121.67 -21.0366 122.928 -20.0311 126.18H-20.0512ZM-24.3547 120.104C-30.3071 122.145 -35.7569 121.385 -41.0859 121.908C-46.5356 122.453 -52.0055 122.525 -57.2943 124.637C-62.4424 126.678 -66.9671 130.547 -72.9196 132.304C-57.9177 120.294 -42.4735 114.668 -24.3547 120.104ZM-97.0713 139.401C-89.8519 138.428 -82.9744 135.2 -75.6746 134.772C-70.4461 134.464 -66.2029 130.975 -61.6581 128.506C-52.7294 123.664 -43.2779 123.142 -33.766 123.522C-30.7898 123.64 -27.351 124.424 -26.4461 129.052C-25.6819 132.945 -27.1499 136.054 -30.9104 139.069C-31.9963 139.923 -32.8208 141.252 -33.7459 142.368C-34.8117 143.65 -35.596 145.382 -37.7075 145.715C-36.3601 141.062 -37.0238 139.757 -41.0055 139.781C-44.3236 139.804 -47.2797 138.879 -50.3967 137.597C-55.8263 135.39 -61.4771 136.624 -66.9872 137.739C-70.4863 138.451 -73.9854 139.401 -77.3437 140.896C-84.5832 144.101 -91.8428 142.938 -99.2431 140.896C-98.8611 139.496 -97.8556 139.52 -97.1115 139.401H-97.0713ZM-39.7185 147.21C-47.4607 139.615 -56.8921 140.137 -66.223 139.994C-59.8684 138.214 -53.6143 137.193 -47.5411 140.801C-45.7715 141.846 -43.8208 141.513 -41.9305 141.49C-39.7587 141.49 -37.607 141.395 -39.2559 145.24C-39.4772 145.738 -38.9744 146.522 -39.7185 147.21ZM-61.2761 148.088C-61.9196 148.278 -62.6234 148.373 -63.2669 148.231C-71.5923 146.569 -79.9579 147.827 -88.3035 147.637C-91.6819 147.566 -94.5375 146.308 -97.3931 143.887C-95.6033 143.46 -94.0951 143.958 -92.607 144.243C-85.0256 145.786 -77.585 145.216 -70.0439 143.389C-61.3163 141.252 -52.4881 141.157 -44.1225 145.81C-43.1572 146.356 -41.2066 146.735 -42.1316 148.61C-42.8757 150.106 -44.7258 151.293 -46.2139 150.058C-51 146.094 -56.0475 146.498 -61.2761 148.065V148.088ZM-63.8099 176.049C-68.2541 172.228 -68.0731 166.104 -62.9452 163.73C-57.6764 161.285 -52.5685 158.39 -47.0987 156.372C-40.3419 153.856 -34.1682 149.536 -27.7532 144.385C-28.5777 149.655 -31.574 151.981 -34.6709 153.785C-37.3455 155.351 -40.4223 155.874 -43.1974 157.227C-48.0841 159.624 -53.1115 161.95 -56.6709 166.84C-60.2102 171.705 -60.0896 172.821 -56.8519 178.209C-59.426 178.304 -61.7386 177.829 -63.8099 176.049ZM-55.5649 168.05C-53.4534 164.585 -50.0548 163.778 -46.9579 161.19C-47.8629 165.534 -48.4662 169.403 -45.8117 172.821C-43.5192 175.788 -40.8848 178.09 -37.6874 179.633C-43.0768 180.393 -48.2249 179.491 -53.2121 177.521C-57.8976 175.669 -58.4004 172.75 -55.5649 168.074V168.05ZM-51.9653 179.942C-41.6088 182.743 -31.6746 181.746 -21.8611 182.956C-28.4369 188.036 -45.2486 186.659 -51.9653 179.942ZM58.4772 160.906L36.9598 165.819C43.2541 159.078 50.5338 158.129 58.4772 160.906ZM36.9598 162.045C30.3839 167.409 22.7221 168.359 15 169.308C21.5759 163.683 29.8409 165.249 36.9598 162.045ZM26.362 170.447C16.9909 175.764 8.02194 179.182 -1.42961 180.63C7.70019 177.829 15.0603 168.549 26.362 170.447ZM4.24132 187.775C13.351 187.252 21.8775 187.846 30.2834 188.534C23.3857 191.074 13.532 190.86 4.24132 187.775ZM74.0823 166.721C66.5411 170.091 61.8958 179.182 53.5101 180.939C42.7916 183.194 32.415 187.419 21.1536 185.971C12.1243 184.808 2.91408 186.398 -6.53747 183.573C-1.95247 182.695 2.23034 182.078 6.35283 180.962C14.3565 178.802 21.8775 175.171 29.3985 171.468C40.0567 166.246 51.3583 164.324 62.6197 162.282C66.0786 161.665 69.5174 162.804 72.9762 163.089C73.9214 163.161 74.8062 163.493 75.0073 164.751C75.1481 165.605 74.7258 166.412 74.0823 166.697V166.721ZM169.06 228.79C169.724 228.387 170.367 227.983 171.031 227.58L169.08 228.814C169.201 228.885 173.042 231.401 175.053 232.493C178.713 234.511 179.638 239.448 180.101 240.991C180.563 242.533 181.287 243.839 181.287 243.839C181.287 243.839 173.665 238.19 172.761 236.86C171.856 235.531 168.779 230.262 167.954 229.526L165.984 230.76C166.627 230.333 167.291 229.93 167.934 229.526C165.762 227.698 164.113 225.633 163.51 223.568C165.239 225.823 167.09 227.509 169.06 228.814V228.79ZM192.931 198.551C190.638 200.212 188.004 200.189 185.47 200.497C183.057 200.806 180.603 200.568 178.17 200.568C182.614 197.293 187.682 197.483 192.367 195.916C193.051 195.679 193.815 195.75 193.976 196.723C194.137 197.601 193.494 198.124 192.91 198.551H192.931ZM190.055 195.014C188.205 195.418 186.335 195.56 183.68 195.94C186.918 194.041 189.472 192.522 192.026 191.05C194.559 189.602 196.731 187.609 198.762 185.33C201.115 182.695 201.859 179.704 201.035 176.025C200.793 174.957 200.029 173.818 200.874 172.702C201.055 172.465 201.578 172.299 201.779 172.441C203.026 173.391 202.141 174.815 202.302 176.025C202.362 176.548 202.201 177.117 202.302 177.592C204.514 186.991 197.636 193.329 190.055 194.99V195.014ZM204.413 162.164C203.689 163.374 203.227 163.849 202.221 162.354C199.868 158.912 197.013 156.253 193.132 155.446C191.784 155.162 190.618 154.141 189.814 152.883C185.148 145.525 178.592 143.934 171.353 144.077C167.995 144.148 164.656 143.626 161.66 141.513C160.453 140.659 159.126 140.635 157.759 140.944C145.572 143.626 133.285 145.833 121.581 151.008C118.042 152.574 114.302 153.002 110.541 153.619C118.625 149.655 125.342 142.51 133.687 139.496C147.101 134.606 160.514 129.147 174.892 129.812C183.479 130.215 192.026 130.358 199.848 135.888C205.861 140.137 208.073 144.718 206.887 152.835C206.404 156.087 206.082 159.339 204.433 162.164H204.413ZM223.155 141.585C221.587 143.84 221.687 147.234 219.375 148.872C218.651 149.37 218.007 150.699 217.082 149.845C216.157 148.99 216.499 147.708 216.962 146.593C217.102 146.237 217.283 145.881 217.505 145.596C220.923 141.703 221.969 137.217 219.314 131.402C224.543 133.325 225.91 137.621 223.155 141.585ZM196.812 121.48C202.362 122.857 208.073 123.545 213.261 126.702C219.375 130.429 220.863 137.763 216.559 143.934C215.232 145.857 214.971 147.851 215.272 150.201C216.318 158.105 212.819 164.822 205.74 167.931C208.837 163.161 211.431 158.603 212.276 153.073C213.322 146.261 213 140.208 208.214 134.749C198.079 123.213 185.993 120.009 172.559 121.385C169.362 121.718 166.185 122.43 163.007 122.976C174.229 118.323 185.49 118.679 196.792 121.504L196.812 121.48ZM142.958 130.714C153.093 126.963 163.47 124.376 174.027 122.976C184.645 121.575 194.841 124.091 203.267 131.568C212.336 139.615 214.106 147.257 208.697 160.027C208.355 160.811 208.113 161.784 206.283 161.903C208.676 158.295 208.113 154.473 208.616 150.937C209.461 145.026 207.711 140.042 203.428 136.529C194.74 129.432 185.027 127.77 174.711 128.364C156.673 129.432 145.633 132.067 127.835 139.947C132.762 136.6 137.508 132.755 142.958 130.714ZM132.581 130.737C125.08 135.39 117.6 140.303 109.395 144.457C112.291 138.974 122.989 132.636 132.581 130.737ZM126.589 137.265C114.583 147.02 101.914 154.877 87.0128 156.063C100.265 150.011 113.94 145.121 126.589 137.265ZM127.614 152.337C123.11 154.544 118.324 155.897 114.282 159.529C110.722 162.757 106.479 163.991 101.934 163.469C98.1134 163.018 94.3327 161.903 90.4314 162.448C93.2468 160.478 96.1828 160.17 99.3602 160.027C105.474 159.766 111.547 159.529 117.157 155.019C120.878 152.028 125.865 151.126 130.349 149.56C139.258 146.427 148.448 144.86 157.517 142.605C159.971 141.988 161.459 144.101 163.45 144.694C167.371 145.881 171.353 146.166 175.395 146.237C181.367 146.332 183.982 147.97 188.124 153.88C183.157 151.316 178.874 149.75 174.188 149.702C171.453 149.679 168.638 148.705 166.044 147.59C162.002 145.833 157.94 145.335 153.878 146.664C145.25 149.489 136.02 148.207 127.614 152.337ZM160.494 150.699C157.859 150.509 155.245 150.058 152.631 149.702C156.512 147.495 160.353 147.329 164.154 148.777C168.437 150.391 172.74 151.435 177.245 151.862C185.208 152.622 191.442 157.678 196.792 164.371C197.435 165.178 198.501 166.317 197.656 167.433C196.731 168.644 195.846 167.291 195.143 166.555C185.188 156.396 173.484 151.625 160.494 150.675V150.699ZM197.053 169.593C189.673 183.953 178.854 188.487 165.079 186.232C176.441 181.532 188.325 179.989 197.053 169.593ZM130.932 219.106C128.238 217.516 126.669 215.759 125.563 213.386C125.02 212.246 124.678 210.965 124.196 209.778C122.024 204.342 122.225 204.58 125.784 200.212C128.942 196.296 131.717 191.952 136.261 190.124C136.945 189.84 137.569 189.033 138.433 189.579C127.996 200.426 126.227 206.882 130.932 219.082V219.106ZM149.956 216.258C148.569 218.038 151.404 221.432 148.689 222.263C147.02 222.761 145.009 221.527 143.139 221.195C136.382 219.961 131.596 213.386 132.139 205.885C132.481 201.043 134.673 197.459 137.991 194.919C144.828 189.697 152.389 187.324 160.534 187.514C165.742 187.727 170.87 189.816 176.159 188.368C183.459 186.35 190.759 184.357 195.042 175.93C195.645 174.744 196.329 173.13 197.837 173.747C199.084 174.269 199.466 175.812 199.667 177.283C200.029 179.776 199.506 181.864 197.998 183.787C193.715 189.223 188.084 191.881 182.393 194.136C178.19 195.797 173.706 196.486 169.342 197.601C160.333 199.904 153.053 204.793 150.057 215.925C150.016 216.044 150.016 216.21 149.956 216.305V216.258ZM174.369 253.523C171.353 252.835 169.221 250.532 166.848 248.633C166.708 248.539 166.607 248.396 166.506 248.254C166.506 248.254 165.782 247.684 164.556 245.595C163.49 245.595 162.444 245.619 161.378 245.643C161.962 245.643 163.128 245.619 164.556 245.595C164.053 244.717 163.45 243.578 162.786 242.106C162.444 241.347 160.011 238.19 158.02 235.674C158.02 235.674 158.02 235.674 158 235.674C156.753 234.083 155.647 232.73 155.265 232.303C153.777 230.998 153.073 229.075 153.194 226.702C153.274 225.135 152.771 223.972 152.208 222.643C149.996 217.373 152.289 210.11 156.974 207.286C153.797 216.305 153.254 224.969 159.267 233.205C159.508 233.466 159.87 233.846 160.313 234.297C161.439 235.436 163.289 237.145 165.642 238.759C167.793 240.207 170.026 243.174 171.574 245.453C172.539 245.453 173.263 245.429 173.565 245.429C172.901 245.429 172.238 245.453 171.574 245.453C172.76 247.233 173.324 248.206 173.324 248.206L174.389 249.63C177.426 254.188 181.991 253.998 186.375 254.093C182.353 254.378 178.371 254.378 174.389 253.476L174.369 253.523ZM180.885 251.98C177.868 251.363 174.993 248.61 173.686 245.453C173.686 245.453 170.89 237.667 168.678 236.243C166.446 234.819 163.892 234.321 162.002 233.276C157.839 230.214 156.291 225.657 156.713 219.723C157.015 215.474 155.748 210.893 159.609 207.594C159.669 210.775 159.046 213.813 158.865 216.851C158.543 222.477 162.183 226.132 165.119 229.835C165.38 230.167 165.642 230.452 165.923 230.76C165.923 230.76 170.267 237.478 173.967 240.373C177.245 242.937 180.08 245.002 182.614 246.307C186.314 248.206 189.934 250.271 195.203 251.79C190.397 251.482 185.651 252.977 180.865 252.004L180.885 251.98ZM219.375 254.734C225.026 253.333 229.872 255.446 232.144 259.433C232.265 259.647 232.346 259.908 232.506 260.098C233.934 261.783 236.347 262.519 236.227 265.7C236.146 267.788 235.422 269.687 232.346 274.387C235.101 261.807 227.037 258.959 219.375 254.71V254.734ZM223.477 262.044C227.761 268.429 225.77 274.055 217.806 278.588C219.335 272.82 225.005 269.141 223.477 262.044ZM215.996 282.03C218.49 280.891 220.823 279.277 222.834 277.164C228.766 270.898 229.108 267.598 224.342 259.671C227.097 260.62 228.846 262.234 230.133 264.442C231.662 267.1 232.607 270.281 230.536 272.82C224.684 280.084 218.349 286.492 208.194 285.021C211.19 283.881 213.623 283.098 215.976 282.006L215.996 282.03ZM206.062 289.507C212.155 288.795 218.289 288.177 223.94 284.973C224.684 284.546 225.689 283.502 226.333 284.593C227.137 285.97 226.091 287.299 225.227 287.869C221.627 290.29 217.746 291.904 213.603 292.284C207.349 292.83 201.135 292.094 193.936 290.48C198.521 289.293 202.322 289.934 206.062 289.507ZM185.55 291.524C180.985 296.248 174.973 298.123 170.106 302.277C174.691 297.624 178.532 291.5 185.55 291.524ZM116.956 359.575C114.563 356.038 112.834 350.555 114.382 345.144C115.488 341.275 115.106 337.501 113.196 334.154C111.828 331.757 112.049 329.858 114.04 328.481C116.112 327.057 116.835 324.209 119.249 321.93C118.404 325.134 116.876 327.104 117.298 330C119.691 323.805 122.808 318.227 128.016 315.308C133.084 312.459 137.729 308.211 144.245 307.783C140.605 310.845 136.804 312.269 133.687 315.094C129.585 318.797 125.744 322.832 122.285 327.318C120.154 330.071 118.505 333.252 118.746 337.287C118.786 337.928 118.686 338.616 118.525 339.233C115.589 351.125 117.499 357.866 126.026 365.39C127.634 366.814 129.364 368.025 131.294 369.568C124.718 369.568 120.314 364.607 116.916 359.622L116.956 359.575ZM125.985 363.017C122.064 359.385 119.771 354.638 118.746 348.87C118.263 346.141 118.223 343.672 119.49 341.275C119.832 340.61 120.274 339.827 120.234 339.115C119.912 330.356 125.241 325.704 129.887 320.672C135.739 314.334 142.797 310.323 150.177 307.19C155.587 304.888 160.815 301.683 167.592 302.087C165.561 303.44 164.294 304.84 162.846 305.172C155.728 306.786 149.574 311.106 143.34 315.023C136.824 319.129 130.41 324.209 126.951 331.946C124.537 337.335 122.909 343.886 123.954 350.555C125 357.368 128.318 362.21 133.024 366.031C134.009 366.815 135.155 367.479 135.859 369.283C131.837 368.357 128.881 365.723 125.965 363.017H125.985ZM126.207 353.902C124.879 349.63 124.698 345.452 126.267 341.227C126.528 340.515 126.971 339.756 126.971 339.02C126.951 331.187 132.059 327.721 136.06 322.951C140.867 317.23 147.744 315.925 152.671 310.655C153.556 309.706 155.144 309.682 156.411 309.255C149.313 316.304 140.364 320.506 134.532 329.146C129.545 336.575 125.463 344.859 128.6 355.184C129.344 357.652 130.45 359.646 132.34 360.999C134.09 362.233 135.236 364.037 136.442 366.648C131.757 363.183 127.976 359.67 126.186 353.878L126.207 353.902ZM138.795 366.435C136.161 363.776 133.949 360.572 131.737 357.486C129.082 353.783 128.499 348.823 129.706 343.981C130.369 341.346 131.536 338.901 132.481 336.361C132.762 335.626 133.104 334.842 133.949 335.151C134.592 335.388 134.773 336.076 134.452 336.741C127.494 350.555 135.316 359.219 142.576 367.622C147.865 373.745 154.601 377.662 161.318 381.317C164.154 382.86 166.969 384.521 169.463 386.776C172.68 389.672 176.4 390.218 180.282 390.028C182.976 389.886 185.611 390.147 188.446 392.022C179.296 394.348 170.77 393.494 163.269 387.821C154.722 381.365 146.517 374.244 138.775 366.411L138.795 366.435ZM193.272 397.505C184.907 397.861 176.581 397.861 168.377 395.298C165.762 394.467 163.309 393.304 160.956 391.785C159.388 390.788 158.322 389.387 158.382 386.705C160.554 386.919 161.64 388.841 163.188 389.791C171.132 394.728 179.437 395.843 188.205 393.802C195.565 392.069 202.583 393.209 209.622 398.478C203.77 397.552 198.521 397.291 193.272 397.505ZM255.23 469.282C273.048 469.449 288.633 461.188 304.479 451.86C302.87 456.56 299.874 459.242 296.616 461.663C288.512 467.716 279.342 468.618 270.132 469.971C265.104 470.706 260.238 471.229 255.21 469.259L255.23 469.282ZM286.059 459.954C291.548 454.661 297.943 452.667 301.865 446.496C302.408 445.641 303.192 444.787 304.057 446.069C304.982 447.422 304.378 448.727 303.413 449.463C300.155 451.979 296.857 454.495 293.439 456.679C291.408 457.984 289.095 458.649 286.059 459.954ZM312.261 447.825C316.927 450.175 317.329 452.572 313.689 456.821C312.563 458.15 311.578 459.574 311.015 461.307C310.512 462.874 309.667 464.155 308.36 464.701C304.399 466.41 301.181 469.472 297.823 472.297C294.766 474.884 291.086 475.074 287.547 475.406C284.45 475.715 281.293 475.477 278.176 475.477C282.037 474.599 285.556 472.083 289.618 472.724C291.729 473.056 293.901 472.202 295.631 470.683C298.285 468.38 300.698 466.268 304.117 465.01C310.069 462.826 311.819 453.901 308.4 446.899C309.848 446.804 311.075 447.232 312.261 447.825ZM306.369 452.121C306.49 451.362 306.771 450.436 307.556 450.46C308.581 450.507 308.601 451.647 308.682 452.549C309.024 455.919 306.108 461.544 303.011 462.945C300.256 464.203 297.702 465.627 295.771 468.38C294.163 470.683 291.649 470.801 289.598 470.683C283.786 470.303 278.497 473.602 272.766 473.484C271.117 473.46 269.468 474.053 267.779 472.819C272.243 471.276 276.929 471.039 281.473 469.947C288.452 468.262 295.148 466.007 300.739 460.571C303.112 458.269 305.686 456.061 306.349 452.121H306.369ZM314.574 415.331C315.097 414.642 315.801 414.714 316.424 415.022C318.757 416.161 320.265 418.084 320.446 420.837C320.305 422.784 319.984 424.303 319.179 425.656C318.375 427.009 317.188 428.433 315.942 428.029C314.252 427.46 315.539 425.585 315.559 424.303C315.6 421.953 316.082 419.579 314.654 417.491C314.212 416.85 314.011 416.066 314.554 415.354L314.574 415.331ZM310.914 415.473C315.318 418.938 315.097 427.317 310.492 430.379C309.607 430.973 308.662 431.803 308.38 429.643C307.335 421.265 302.649 416.043 297.038 411.675C296.475 411.248 295.912 410.821 295.389 410.322C295.249 410.204 295.249 409.895 295.068 409.325C300.517 411.224 306.148 411.723 310.914 415.473ZM254.024 402.537C247.508 401.516 241.194 404.009 234.799 405.148C228.203 406.311 221.768 405.148 215.011 401.065C217.303 400.163 218.631 400.614 219.938 400.875C229.691 402.703 239.484 403.059 249.298 401.564C253.079 400.994 256.92 401.042 260.66 401.92C267.417 403.51 274.254 402.181 281.031 402.822C283.344 403.035 285.576 403.653 287.587 405.338C283.484 404.483 279.402 406.264 275.36 405.148C268.342 403.178 261.122 403.676 254.044 402.584L254.024 402.537ZM277.894 445.902C284.309 428.314 277.23 416.945 265.245 407.094C267.779 407.047 269.327 407.45 270.594 408.424C274.837 411.794 279.503 414.405 283.303 418.606C288.17 424.018 288.854 427.958 285.636 435.008C285.274 435.791 285.053 436.669 284.751 437.524C289.517 434.035 290.503 424.611 286.541 419.532C283.645 415.829 280.307 412.743 276.527 410.346C275.28 409.563 274.053 408.613 273.329 407.427C283.665 405.409 292.815 408.471 300.558 417.087C301.804 418.464 302.87 419.912 303.876 421.526C308.199 428.528 307.998 430.355 302.026 435.055C299.834 436.788 298.828 438.829 300.155 441.701C301.302 444.193 300.678 446.045 298.989 447.54C290.623 454.993 281.896 461.426 271.097 462.85C266.914 463.396 262.852 465.247 258.005 463.657C260.378 461.924 262.309 460.334 264.36 459.052C272.625 453.878 280.005 447.564 284.651 437.619C280.951 438.426 280.81 443.386 277.874 445.879L277.894 445.902ZM245.899 459.266C254.748 460.975 262.329 457.391 269.629 452.192C270.011 451.931 270.433 451.742 270.916 451.457C268.382 456.655 254.929 463.562 240.912 467.36C229.792 470.374 218.651 470.184 207.128 468.618C209.601 466.814 212.075 466.79 214.508 466.932C221.808 467.383 228.645 465.793 235.161 461.616C238.378 459.527 242.219 458.554 245.899 459.266ZM203.729 464.037C207.53 461.355 211.713 459.883 216.097 459.479C221.426 458.981 226.795 458.791 232.144 458.554C232.969 458.53 233.814 458.981 235.523 459.432C230.154 462.874 225.227 464.701 219.958 464.986C214.77 465.271 209.481 463.965 204.554 467.027C203.79 467.502 202.925 467.122 202.603 466.125C202.241 464.986 203.066 464.488 203.729 464.013V464.037ZM183.6 515.045C182.634 513.597 181.629 512.197 180.141 511.39C179.397 510.986 178.592 510.25 178.854 509.325C179.879 505.361 177.888 503.272 175.616 501.16C174.872 500.471 174.289 499.451 174.229 497.647C176.28 499.356 177.909 501.088 179.96 502.038C181.146 502.584 181.005 503.818 180.664 505.076C179.799 508.209 180.985 510.251 183.157 512.007C185.872 514.214 188.426 516.707 191.04 519.08C187.923 518.962 185.43 517.727 183.6 515.021V515.045ZM191.925 517.371C188.909 515.14 186.093 512.505 183.177 510.108C181.689 508.898 181.609 507.355 182.192 505.575C182.956 503.296 182.232 501.895 180.523 500.709C173.907 496.104 173.022 491.831 178.271 485.067C181.649 480.699 184.706 475.715 189.773 473.27C193.152 471.632 196.49 470.588 200.612 470.089C194.64 474.101 189.431 478.088 186.616 485.09C183.177 493.635 185.771 504.15 193.172 511.105C197.737 515.401 203.146 518.06 208.415 520.979C209.481 521.573 210.868 521.406 211.894 523.495C204.695 522.641 197.938 521.786 191.965 517.371H191.925ZM215.272 521.193C206.223 518.131 197.254 514.618 190.92 505.741C184.002 496.033 185.208 486.681 193.212 477.993C200.673 469.899 209.843 469.994 219.113 471.442C221.526 471.822 223.879 472.653 226.373 472.083C219.355 476.664 212.155 480.557 205.559 485.779C203.971 487.037 202.483 488.461 201.417 490.36C200.874 491.333 200.049 492.615 200.23 493.54C201.015 497.932 200.311 503.059 203.046 506.571C206.907 511.508 210.607 516.968 216.72 518.439C217.364 518.582 217.947 519.033 218.55 519.389C218.711 519.484 218.751 519.816 218.872 520.101C217.927 521.62 216.479 521.62 215.272 521.216V521.193ZM225.005 517.704C224.664 519.246 223.497 518.843 222.492 518.606C214.77 516.707 208.676 511.675 203.79 504.601C201.839 501.777 203.569 497.504 201.678 495.131C201.578 492.876 202.322 491.713 203.126 490.621C205.962 486.752 209.883 484.639 213.442 481.957C213.925 481.601 214.528 481.293 214.951 481.957C215.494 482.812 214.87 483.381 214.388 483.904C213.322 485.043 212.296 486.277 211.15 487.322C203.367 494.419 206.525 505.171 213.483 510.132C216.519 512.316 219.656 514.333 223.115 515.591C224 515.923 225.388 516.066 225.046 517.704H225.005ZM306.611 545.546C306.932 550.269 311.236 550.483 314.192 552.738C308.601 552.928 304.137 549.818 303.132 545.356C302.086 540.799 303.232 537.476 307.073 535.149C302.106 538.544 306.369 542.128 306.611 545.546ZM328.007 496.579C329.958 497.742 331.949 498.881 333.879 500.092C334.985 500.804 335.005 502.014 334.523 503.177C332.995 506.856 330.32 509.254 327.505 511.437C327.022 511.817 326.419 511.936 325.956 511.39C325.453 510.796 325.815 510.179 326.117 509.633C326.7 508.518 327.303 507.402 327.867 506.263C329.415 503.13 329.093 500.044 328.007 496.555V496.579ZM327.303 500.804C328.088 503.296 325.473 509.538 323.261 510.44C321.693 511.081 321.673 509.705 322.075 508.755C323.865 504.388 321.793 501.255 319.702 497.718C323.322 496.294 326.318 497.552 327.324 500.804H327.303ZM323 494.727C317.048 496.768 311.598 496.009 306.269 496.531C300.819 497.077 295.349 497.148 290.06 499.261C284.912 501.302 280.388 505.171 274.435 506.927C289.437 494.917 304.881 489.292 323 494.727ZM250.283 514.024C257.503 513.051 264.38 509.823 271.68 509.396C276.909 509.087 281.152 505.598 285.697 503.13C294.625 498.288 304.077 497.765 313.589 498.145C316.565 498.264 320.004 499.047 320.909 503.676C321.673 507.568 320.205 510.678 316.444 513.692C315.358 514.547 314.534 515.876 313.609 516.991C312.543 518.273 311.759 520.006 309.647 520.338C310.995 515.686 310.331 514.381 306.349 514.404C303.031 514.428 300.075 513.502 296.958 512.221C291.528 510.013 285.878 511.247 280.388 512.363C276.888 513.075 273.389 514.024 270.031 515.52C262.792 518.724 255.532 517.561 248.132 515.52C248.514 514.119 249.519 514.143 250.263 514.024H250.283ZM307.636 521.834C299.894 514.238 290.463 514.76 281.132 514.618C287.486 512.838 293.74 511.817 299.814 515.425C301.583 516.469 303.534 516.137 305.424 516.113C307.596 516.113 309.748 516.018 308.099 519.864C307.877 520.362 308.38 521.145 307.636 521.834ZM286.079 522.712C285.435 522.902 284.731 522.997 284.088 522.854C275.762 521.193 267.397 522.451 259.051 522.261C255.673 522.19 252.817 520.932 249.962 518.511C251.751 518.083 253.26 518.582 254.748 518.867C262.329 520.409 269.77 519.84 277.311 518.012C286.038 515.876 294.867 515.781 303.232 520.433C304.197 520.979 306.148 521.359 305.223 523.234C304.479 524.729 302.629 525.916 301.141 524.682C296.355 520.718 291.307 521.122 286.079 522.688V522.712ZM283.545 550.673C279.101 546.851 279.282 540.727 284.409 538.354C289.678 535.909 294.786 533.013 300.256 530.996C307.013 528.48 313.186 524.16 319.601 519.009C318.777 524.278 315.781 526.605 312.684 528.408C310.009 529.975 306.932 530.497 304.157 531.85C299.271 534.247 294.243 536.574 290.684 541.463C287.144 546.329 287.265 547.445 290.503 552.833C287.929 552.928 285.616 552.453 283.545 550.673ZM291.79 542.674C293.901 539.208 297.3 538.401 300.397 535.814C299.492 540.158 298.888 544.027 301.543 547.445C303.835 550.412 306.47 552.714 309.667 554.257C304.278 555.016 299.13 554.114 294.143 552.144C289.457 550.293 288.954 547.373 291.79 542.697V542.674ZM295.389 554.565C305.746 557.366 315.68 556.369 325.494 557.58C318.918 562.659 302.106 561.283 295.389 554.565ZM514.062 604.031C514.726 603.627 515.369 603.224 516.033 602.82L514.082 604.055C514.203 604.126 518.044 606.642 520.055 607.734C523.715 609.751 524.64 614.688 525.102 616.231C525.565 617.774 526.289 619.08 526.289 619.08C526.289 619.08 518.667 613.43 517.762 612.101C516.857 610.772 513.781 605.503 512.956 604.767L510.985 606.001C511.629 605.574 512.293 605.17 512.936 604.767C510.764 602.939 509.115 600.874 508.512 598.809C510.241 601.064 512.091 602.749 514.062 604.055V604.031ZM537.932 573.791C535.64 575.453 533.006 575.429 530.472 575.738C528.059 576.046 525.605 575.809 523.172 575.809C527.616 572.533 532.684 572.723 537.369 571.157C538.053 570.919 538.817 570.991 538.978 571.964C539.139 572.842 538.495 573.364 537.912 573.791H537.932ZM535.057 570.255C533.207 570.658 531.336 570.801 528.682 571.181C531.92 569.282 534.473 567.763 537.027 566.291C539.561 564.843 541.733 562.849 543.764 560.571C546.117 557.936 546.861 554.945 546.037 551.266C545.795 550.198 545.031 549.059 545.876 547.943C546.057 547.706 546.58 547.54 546.781 547.682C548.027 548.631 547.143 550.056 547.303 551.266C547.364 551.788 547.203 552.358 547.303 552.833C549.516 562.232 542.638 568.57 535.057 570.231V570.255ZM549.415 537.404C548.691 538.615 548.229 539.09 547.223 537.594C544.87 534.153 542.015 531.494 538.133 530.687C536.786 530.402 535.62 529.382 534.815 528.124C530.15 520.765 523.594 519.175 516.355 519.318C512.996 519.389 509.658 518.867 506.662 516.754C505.455 515.9 504.128 515.876 502.761 516.184C490.574 518.867 478.287 521.074 466.583 526.248C463.044 527.815 459.303 528.242 455.543 528.859C463.627 524.896 470.344 517.751 478.689 514.737C492.102 509.847 505.516 504.388 519.894 505.052C528.481 505.456 537.027 505.598 544.85 511.129C550.863 515.377 553.075 519.958 551.888 528.076C551.406 531.328 551.084 534.58 549.435 537.404H549.415ZM568.157 516.825C566.589 519.08 566.689 522.474 564.377 524.112C563.653 524.611 563.009 525.94 562.084 525.085C561.159 524.231 561.501 522.949 561.963 521.834C562.104 521.478 562.285 521.122 562.506 520.837C565.925 516.944 566.971 512.458 564.316 506.643C569.545 508.565 570.912 512.861 568.157 516.825ZM541.814 496.721C547.364 498.098 553.075 498.786 558.263 501.943C564.377 505.669 565.865 513.004 561.561 519.175C560.234 521.098 559.973 523.092 560.274 525.441C561.32 533.345 557.821 540.063 550.742 543.172C553.839 538.401 556.433 533.844 557.278 528.314C558.324 521.501 558.002 515.449 553.216 509.989C543.08 498.454 530.995 495.249 517.561 496.626C514.364 496.958 511.186 497.67 508.009 498.216C519.23 493.564 530.492 493.92 541.793 496.745L541.814 496.721ZM487.96 505.954C498.095 502.204 508.472 499.617 519.029 498.216C529.647 496.816 539.843 499.332 548.269 506.809C557.338 514.855 559.108 522.498 553.698 535.268C553.356 536.051 553.115 537.025 551.285 537.143C553.678 533.535 553.115 529.714 553.618 526.177C554.463 520.267 552.713 515.282 548.43 511.77C539.742 504.673 530.029 503.011 519.713 503.604C501.675 504.673 490.634 507.307 472.837 515.188C477.764 511.841 482.51 507.996 487.96 505.954ZM477.583 505.978C470.082 510.63 462.601 515.544 454.397 519.697C457.292 514.214 467.991 507.877 477.583 505.978ZM405.812 535.505L384.294 540.419C390.589 533.678 397.868 532.728 405.812 535.505ZM384.294 536.645C377.718 542.009 370.057 542.959 362.335 543.908C368.91 538.283 377.176 539.849 384.294 536.645ZM373.697 545.047C364.325 550.364 355.357 553.782 345.905 555.23C355.035 552.429 362.395 543.148 373.697 545.047ZM351.576 562.374C360.686 561.852 369.212 562.446 377.618 563.134C370.72 565.674 360.867 565.46 351.576 562.374ZM421.417 541.321C413.876 544.691 409.23 553.782 400.845 555.539C390.126 557.793 379.75 562.018 368.488 560.571C359.459 559.408 350.249 560.998 340.797 558.173C345.382 557.295 349.565 556.678 353.687 555.562C361.691 553.402 369.212 549.771 376.733 546.068C387.391 540.846 398.693 538.923 409.954 536.882C413.413 536.265 416.852 537.404 420.311 537.689C421.256 537.76 422.141 538.093 422.342 539.351C422.483 540.205 422.06 541.012 421.417 541.297V541.321ZM432.015 531.328C445.267 525.275 458.921 520.386 471.57 512.529C459.565 522.285 446.896 530.141 432.015 531.328ZM472.596 527.601C468.091 529.809 463.305 531.162 459.263 534.793C455.704 538.021 451.461 539.256 446.916 538.734C443.095 538.283 439.314 537.167 435.413 537.713C438.229 535.743 441.165 535.434 444.342 535.292C450.455 535.031 456.528 534.793 462.139 530.284C465.859 527.293 470.846 526.391 475.331 524.824C484.239 521.691 493.43 520.125 502.499 517.87C504.952 517.253 506.441 519.365 508.431 519.958C512.353 521.145 516.335 521.43 520.377 521.501C526.349 521.596 528.963 523.234 533.106 529.144C528.139 526.581 523.856 525.014 519.17 524.967C516.435 524.943 513.62 523.97 511.026 522.854C506.984 521.098 502.921 520.599 498.859 521.929C490.232 524.753 481.002 523.471 472.596 527.601ZM505.475 525.964C502.841 525.774 500.227 525.323 497.612 524.967C501.494 522.759 505.335 522.593 509.135 524.041C513.419 525.655 517.722 526.699 522.227 527.127C530.19 527.886 536.424 532.942 541.773 539.636C542.417 540.443 543.483 541.582 542.638 542.697C541.713 543.908 540.828 542.555 540.124 541.819C530.17 531.66 518.466 526.889 505.475 525.94V525.964ZM542.035 544.857C534.654 559.218 523.835 563.751 510.06 561.496C521.422 556.797 533.307 555.254 542.035 544.857ZM475.914 594.37C473.219 592.78 471.651 591.024 470.545 588.65C470.002 587.511 469.66 586.229 469.177 585.042C467.005 579.607 467.207 579.844 470.766 575.477C473.923 571.56 476.698 567.217 481.243 565.389C481.927 565.104 482.55 564.297 483.415 564.843C472.978 575.69 471.208 582.146 475.914 594.347V594.37ZM494.938 591.522C493.55 593.302 496.386 596.697 493.671 597.527C492.002 598.026 489.991 596.792 488.121 596.459C481.364 595.225 476.578 588.65 477.121 581.15C477.463 576.307 479.655 572.723 482.973 570.184C489.81 564.962 497.371 562.588 505.516 562.778C510.724 562.992 515.852 565.08 521.141 563.633C528.441 561.615 535.74 559.621 540.024 551.195C540.627 550.008 541.311 548.394 542.819 549.011C544.066 549.533 544.448 551.076 544.649 552.548C545.011 555.04 544.488 557.129 542.98 559.051C538.697 564.487 533.066 567.145 527.375 569.4C523.172 571.062 518.687 571.75 514.324 572.866C505.314 575.168 498.035 580.058 495.038 591.19C494.998 591.309 494.998 591.475 494.938 591.57V591.522ZM519.351 628.788C516.335 628.099 514.203 625.797 511.83 623.898C511.689 623.803 511.589 623.661 511.488 623.518C511.488 623.518 510.764 622.949 509.537 620.86C508.472 620.86 507.426 620.883 506.36 620.907C506.943 620.907 508.11 620.884 509.537 620.86C509.035 619.982 508.431 618.842 507.768 617.371C507.426 616.611 504.993 613.454 503.002 610.938C503.002 610.938 503.002 610.938 502.982 610.938C501.735 609.348 500.629 607.995 500.247 607.568C498.759 606.262 498.055 604.34 498.176 601.966C498.256 600.399 497.753 599.236 497.19 597.907C494.978 592.638 497.271 585.375 501.956 582.55C498.779 591.57 498.236 600.233 504.249 608.47C504.49 608.731 504.852 609.11 505.294 609.561C506.42 610.701 508.271 612.41 510.623 614.024C512.775 615.472 515.007 618.439 516.556 620.717C517.521 620.717 518.245 620.694 518.547 620.694C517.883 620.694 517.219 620.717 516.556 620.717C517.742 622.498 518.305 623.471 518.305 623.471L519.371 624.895C522.408 629.452 526.973 629.262 531.357 629.357C527.335 629.642 523.353 629.642 519.371 628.74L519.351 628.788ZM525.867 627.245C522.85 626.628 519.974 623.874 518.667 620.717C518.667 620.717 515.872 612.932 513.66 611.508C511.428 610.084 508.874 609.585 506.984 608.541C502.821 605.479 501.272 600.922 501.695 594.988C501.996 590.739 500.729 586.158 504.591 582.859C504.651 586.039 504.027 589.077 503.846 592.116C503.525 597.741 507.165 601.396 510.101 605.099C510.362 605.431 510.623 605.716 510.905 606.025C510.905 606.025 515.249 612.742 518.949 615.638C522.227 618.201 525.062 620.266 527.596 621.572C531.296 623.471 534.916 625.536 540.185 627.055C535.378 626.746 530.633 628.242 525.846 627.268L525.867 627.245ZM564.356 629.998C570.007 628.598 574.854 630.71 577.126 634.698C577.247 634.911 577.327 635.172 577.488 635.362C578.916 637.048 581.329 637.783 581.208 640.964C581.128 643.053 580.404 644.952 577.327 649.651C580.082 637.071 572.018 634.223 564.356 629.974V629.998ZM568.459 637.309C572.742 643.694 570.751 649.319 562.788 653.853C564.316 648.085 569.987 644.406 568.459 637.309ZM560.978 657.294C563.472 656.155 565.804 654.541 567.815 652.428C573.748 646.162 574.09 642.863 569.324 634.935C572.079 635.885 573.828 637.499 575.115 639.706C576.643 642.364 577.589 645.545 575.517 648.085C569.665 655.348 563.331 661.757 553.175 660.285C556.172 659.146 558.605 658.362 560.958 657.271L560.978 657.294ZM551.044 664.771C557.137 664.059 563.271 663.442 568.921 660.238C569.665 659.81 570.671 658.766 571.314 659.858C572.119 661.235 571.073 662.564 570.208 663.133C566.609 665.554 562.728 667.168 558.585 667.548C552.331 668.094 546.117 667.358 538.918 665.744C543.503 664.558 547.303 665.198 551.044 664.771ZM530.532 666.789C525.967 671.512 519.954 673.387 515.088 677.541C519.673 672.889 523.514 666.765 530.532 666.789ZM461.938 734.839C459.545 731.303 457.815 725.82 459.364 720.408C460.47 716.539 460.088 712.765 458.177 709.418C456.81 707.021 457.031 705.122 459.022 703.745C461.093 702.321 461.817 699.473 464.23 697.194C463.386 700.399 461.857 702.369 462.28 705.265C464.673 699.07 467.79 693.492 472.998 690.572C478.066 687.724 482.711 683.475 489.227 683.048C485.587 686.11 481.786 687.534 478.669 690.358C474.567 694.061 470.726 698.096 467.267 702.582C465.135 705.336 463.486 708.516 463.728 712.552C463.768 713.192 463.667 713.881 463.506 714.498C460.57 726.39 462.481 733.131 471.007 740.655C472.616 742.079 474.346 743.289 476.276 744.832C469.7 744.832 465.296 739.871 461.898 734.887L461.938 734.839ZM470.967 738.281C467.046 734.65 464.753 729.902 463.728 724.135C463.245 721.405 463.205 718.936 464.472 716.539C464.814 715.875 465.256 715.091 465.216 714.379C464.894 705.621 470.223 700.968 474.868 695.936C480.72 689.599 487.779 685.588 495.159 682.454C500.569 680.152 505.797 676.948 512.574 677.351C510.543 678.704 509.276 680.105 507.828 680.437C500.709 682.051 494.556 686.371 488.322 690.287C481.806 694.394 475.391 699.473 471.932 707.211C469.519 712.599 467.89 719.15 468.936 725.82C469.982 732.632 473.3 737.474 478.006 741.296C478.991 742.079 480.137 742.744 480.841 744.547C476.819 743.622 473.863 740.987 470.947 738.281H470.967ZM471.188 729.167C469.861 724.894 469.68 720.717 471.249 716.492C471.51 715.78 471.952 715.02 471.952 714.284C471.932 706.451 477.04 702.986 481.042 698.215C485.848 692.495 492.726 691.189 497.653 685.92C498.537 684.97 500.126 684.947 501.393 684.519C494.294 691.569 485.346 695.77 479.514 704.41C474.527 711.839 470.444 720.123 473.581 730.448C474.325 732.917 475.431 734.911 477.322 736.264C479.071 737.498 480.218 739.302 481.424 741.913C476.739 738.447 472.958 734.934 471.168 729.143L471.188 729.167ZM483.777 741.699C481.143 739.041 478.931 735.836 476.718 732.751C474.064 729.048 473.481 724.087 474.687 719.245C475.351 716.61 476.517 714.166 477.463 711.626C477.744 710.89 478.086 710.107 478.931 710.415C479.574 710.653 479.755 711.341 479.433 712.006C472.475 725.82 480.298 734.483 487.558 742.886C492.846 749.01 499.583 752.926 506.3 756.582C509.135 758.124 511.951 759.786 514.444 762.041C517.662 764.937 521.382 765.483 525.263 765.293C527.958 765.15 530.592 765.411 533.428 767.286C524.278 769.613 515.751 768.758 508.25 763.085C499.704 756.629 491.499 749.508 483.757 741.675L483.777 741.699ZM538.254 772.769C529.888 773.126 521.563 773.126 513.358 770.562C510.744 769.731 508.291 768.568 505.938 767.049C504.369 766.052 503.303 764.652 503.364 761.97C505.536 762.183 506.622 764.106 508.17 765.055C516.113 769.992 524.419 771.108 533.186 769.067C540.547 767.334 547.565 768.473 554.603 773.743C548.751 772.817 543.503 772.556 538.254 772.769ZM600.212 844.547C618.029 844.713 633.614 836.453 649.461 827.125C647.852 831.824 644.856 834.507 641.598 836.928C633.494 842.98 624.324 843.882 615.113 845.235C610.086 845.971 605.219 846.493 600.192 844.523L600.212 844.547ZM631.04 835.219C636.53 829.926 642.925 827.932 646.846 821.76C647.389 820.906 648.174 820.051 649.038 821.333C649.963 822.686 649.36 823.991 648.395 824.727C645.137 827.243 641.839 829.759 638.42 831.943C636.389 833.249 634.077 833.913 631.04 835.219ZM657.243 823.09C661.909 825.439 662.311 827.837 658.671 832.085C657.545 833.415 656.559 834.839 655.996 836.572C655.494 838.138 654.649 839.42 653.342 839.966C649.38 841.675 646.163 844.737 642.804 847.561C639.748 850.148 636.068 850.338 632.528 850.671C629.431 850.979 626.274 850.742 623.157 850.742C627.018 849.864 630.537 847.348 634.6 847.989C636.711 848.321 638.883 847.466 640.612 845.947C643.267 843.645 645.68 841.532 649.099 840.274C655.051 838.091 656.801 829.166 653.382 822.164C654.83 822.069 656.057 822.496 657.243 823.09ZM651.351 827.386C651.472 826.626 651.753 825.701 652.537 825.724C653.563 825.772 653.583 826.911 653.664 827.813C654.005 831.184 651.09 836.809 647.993 838.209C645.238 839.467 642.684 840.891 640.753 843.645C639.144 845.947 636.631 846.066 634.58 845.947C628.768 845.567 623.479 848.867 617.748 848.748C616.099 848.724 614.45 849.318 612.76 848.083C617.225 846.541 621.91 846.303 626.455 845.211C633.433 843.526 640.13 841.271 645.72 835.836C648.093 833.533 650.667 831.326 651.331 827.386H651.351ZM659.556 790.595C660.079 789.907 660.782 789.978 661.406 790.287C663.739 791.426 665.247 793.348 665.428 796.102C665.287 798.048 664.965 799.567 664.161 800.92C663.356 802.273 662.17 803.697 660.923 803.294C659.234 802.724 660.521 800.849 660.541 799.567C660.581 797.217 661.064 794.844 659.636 792.755C659.194 792.114 658.993 791.331 659.536 790.619L659.556 790.595ZM655.896 790.738C660.3 794.203 660.079 802.582 655.474 805.644C654.589 806.237 653.644 807.068 653.362 804.908C652.316 796.529 647.631 791.307 642.02 786.94C641.457 786.513 640.894 786.085 640.371 785.587C640.23 785.468 640.23 785.16 640.049 784.59C645.499 786.489 651.13 786.987 655.896 790.738ZM599.005 777.801C592.49 776.781 586.176 779.273 579.781 780.412C573.185 781.575 566.75 780.412 559.993 776.33C562.285 775.428 563.612 775.879 564.92 776.14C574.673 777.968 584.466 778.324 594.28 776.828C598.06 776.259 601.901 776.306 605.642 777.184C612.399 778.775 619.236 777.445 626.013 778.086C628.325 778.3 630.558 778.917 632.569 780.602C628.466 779.748 624.384 781.528 620.342 780.412C613.324 778.442 606.104 778.941 599.026 777.849L599.005 777.801ZM622.876 821.167C629.291 803.579 622.212 792.209 610.227 782.359C612.761 782.311 614.309 782.715 615.576 783.688C619.819 787.059 624.484 789.669 628.285 793.871C633.152 799.282 633.835 803.223 630.618 810.272C630.256 811.055 630.035 811.934 629.733 812.788C634.499 809.299 635.484 799.876 631.523 794.796C628.627 791.094 625.289 788.008 621.508 785.611C620.261 784.827 619.035 783.878 618.311 782.691C628.647 780.674 637.797 783.735 645.539 792.352C646.786 793.728 647.852 795.176 648.857 796.79C653.181 803.792 652.98 805.62 647.007 810.32C644.815 812.052 643.81 814.094 645.137 816.966C646.283 819.458 645.66 821.309 643.971 822.805C635.605 830.258 626.877 836.69 616.079 838.114C611.896 838.66 607.834 840.512 602.987 838.921C605.36 837.189 607.291 835.598 609.342 834.317C617.607 829.142 624.987 822.828 629.633 812.883C625.932 813.69 625.792 818.651 622.856 821.143L622.876 821.167ZM590.881 834.53C599.729 836.239 607.311 832.655 614.611 827.457C614.993 827.196 615.415 827.006 615.898 826.721C613.364 831.919 599.91 838.826 585.894 842.624C574.773 845.639 563.633 845.449 552.11 843.882C554.583 842.078 557.057 842.055 559.49 842.197C566.79 842.648 573.627 841.058 580.143 836.88C583.36 834.791 587.201 833.818 590.881 834.53ZM548.711 839.301C552.512 836.619 556.695 835.147 561.079 834.744C566.408 834.245 571.777 834.056 577.126 833.818C577.951 833.794 578.795 834.245 580.505 834.696C575.135 838.138 570.208 839.966 564.94 840.251C559.751 840.535 554.463 839.23 549.536 842.292C548.771 842.767 547.907 842.387 547.585 841.39C547.223 840.251 548.048 839.752 548.711 839.277V839.301ZM528.581 890.31C527.616 888.862 526.611 887.461 525.122 886.654C524.378 886.251 523.574 885.515 523.835 884.589C524.861 880.625 522.87 878.537 520.598 876.424C519.854 875.736 519.271 874.715 519.21 872.911C521.261 874.62 522.89 876.353 524.942 877.302C526.128 877.848 525.987 879.083 525.645 880.341C524.781 883.474 525.967 885.515 528.139 887.271C530.854 889.479 533.408 891.971 536.022 894.345C532.905 894.226 530.411 892.992 528.581 890.286V890.31ZM536.907 892.636C533.89 890.405 531.075 887.77 528.159 885.373C526.671 884.162 526.59 882.619 527.174 880.839C527.938 878.56 527.214 877.16 525.505 875.973C518.889 871.368 518.004 867.096 523.252 860.331C526.631 855.964 529.687 850.979 534.755 848.534C538.133 846.897 541.472 845.852 545.594 845.354C539.622 849.365 534.413 853.353 531.598 860.355C528.159 868.9 530.753 879.415 538.154 886.369C542.718 890.666 548.128 893.324 553.397 896.244C554.463 896.837 555.85 896.671 556.876 898.76C549.676 897.905 542.92 897.051 536.947 892.636H536.907ZM560.254 896.457C551.205 893.395 542.236 889.882 535.901 881.005C528.984 871.297 530.19 861.945 538.194 853.258C545.654 845.164 554.825 845.259 564.095 846.707C566.508 847.087 568.861 847.917 571.355 847.348C564.336 851.929 557.137 855.821 550.541 861.043C548.952 862.301 547.464 863.725 546.399 865.624C545.856 866.597 545.031 867.879 545.212 868.805C545.996 873.196 545.292 878.323 548.027 881.836C551.888 886.773 555.589 892.232 561.702 893.704C562.346 893.846 562.929 894.297 563.532 894.653C563.693 894.748 563.733 895.081 563.854 895.365C562.909 896.884 561.461 896.884 560.254 896.481V896.457ZM569.987 892.968C569.645 894.511 568.479 894.107 567.473 893.87C559.751 891.971 553.658 886.939 548.771 879.866C546.821 877.041 548.55 872.769 546.66 870.395C546.559 868.14 547.303 866.977 548.108 865.885C550.943 862.016 554.865 859.904 558.424 857.222C558.907 856.866 559.51 856.557 559.932 857.222C560.475 858.076 559.852 858.646 559.369 859.168C558.303 860.307 557.278 861.542 556.132 862.586C548.349 869.683 551.506 880.435 558.464 885.396C561.501 887.58 564.638 889.598 568.097 890.856C568.982 891.188 570.369 891.33 570.027 892.968H569.987ZM651.592 920.81C651.914 925.534 656.218 925.747 659.174 928.002C653.583 928.192 649.119 925.083 648.113 920.62C647.068 916.063 648.214 912.74 652.055 910.414C647.088 913.808 651.351 917.392 651.592 920.81ZM672.989 871.843C674.94 873.006 676.931 874.145 678.861 875.356C679.967 876.068 679.987 877.279 679.505 878.442C677.976 882.121 675.302 884.518 672.486 886.702C672.004 887.082 671.4 887.2 670.938 886.654C670.435 886.061 670.797 885.444 671.099 884.898C671.682 883.782 672.285 882.667 672.848 881.527C674.397 878.394 674.075 875.308 672.989 871.819V871.843ZM672.285 876.068C673.069 878.56 670.455 884.803 668.243 885.705C666.675 886.346 666.654 884.969 667.057 884.02C668.846 879.652 666.775 876.519 664.684 872.982C668.303 871.558 671.3 872.816 672.305 876.068H672.285ZM667.982 869.992C662.029 872.033 656.58 871.273 651.25 871.796C645.801 872.342 640.331 872.413 635.042 874.525C629.894 876.567 625.369 880.436 619.417 882.192C634.419 870.182 649.863 864.556 667.982 869.992ZM595.265 889.289C602.484 888.316 609.362 885.088 616.662 884.66C621.89 884.352 626.133 880.863 630.678 878.394C639.607 873.552 649.058 873.03 658.57 873.41C661.547 873.528 664.985 874.312 665.89 878.94C666.654 882.833 665.186 885.942 661.426 888.957C660.34 889.811 659.516 891.14 658.59 892.256C657.525 893.538 656.74 895.27 654.629 895.603C655.976 890.95 655.313 889.645 651.331 889.669C648.013 889.692 645.057 888.767 641.94 887.485C636.51 885.278 630.859 886.512 625.369 887.627C621.87 888.34 618.371 889.289 615.013 890.784C607.773 893.989 600.514 892.826 593.113 890.784C593.495 889.384 594.501 889.408 595.245 889.289H595.265ZM652.618 897.098C644.876 889.503 635.444 890.025 626.113 889.882C632.468 888.102 638.722 887.082 644.795 890.689C646.565 891.734 648.516 891.401 650.406 891.378C652.578 891.378 654.729 891.283 653.08 895.128C652.859 895.626 653.362 896.41 652.618 897.098ZM631.06 897.976C630.417 898.166 629.713 898.261 629.069 898.119C620.744 896.457 612.378 897.715 604.033 897.525C600.654 897.454 597.799 896.196 594.943 893.775C596.733 893.348 598.241 893.846 599.729 894.131C607.311 895.674 614.751 895.104 622.293 893.277C631.02 891.14 639.848 891.045 648.214 895.698C649.179 896.244 651.13 896.623 650.205 898.499C649.461 899.994 647.611 901.181 646.122 899.946C641.336 895.982 636.289 896.386 631.06 897.953V897.976ZM628.526 925.937C624.082 922.116 624.263 915.992 629.391 913.618C634.66 911.173 639.768 908.278 645.238 906.26C651.994 903.744 658.168 899.424 664.583 894.274C663.759 899.543 660.762 901.869 657.665 903.673C654.991 905.239 651.914 905.762 649.139 907.115C644.252 909.512 639.225 911.838 635.665 916.728C632.126 921.594 632.247 922.709 635.484 928.097C632.91 928.192 630.598 927.717 628.526 925.937ZM636.771 917.938C638.883 914.473 642.282 913.666 645.378 911.078C644.473 915.422 643.87 919.291 646.525 922.709C648.817 925.676 651.452 927.978 654.649 929.521C649.26 930.281 644.112 929.379 639.124 927.409C634.439 925.557 633.936 922.638 636.771 917.962V917.938ZM640.371 929.83C650.728 932.631 660.662 931.634 670.475 932.844C663.899 937.924 647.088 936.547 640.371 929.83ZM750.814 910.794L729.296 915.707C735.591 908.966 742.87 908.017 750.814 910.794ZM729.296 911.933C722.72 917.297 715.058 918.247 707.336 919.196C713.912 913.571 722.177 915.137 729.296 911.933ZM718.698 920.335C709.327 925.652 700.358 929.07 690.907 930.518C700.037 927.717 707.397 918.437 718.698 920.335ZM696.578 937.663C705.687 937.141 714.214 937.734 722.62 938.422C715.722 940.962 705.868 940.748 696.578 937.663ZM766.419 916.609C758.878 919.979 754.232 929.07 745.846 930.827C735.128 933.082 724.751 937.307 713.49 935.859C704.461 934.696 695.25 936.286 685.799 933.461C690.384 932.583 694.567 931.966 698.689 930.851C706.693 928.691 714.214 925.059 721.735 921.356C732.393 916.134 743.695 914.212 754.956 912.17C758.415 911.553 761.854 912.693 765.313 912.977C766.258 913.049 767.143 913.381 767.344 914.639C767.484 915.493 767.062 916.3 766.419 916.585V916.609ZM779.369 905.975C792.622 899.923 806.296 895.033 818.945 887.176C806.94 896.932 794.271 904.789 779.369 905.975ZM801.772 894.345C804.667 888.862 815.366 882.524 824.958 880.625C817.457 885.301 809.976 890.191 801.772 894.345Z" fill="#D0DFE6"/>
</svg>
