<svg width="558" height="487" viewBox="0 0 558 487" fill="none" xmlns="http://www.w3.org/2000/svg">
<path opacity="0.3" d="M37.9315 42.075C29.1761 43.4126 20.3448 43.5155 11.5895 42.8724C11.387 43.464 11.1593 44.0556 10.9568 44.6472C12.7282 44.853 14.4742 45.0845 16.2455 45.2646C14.1958 46.2678 12.1462 46.8594 10.0965 47.1166C9.84346 47.8626 9.56511 48.6085 9.31207 49.3544C11.1087 49.303 12.88 49.0715 14.6766 48.5571C25.5323 45.4961 37.1471 46.8851 47.7244 42.4094C53.3926 40.0172 59.4151 38.551 64.5013 34.6155C68.9802 31.1172 74.3195 29.7797 80.0383 30.3456C84.8462 30.8343 89.6034 32.0433 94.5125 31.4516C90.9699 33.5866 87.2754 33.921 83.2773 34.0753C75.5847 34.3583 67.9427 34.6155 60.8827 39.5027C56.2014 42.7438 49.9259 43.7212 44.2829 45.4189C33.073 48.8143 21.5089 50.512 10.0965 52.9556C9.36267 53.1099 8.70474 53.0842 8.07213 52.9556C7.84439 53.5987 7.61664 54.2674 7.3889 54.9105C8.17334 54.9877 8.9831 54.9105 9.81815 54.7562C25.1527 51.8495 40.6138 49.4573 55.3411 43.8498C59.7947 42.1522 64.5013 41.6892 69.2332 41.0204C59.0608 45.316 50.6091 53.0585 40.1077 56.3252C28.1133 60.0807 16.119 64.1449 3.71974 65.9455C3.56792 66.3827 3.4414 66.7943 3.28957 67.2316C18.194 65.5596 30.3655 62.37 47.4713 55.8365C41.2717 59.4634 35.2998 63.6304 28.4423 65.8425C19.6616 68.6463 10.7038 70.807 1.64479 72.4018C1.41705 73.122 1.1893 73.8679 0.961556 74.5882C1.72069 74.4596 2.45452 74.3567 3.21366 74.2281C2.42922 74.511 1.61947 74.7168 0.835026 74.974C0.556676 75.9 0.278321 76.826 -2.90135e-05 77.7521C1.46764 77.3405 2.91002 76.9032 4.37769 76.363C15.537 72.2732 26.924 69.3923 38.7919 68.2605C48.4835 67.3345 57.2895 63.6047 65.4376 58.203C74.7243 52.0296 84.1376 46.0362 94.7655 42.4351C97.9792 41.3548 101.193 40.2745 104.407 39.297C104.407 39.2456 104.407 39.1941 104.407 39.1426C114.731 36.3132 125.207 35.0528 136.164 39.2198C138.112 39.9657 140.314 40.223 142.389 40.223C147.146 40.223 152.131 40.5574 156.104 37.3421C159.09 34.8984 162.329 33.0721 165.998 32.995C180.093 32.6606 191.884 25.2268 204.081 19.7736C219.492 12.88 234.371 13.626 249.604 18.4875C251.983 19.2335 256.107 20.3652 254.058 25.0467C253.653 25.947 254.513 26.5644 255.07 27.2074C257.55 30.1398 257.018 31.8375 253.071 32.2747C249.022 32.712 246.061 35.13 242.898 37.162C241.279 38.1909 239.685 39.7343 239.963 42.0493C240.899 49.6374 237.357 54.2417 230.879 57.457C226.552 59.6177 222.908 62.9616 220.656 67.4116C219.441 69.8038 217.948 72.7362 221.972 74.5625C232.195 79.1925 242.62 82.0477 254.032 82.0734C266.179 82.0734 277.009 78.498 287.333 72.659C295.304 68.1576 303.503 64.7879 312.764 64.4021C316.813 64.222 321.165 64.4535 324.759 62.4215C331.566 58.5888 339.182 59.2319 346.419 58.0229C349.38 57.5342 352.872 56.9426 355.883 58.7174C358.287 60.1579 360.767 60.4666 363.551 60.518C372.686 60.6209 380.505 67.7718 380.353 75.6685C380.226 81.9705 375.52 85.1601 371.319 88.3754C363.222 94.5745 353.808 97.8927 344.015 100.233C340.751 101.005 337.588 102.317 334.096 101.905C320.28 100.285 306.463 98.5615 292.597 97.2497C281.538 96.1951 270.885 96.478 261.396 104.298C256.411 108.413 249.579 110.265 246.871 117.107C246.694 117.57 246.061 117.879 245.631 118.265C240.899 122.458 241.608 127.088 247.2 129.969C250.186 131.512 253.754 131.615 256.36 134.161C259.625 137.351 259.448 139.615 255.5 141.749C250.667 144.373 245.733 146.791 241.051 149.646C235.763 152.862 235.13 160.012 240.115 163.639C246.011 167.935 251.983 172.231 259.726 172.925C268.001 173.697 276.149 175.343 283.942 178.455C287.004 179.664 290.294 180.025 293.508 179.819C299.707 179.459 305.856 179.664 312.03 180.41C316.636 180.951 321.368 181.619 325.897 181.053C335.716 179.844 345.508 179.844 355.352 180.385C362.817 180.796 370.104 182.134 377.291 184.32C383.465 186.172 389.007 190.133 395.789 189.902C399.205 189.773 402.52 190.365 405.733 191.6C409.2 192.937 412.743 193.503 416.462 193.426C419.828 193.374 423.598 193.272 426.255 195.407C432.784 200.628 440.704 203.046 447.764 207.136C456.393 212.126 464.161 218.042 470.133 226.299C475.523 233.759 475.624 242.273 469.931 249.424C469.02 250.555 468.387 251.816 468.185 253.282C467.831 255.777 466.565 257.809 465.072 259.764C459.708 266.864 452.724 272.574 444.854 275.532C433.189 279.931 423.801 288.573 411.908 292.226C411.174 292.457 410.491 293.178 409.984 293.821C407.302 297.216 403.81 297.756 399.761 297.37C388.071 296.29 376.481 293.461 364.639 297.319C360.539 298.656 356.946 300.226 355.605 304.11C353.808 309.306 350.873 313.344 347.153 317.125C345.483 318.823 344.344 321.061 343.636 323.427C342.978 325.536 342.396 328.083 343.914 329.601C346.9 332.584 349.253 336.314 353.176 338.269C357.3 340.327 361.703 340.713 366.233 341.253C375.039 342.307 383.845 343.105 392.727 343.182C398.648 343.233 403.835 345.831 409.149 348.018C409.149 348.018 410.819 348.97 412.616 350.513C414.413 352.056 414.767 359.516 416.791 361.728C418.841 363.94 424.484 366.512 427.242 367.618C430.228 369.11 433.062 371.091 435.719 373.663C438.148 376.03 439.692 377.702 436.959 380.608C435.162 382.537 435.112 384.364 437.162 386.113C439.793 388.376 438.654 390.434 436.681 392.235C435.188 393.598 433.239 394.113 431.291 394.524C425.572 395.682 419.853 395.399 414.058 395.167C408.77 394.961 402.975 394.421 398.597 397.791C395.536 400.132 392.398 402.009 389.083 403.836C382.327 407.54 379.897 416.44 383.744 422.639C386.375 426.883 386.198 427.912 381.896 430.278C377.164 432.876 372.483 436.272 371.193 441.339C369.244 448.979 362.842 453.248 359.704 459.911C357.275 465.055 356.971 469.737 361.931 472.437C369.877 476.784 377.342 482.495 386.856 483.267C390.07 483.524 393.233 484.424 396.396 485.016C410.566 487.717 424.661 488.18 438.477 483.086C449.637 478.997 461.024 476.116 472.892 474.984C482.583 474.058 491.389 470.328 499.537 464.926C508.824 458.753 518.237 452.76 528.865 449.159C543.339 444.246 557.788 439.384 573.224 445.249C575.173 445.995 577.374 446.252 579.449 446.252C584.206 446.252 589.191 446.586 593.164 443.371C596.15 440.927 599.389 439.101 603.058 439.024C616.95 438.69 628.641 431.462 640.661 426.008C641.319 423.616 642.027 421.25 642.786 418.883C631.956 422.33 622.897 431.436 609.308 429.481C620.645 423.951 631.5 420.324 642.862 418.652C643.115 417.906 643.368 417.134 643.621 416.388C640.509 416.877 637.498 417.391 634.512 418.086C624.441 420.427 614.977 424.362 605.513 428.375C592.101 434.034 577.88 436.117 563.71 438.329C559.357 438.998 555.03 437.764 550.678 437.455C549.488 437.378 548.375 437.018 548.122 435.654C547.945 434.728 548.476 433.854 549.286 433.545C558.775 429.892 564.621 420.041 575.173 418.137C588.66 415.694 601.717 411.115 615.888 412.684C625.225 413.713 634.714 412.787 644.406 414.099C644.912 412.633 645.469 411.192 646 409.752C642.154 409.392 638.333 408.723 634.537 407.9C626.667 406.202 618.722 405.276 610.675 406.536C605.968 407.282 601.236 408.054 596.479 408.466C585.067 409.443 574.059 411.835 563.406 416.362C554.98 419.964 547.793 425.442 540.252 430.355C532.889 435.166 525.398 436.76 516.972 435.243C510.115 434.008 503.586 435.551 498.044 439.487C490.149 445.094 481.293 447.358 472.107 448.747C459.075 450.728 445.942 450.033 433.012 448.181C421.068 446.458 409.984 441.802 400.242 434.265C397.712 432.31 397.459 430.69 400.09 428.555C404.544 424.928 409.124 421.687 414.995 421.07C417.449 420.812 419.625 419.809 421.726 418.652C425.673 416.465 429.975 415.719 434.302 415.256C441.008 414.562 447.764 414.459 454.47 413.816C464.794 412.838 474.992 411.398 482.052 402.318C483.722 400.183 485.291 398.074 487.745 396.71C489.871 395.527 490.352 393.289 489.744 391.077C487.695 383.515 484.38 377.033 476.358 374.178C470.361 372.043 464.87 368.802 459.657 365.098C455.355 362.062 450.877 359.49 445.993 357.69C445.993 357.69 442.02 354.809 441.286 352.725C440.552 350.642 439.92 349.15 439.515 348.044C438.376 344.34 435.415 341.381 430.911 339.812C423.624 337.266 416.108 336.314 408.466 336.649C398.167 337.112 387.919 336.057 377.671 335.594C368.434 335.182 362.867 327.208 366.233 320.006C368.485 315.196 372.053 311.826 376.937 309.614C388.223 304.495 399.939 302.283 412.237 303.158C415.627 303.389 418.968 302.721 422.207 301.666C423.978 301.1 426.129 300.071 425.648 297.962C424.864 294.464 427.293 293.718 429.266 293.409C440.122 291.789 449.839 286.824 460.062 283.326C464.035 281.963 468.286 281.5 472.132 279.545C482.912 274.04 493.414 268.175 501.536 258.787C503.409 256.6 504.294 254.311 502.371 251.867C499.613 248.343 499.512 244.562 500.777 240.524C501.612 237.849 501.233 235.354 500.727 232.575C499.537 225.81 496.146 221.283 490.63 217.271C486.05 213.952 481.343 211.252 476.055 211.406C468.236 211.637 462.086 207.702 455.431 204.821C452.952 203.741 450.978 201.837 449.206 199.779C448.549 199.008 447.663 198.339 448.802 196.898C451.433 193.606 451.054 191.548 447.486 188.976C441.742 184.835 435.34 182.34 428.28 181.928C418.183 181.336 408.087 181.439 397.965 181.594C389.108 181.722 380.176 181.594 371.926 177.478C366.663 174.854 361.172 173.414 355.301 173.208C349.937 173.028 344.724 173.414 339.435 174.649C332.122 176.372 324.986 173.337 317.724 172.719C308.943 171.973 302.415 167.112 297.733 160.475C290.117 149.672 288.345 139.254 296.721 131.383C305.072 123.538 314.865 118.445 326.707 118.548C339.233 118.676 351.759 118.754 364.284 118.599C370.889 118.522 377.468 117.828 383.617 114.921C386.932 113.352 389.614 110.677 393.258 109.725C402.013 107.436 409.225 102.831 414.286 95.0118C414.893 94.0858 415.804 93.3141 416.715 92.6453C420.714 89.6615 422.814 85.2116 425.167 81.0445C426.761 78.2408 426.356 75.257 424.737 72.4532C422.586 68.7749 417.576 66.4856 419.271 60.9296C419.296 60.8267 419.17 60.6209 419.069 60.5694C414.489 58.1001 412.439 52.3383 407.1 50.8464C400.571 49.0201 394.397 46.3707 388.324 43.3354C383.592 40.9689 378.354 39.76 373.141 41.3805C368.915 42.7181 364.79 42.5895 360.666 41.612C356.364 40.6088 352.164 40.8146 348.267 42.5895C341.384 45.7019 334.298 45.5218 327.163 44.5958C319.419 43.5926 311.626 43.3354 304.11 45.316C293.558 48.0941 282.854 44.8788 272.328 46.9623C271.315 47.1681 270.126 46.5764 269.038 46.2678C268.001 45.9848 266.508 46.1134 266.457 44.5701C266.406 43.0267 268.001 43.2325 268.937 42.7438C274.099 40.1458 279.362 37.7279 284.423 34.8984C289.105 32.3005 292.015 27.6704 291.559 22.6031C291.104 17.5358 286.65 14.9635 281.792 13.7803C279.463 13.2144 276.984 12.8029 274.959 11.6454C262.256 4.41735 248.87 3.25984 234.927 6.50087C233.637 6.80954 232.397 6.78379 231.208 6.26934C226.425 4.1601 221.415 3.87715 216.303 4.05721C209.927 4.28871 203.702 3.28555 197.477 1.94798C189.607 0.250302 181.661 -0.675703 173.615 0.584697C168.908 1.33065 164.176 2.10232 159.419 2.51388C148.006 3.49133 136.999 5.8835 126.346 10.4107C117.919 14.0118 110.733 19.4907 103.192 24.4037C101.851 25.2782 100.51 25.9985 99.1685 26.6673C99.1685 26.873 99.1685 27.0531 99.1685 27.2589C94.0064 29.1881 88.6671 29.6253 82.8724 28.5964C76.0149 27.3618 69.4863 28.9051 63.9446 32.8406C56.0496 38.4481 47.193 40.7117 38.0074 42.1007L37.9315 42.075ZM623.58 430.716C615.306 436.812 604.905 435.114 595.948 438.587C604.222 432.773 613.863 431.744 623.58 430.716ZM595.948 434.471C588.027 441.776 578.867 442.805 568.872 439.796L595.948 434.471ZM637.118 410.703C625.655 411.269 614.926 410.626 604.349 409.88C613.028 407.128 625.427 407.36 637.118 410.703ZM429.722 366.255C428.887 366.692 428.077 367.13 427.242 367.567L429.697 366.229C429.545 366.152 424.712 363.426 422.181 362.242C417.576 360.056 416.412 354.706 415.83 353.034C415.248 351.362 414.337 349.947 414.337 349.947C414.337 349.947 423.927 356.069 425.066 357.509C426.205 358.95 430.076 364.66 431.114 365.458L433.594 364.12C432.784 364.583 431.949 365.02 431.139 365.458C433.872 367.438 435.947 369.676 436.706 371.914C434.53 369.47 432.202 367.644 429.722 366.229V366.255ZM399.685 399.026C402.57 397.225 405.885 397.251 409.073 396.916C412.11 396.582 415.197 396.839 418.259 396.839C412.667 400.389 406.29 400.183 400.394 401.881C399.534 402.138 398.572 402.061 398.37 401.006C398.167 400.054 398.977 399.489 399.711 399.026H399.685ZM403.304 402.858C405.632 402.421 407.985 402.267 411.326 401.855C407.252 403.913 404.038 405.559 400.824 407.154C397.636 408.723 394.903 410.884 392.347 413.353C389.387 416.208 388.45 419.449 389.488 423.436C389.791 424.594 390.753 425.828 389.69 427.037C389.462 427.294 388.804 427.475 388.551 427.32C386.983 426.291 388.096 424.748 387.894 423.436C387.818 422.87 388.02 422.253 387.894 421.738C385.11 411.552 393.764 404.684 403.304 402.884V402.858ZM385.237 438.458C386.148 437.146 386.73 436.632 387.995 438.252C390.955 441.982 394.549 444.863 399.432 445.737C401.128 446.046 402.595 447.152 403.608 448.516C409.478 456.489 417.728 458.213 426.837 458.059C431.063 457.981 435.264 458.547 439.034 460.837C440.552 461.763 442.222 461.788 443.943 461.454C459.278 458.547 474.739 456.155 489.466 450.548C493.92 448.85 498.626 448.387 503.358 447.718C493.186 452.014 484.734 459.756 474.233 463.023C457.355 468.322 440.476 474.238 422.384 473.518C411.579 473.08 400.824 472.926 390.981 466.933C383.415 462.328 380.631 457.364 382.124 448.567C382.731 445.043 383.136 441.519 385.211 438.458H385.237ZM361.653 460.759C363.626 458.316 363.5 454.637 366.41 452.863C367.321 452.322 368.131 450.882 369.295 451.808C370.459 452.734 370.029 454.123 369.447 455.332C369.269 455.718 369.042 456.104 368.763 456.412C364.462 460.631 363.146 465.492 366.486 471.794C359.907 469.711 358.186 465.055 361.653 460.759ZM394.802 482.546C387.818 481.054 380.631 480.308 374.103 476.887C366.41 472.849 364.537 464.901 369.953 458.213C371.623 456.129 371.952 453.969 371.572 451.422C370.256 442.857 374.659 435.577 383.566 432.207C379.67 437.378 376.405 442.316 375.342 448.31C374.027 455.692 374.432 462.251 380.454 468.167C393.207 480.669 408.416 484.141 425.319 482.649C429.342 482.289 433.341 481.517 437.339 480.926C423.219 485.967 409.048 485.582 394.827 482.521L394.802 482.546ZM462.567 472.54C449.814 476.604 436.757 479.408 423.472 480.926C410.111 482.443 397.282 479.717 386.679 471.614C375.267 462.894 373.04 454.612 379.847 440.773C380.277 439.924 380.581 438.87 382.883 438.741C379.872 442.651 380.581 446.792 379.948 450.625C378.885 457.03 381.087 462.431 386.476 466.238C397.408 473.929 409.63 475.73 422.611 475.087C445.31 473.929 459.202 471.074 481.596 462.534C475.397 466.161 469.425 470.328 462.567 472.54ZM475.624 472.515C485.063 467.473 494.476 462.148 504.801 457.647C501.157 463.589 487.695 470.457 475.624 472.515ZM483.165 465.441C498.272 454.869 514.214 446.355 532.965 445.069C516.289 451.628 499.082 456.927 483.165 465.441ZM481.875 449.107C487.543 446.715 493.565 445.249 498.652 441.313C503.13 437.815 508.47 436.477 514.189 437.043C518.996 437.532 523.754 438.741 528.663 438.149C525.12 440.284 521.426 440.619 517.428 440.773C509.735 441.056 502.093 441.313 495.033 446.2C490.352 449.442 484.076 450.419 478.433 452.117C467.223 455.512 455.659 457.21 444.247 459.653C441.16 460.322 439.287 458.033 436.782 457.39C431.848 456.104 426.837 455.795 421.751 455.718C414.236 455.615 410.946 453.84 405.733 447.435C411.983 450.213 417.373 451.911 423.269 451.962C426.711 451.988 430.253 453.043 433.518 454.252C438.604 456.155 443.715 456.695 448.827 455.255C459.683 452.194 471.297 453.583 481.875 449.107ZM440.502 450.882C443.817 451.088 447.106 451.576 450.396 451.962C445.512 454.355 440.679 454.535 435.896 452.965C430.506 451.216 425.091 450.085 419.423 449.622C409.402 448.798 401.558 443.32 394.827 436.066C394.017 435.191 392.676 433.957 393.739 432.748C394.903 431.436 396.016 432.902 396.902 433.699C409.428 444.709 424.155 449.879 440.502 450.908V450.882ZM394.498 430.407C403.785 414.845 417.399 409.932 434.732 412.375C420.435 417.469 405.48 419.14 394.498 430.407ZM477.699 376.75C481.09 378.473 483.064 380.377 484.456 382.949C485.139 384.184 485.569 385.573 486.176 386.859C488.909 392.749 488.656 392.492 484.177 397.225C480.205 401.469 476.713 406.176 470.994 408.157C470.133 408.466 469.349 409.34 468.261 408.749C481.394 396.993 483.621 389.997 477.699 376.776V376.75ZM453.761 379.837C455.507 377.907 451.939 374.229 455.355 373.329C457.456 372.789 459.986 374.126 462.34 374.486C470.842 375.824 476.864 382.949 476.181 391.077C475.751 396.325 472.993 400.209 468.818 402.961C460.214 408.62 450.699 411.192 440.451 410.986C433.897 410.755 427.445 408.491 420.789 410.06C411.604 412.247 402.418 414.408 397.028 423.539C396.269 424.825 395.409 426.574 393.511 425.905C391.942 425.34 391.461 423.668 391.208 422.073C390.753 419.372 391.411 417.108 393.309 415.025C398.699 409.134 405.784 406.254 412.945 403.81C418.234 402.009 423.877 401.263 429.368 400.054C440.704 397.559 449.864 392.261 453.635 380.197C453.685 380.068 453.685 379.888 453.761 379.785V379.837ZM423.042 339.452C426.837 340.198 429.52 342.693 432.505 344.751C432.683 344.854 432.809 345.008 432.936 345.163C432.936 345.163 433.847 345.78 435.39 348.044C436.731 348.044 438.047 348.018 439.388 347.992C438.654 347.992 437.187 348.018 435.39 348.044C436.023 348.995 436.782 350.23 437.617 351.825C438.047 352.648 441.109 356.069 443.614 358.796C443.614 358.796 443.614 358.796 443.639 358.796C445.208 360.519 446.6 361.985 447.081 362.448C448.953 363.863 449.839 365.946 449.687 368.519C449.586 370.216 450.219 371.477 450.927 372.917C453.711 378.628 450.826 386.499 444.93 389.56C448.928 379.785 449.611 370.396 442.045 361.471C441.742 361.188 441.286 360.776 440.729 360.287C439.312 359.053 436.984 357.201 434.024 355.452C431.316 353.883 428.507 350.667 426.559 348.198C425.344 348.198 424.433 348.224 424.054 348.224C424.889 348.224 425.724 348.198 426.559 348.198C425.066 346.269 424.357 345.214 424.357 345.214L423.016 343.671C419.195 338.732 413.451 338.938 407.935 338.835C412.996 338.526 418.006 338.526 423.016 339.504L423.042 339.452ZM414.843 341.124C418.639 341.793 422.257 344.777 423.902 348.198C423.902 348.198 427.419 356.635 430.203 358.178C433.012 359.722 436.225 360.262 438.604 361.394C443.842 364.712 445.79 369.65 445.259 376.081C444.879 380.685 446.474 385.65 441.615 389.225C441.539 385.778 442.324 382.486 442.551 379.193C442.956 373.097 438.376 369.136 434.682 365.123C434.353 364.763 434.024 364.455 433.669 364.12C433.669 364.12 428.204 356.841 423.548 353.703C419.423 350.925 415.855 348.687 412.667 347.272C408.011 345.214 403.456 342.976 396.826 341.33C402.874 341.664 408.846 340.044 414.868 341.099L414.843 341.124ZM366.41 338.14C359.299 339.658 353.201 337.369 350.342 333.047C350.19 332.816 350.089 332.533 349.886 332.327C348.089 330.501 345.053 329.703 345.205 326.257C345.306 323.993 346.217 321.935 350.089 316.842C346.622 330.475 356.769 333.562 366.41 338.166V338.14ZM361.248 330.218C355.858 323.299 358.363 317.202 368.384 312.289C366.461 318.54 359.325 322.527 361.248 330.218ZM370.661 308.56C367.523 309.794 364.588 311.543 362.058 313.833C354.593 320.623 354.163 324.199 360.16 332.79C356.693 331.761 354.492 330.012 352.872 327.62C350.949 324.739 349.76 321.292 352.366 318.54C359.73 310.669 367.7 303.724 380.479 305.319C376.709 306.553 373.647 307.402 370.686 308.585L370.661 308.56ZM383.162 300.457C375.494 301.229 367.776 301.898 360.666 305.37C359.73 305.833 358.464 306.965 357.655 305.782C356.642 304.29 357.958 302.849 359.046 302.232C363.576 299.608 368.46 297.859 373.672 297.448C381.542 296.856 389.361 297.653 398.42 299.402C392.651 300.689 387.868 299.994 383.162 300.457ZM408.972 298.271C414.716 293.152 422.282 291.12 428.406 286.618C422.637 291.66 417.804 298.296 408.972 298.271ZM495.286 224.524C498.297 228.357 500.474 234.299 498.525 240.164C497.133 244.356 497.614 248.446 500.018 252.073C501.739 254.671 501.46 256.729 498.955 258.221C496.349 259.764 495.438 262.851 492.401 265.32C493.464 261.848 495.387 259.713 494.856 256.575C491.845 263.288 487.922 269.333 481.369 272.497C474.992 275.583 469.146 280.188 460.948 280.651C465.528 277.333 470.31 275.789 474.233 272.728C479.395 268.716 484.228 264.343 488.58 259.481C491.263 256.497 493.338 253.051 493.034 248.678C492.983 247.983 493.11 247.237 493.312 246.569C497.007 233.682 494.603 226.376 483.874 218.222C481.849 216.679 479.673 215.367 477.244 213.695C485.519 213.695 491.06 219.071 495.337 224.473L495.286 224.524ZM483.924 220.795C488.859 224.73 491.743 229.875 493.034 236.125C493.641 239.083 493.692 241.758 492.098 244.356C491.668 245.077 491.111 245.925 491.161 246.697C491.566 256.189 484.861 261.23 479.015 266.683C471.652 273.551 462.77 277.898 453.483 281.294C446.676 283.789 440.097 287.261 431.569 286.824C434.125 285.358 435.719 283.84 437.541 283.48C446.499 281.731 454.242 277.05 462.086 272.805C470.285 268.355 478.357 262.851 482.71 254.465C485.746 248.626 487.796 241.527 486.48 234.299C485.164 226.917 480.989 221.669 475.068 217.528C473.828 216.679 472.385 215.959 471.5 214.004C476.561 215.007 480.28 217.862 483.95 220.795H483.924ZM483.646 230.672C485.316 235.302 485.544 239.829 483.57 244.408C483.241 245.179 482.684 246.003 482.684 246.8C482.71 255.288 476.282 259.044 471.247 264.214C465.199 270.413 456.545 271.828 450.345 277.538C449.232 278.567 447.233 278.593 445.639 279.056C454.571 271.416 465.832 266.864 473.17 257.501C479.445 249.449 484.582 240.472 480.635 229.283C479.698 226.608 478.307 224.447 475.928 222.981C473.727 221.643 472.284 219.689 470.766 216.859C476.662 220.615 481.419 224.421 483.671 230.698L483.646 230.672ZM467.805 217.091C471.12 219.971 473.904 223.444 476.687 226.788C480.027 230.801 480.761 236.177 479.243 241.424C478.408 244.279 476.94 246.929 475.751 249.681C475.397 250.478 474.967 251.327 473.904 250.993C473.094 250.736 472.866 249.99 473.271 249.269C482.026 234.299 472.183 224.91 463.048 215.804C456.393 209.168 447.916 204.924 439.464 200.963C435.896 199.291 432.354 197.49 429.216 195.046C425.167 191.908 420.486 191.317 415.602 191.522C412.211 191.677 408.896 191.394 405.328 189.362C416.842 186.841 427.571 187.767 437.01 193.915C447.764 200.911 458.088 208.628 467.831 217.116L467.805 217.091ZM399.255 183.42C409.782 183.034 420.258 183.034 430.582 185.812C433.872 186.712 436.959 187.973 439.92 189.619C441.893 190.699 443.235 192.217 443.159 195.124C440.426 194.892 439.059 192.809 437.111 191.78C427.116 186.429 416.665 185.22 405.632 187.433C396.371 189.31 387.539 188.076 378.683 182.365C386.046 183.368 392.651 183.651 399.255 183.42ZM321.292 105.635C298.872 105.455 279.261 114.407 259.321 124.515C261.345 119.422 265.116 116.516 269.215 113.892C279.413 107.333 290.952 106.355 302.541 104.889C308.867 104.092 314.991 103.526 321.317 105.661L321.292 105.635ZM282.5 115.744C275.592 121.48 267.545 123.641 262.611 130.329C261.927 131.255 260.941 132.181 259.852 130.792C258.688 129.326 259.448 127.911 260.662 127.113C264.762 124.387 268.911 121.66 273.213 119.294C275.769 117.879 278.679 117.159 282.5 115.744ZM249.528 128.888C243.658 126.342 243.151 123.744 247.732 119.139C249.149 117.699 250.389 116.156 251.097 114.278C251.73 112.58 252.792 111.191 254.437 110.6C259.422 108.748 263.471 105.429 267.697 102.368C271.543 99.5647 276.174 99.3589 280.628 98.9988C284.524 98.6644 288.497 98.9216 292.419 98.9216C287.561 99.8734 283.133 102.6 278.021 101.905C275.364 101.545 272.631 102.471 270.455 104.118C267.115 106.613 264.078 108.902 259.777 110.265C252.286 112.632 250.085 122.303 254.387 129.891C252.565 129.994 251.021 129.531 249.528 128.888ZM256.942 124.233C256.791 125.056 256.436 126.059 255.449 126.033C254.159 125.982 254.134 124.747 254.032 123.77C253.602 120.117 257.271 114.021 261.168 112.503C264.635 111.14 267.849 109.596 270.278 106.613C272.302 104.118 275.465 103.989 278.046 104.118C285.359 104.529 292.015 100.954 299.226 101.082C301.301 101.108 303.376 100.465 305.502 101.803C299.884 103.474 293.988 103.732 288.269 104.915C279.489 106.741 271.062 109.185 264.028 115.075C261.042 117.57 257.803 119.963 256.968 124.233H256.942ZM246.618 164.102C245.96 164.848 245.075 164.771 244.29 164.437C241.355 163.202 239.457 161.119 239.229 158.135C239.406 156.025 239.811 154.379 240.823 152.913C241.836 151.447 243.329 149.904 244.897 150.341C247.023 150.958 245.404 152.99 245.378 154.379C245.328 156.926 244.72 159.498 246.517 161.762C247.074 162.456 247.327 163.305 246.643 164.077L246.618 164.102ZM251.224 163.948C245.682 160.193 245.96 151.112 251.755 147.794C252.868 147.151 254.058 146.251 254.412 148.592C255.728 157.672 261.624 163.331 268.684 168.064C269.392 168.527 270.101 168.99 270.759 169.53C270.936 169.658 270.936 169.993 271.164 170.61C264.306 168.552 257.221 168.012 251.224 163.948ZM322.81 177.967C331.009 179.073 338.955 176.372 347.001 175.137C355.301 173.877 363.399 175.137 371.901 179.562C369.016 180.539 367.346 180.05 365.701 179.767C353.429 177.787 341.105 177.401 328.757 179.021C324 179.639 319.166 179.587 314.46 178.636C305.957 176.912 297.354 178.353 288.826 177.658C285.916 177.427 283.107 176.758 280.577 174.931C285.739 175.857 290.876 173.928 295.962 175.137C304.793 177.272 313.878 176.732 322.785 177.915L322.81 177.967ZM292.774 130.972C284.702 150.032 293.609 162.353 308.69 173.028C305.502 173.079 303.553 172.642 301.959 171.588C296.62 167.935 290.749 165.105 285.967 160.553C279.843 154.688 278.983 150.418 283.031 142.778C283.487 141.93 283.765 140.978 284.145 140.052C278.148 143.833 276.908 154.045 281.893 159.549C285.537 163.562 289.737 166.906 294.494 169.504C296.063 170.353 297.607 171.382 298.518 172.668C285.511 174.854 273.998 171.536 264.255 162.199C262.687 160.707 261.345 159.138 260.08 157.389C254.64 149.801 254.893 147.82 262.408 142.727C265.166 140.849 266.432 138.637 264.762 135.525C263.319 132.824 264.104 130.817 266.229 129.197C276.756 121.12 287.738 114.149 301.327 112.606C306.59 112.014 311.702 110.008 317.8 111.731C314.814 113.609 312.385 115.333 309.804 116.722C299.403 122.329 290.117 129.171 284.271 139.949C288.927 139.074 289.105 133.698 292.799 130.998L292.774 130.972ZM333.033 116.49C321.899 114.638 312.359 118.522 303.174 124.155C302.693 124.438 302.162 124.644 301.554 124.953C304.743 119.32 321.672 111.834 339.309 107.719C353.302 104.452 367.321 104.658 381.82 106.355C378.708 108.31 375.596 108.336 372.534 108.182C363.348 107.693 354.745 109.416 346.546 113.944C342.497 116.207 337.664 117.262 333.033 116.49ZM386.097 111.32C381.314 114.227 376.051 115.821 370.535 116.259C363.829 116.799 357.073 117.005 350.342 117.262C349.304 117.287 348.241 116.799 346.09 116.31C352.847 112.58 359.046 110.6 365.676 110.291C372.205 109.982 378.86 111.397 385.059 108.079C386.021 107.564 387.109 107.976 387.514 109.056C387.969 110.291 386.932 110.831 386.097 111.346V111.32ZM411.427 56.0423C412.641 57.6114 413.907 59.129 415.779 60.0035C416.715 60.4408 417.728 61.2382 417.399 62.2414C416.108 66.5371 418.613 68.8007 421.473 71.09C422.409 71.8359 423.143 72.942 423.219 74.8969C420.638 73.0448 418.588 71.1671 416.007 70.1382C414.514 69.5466 414.691 68.209 415.121 66.8457C416.209 63.4504 414.716 61.2382 411.983 59.3348C408.567 56.9426 405.354 54.2417 402.064 51.6695C405.986 51.7981 409.124 53.1356 411.427 56.068V56.0423ZM400.951 53.5215C404.746 55.9394 408.289 58.7946 411.958 61.3926C413.831 62.7044 413.932 64.3764 413.198 66.3056C412.237 68.7749 413.147 70.2925 415.298 71.5786C423.624 76.5688 424.737 81.1989 418.132 88.5298C413.881 93.2627 410.035 98.6644 403.658 101.314C399.407 103.089 395.207 104.22 390.019 104.761C397.535 100.414 404.088 96.0921 407.631 88.504C411.958 79.2439 408.694 67.8489 399.382 60.3122C393.638 55.6565 386.831 52.7755 380.201 49.6117C378.86 48.9686 377.114 49.1487 375.823 46.8851C384.882 47.8111 393.385 48.7371 400.9 53.5215H400.951ZM371.572 49.3802C382.959 52.6984 394.245 56.5053 402.216 66.1255C410.921 76.646 409.402 86.7806 399.331 96.1951C389.943 104.966 378.404 104.864 366.739 103.294C363.702 102.883 360.742 101.983 357.604 102.6C366.435 97.6355 375.494 93.417 383.794 87.7581C385.793 86.3948 387.666 84.8514 389.007 82.7936C389.69 81.739 390.728 80.35 390.5 79.3468C389.513 74.5882 390.399 69.0321 386.957 65.2252C382.099 59.8749 377.443 53.9588 369.75 52.364C368.94 52.2096 368.207 51.7209 367.447 51.3351C367.245 51.2322 367.194 50.8721 367.043 50.5634C368.232 48.9172 370.054 48.9172 371.572 49.3544V49.3802ZM359.325 53.1614C359.755 51.4894 361.223 51.9267 362.488 52.1839C372.205 54.2417 379.872 59.6949 386.021 67.3602C388.476 70.4211 386.299 75.0512 388.678 77.6234C388.805 80.0671 387.868 81.3275 386.856 82.5107C383.288 86.7034 378.354 88.9928 373.875 91.8994C373.268 92.2852 372.508 92.6196 371.977 91.8994C371.294 90.9734 372.078 90.356 372.686 89.7901C374.027 88.5555 375.317 87.2179 376.76 86.0861C386.552 78.3951 382.58 66.7428 373.824 61.3668C370.003 59.0004 366.056 56.814 361.703 55.4507C360.59 55.0906 358.844 54.9362 359.274 53.1614H359.325ZM256.639 22.9889C256.234 17.8702 250.819 17.6387 247.099 15.195C254.134 14.9893 259.751 18.3589 261.016 23.1947C262.332 28.1334 260.89 31.7346 256.057 34.2554C262.307 30.5771 256.942 26.693 256.639 22.9889ZM229.715 76.0544C227.26 74.794 224.755 73.5593 222.326 72.2475C220.934 71.4758 220.909 70.1639 221.516 68.9035C223.439 64.9165 226.805 62.3186 230.347 59.9521C230.955 59.5406 231.714 59.4119 232.296 60.0035C232.928 60.6466 232.473 61.3154 232.093 61.907C231.36 63.116 230.6 64.3249 229.892 65.5596C227.943 68.955 228.348 72.2989 229.715 76.0801V76.0544ZM230.6 71.4758C229.614 68.7749 232.903 62.0099 235.687 61.0325C237.66 60.338 237.686 61.8298 237.18 62.8587C234.927 67.5917 237.534 70.9871 240.166 74.8197C235.611 76.363 231.84 74.9997 230.575 71.4758H230.6ZM236.016 78.0607C243.506 75.8486 250.363 76.6717 257.069 76.1058C263.927 75.5142 270.809 75.437 277.464 73.1477C283.942 70.9356 289.636 66.7428 297.126 64.8394C278.249 77.8549 258.815 83.9512 236.016 78.0607ZM327.517 57.1483C318.433 58.203 309.778 61.7013 300.593 62.1643C294.014 62.4986 288.674 66.2798 282.956 68.955C271.72 74.2024 259.827 74.7682 247.858 74.3567C244.113 74.2281 239.786 73.3792 238.647 68.3633C237.686 64.1449 239.533 60.7752 244.265 57.5085C245.631 56.5825 246.669 55.142 247.833 53.933C249.174 52.544 250.161 50.6663 252.818 50.3062C251.122 55.3478 251.957 56.7625 256.968 56.7368C261.143 56.7111 264.863 57.7143 268.785 59.1033C275.617 61.4955 282.728 60.1579 289.636 58.949C294.039 58.1773 298.442 57.1484 302.668 55.5279C311.777 52.0553 320.912 53.3157 330.224 55.5279C329.744 57.0455 328.478 57.0197 327.542 57.1483H327.517ZM255.348 48.6857C265.091 56.9169 276.958 56.351 288.7 56.5053C280.703 58.4345 272.834 59.5405 265.192 55.6307C262.965 54.4989 260.51 54.8591 258.132 54.8848C255.399 54.8848 252.691 54.9877 254.766 50.8206C255.045 50.2805 254.412 49.4316 255.348 48.6857ZM282.475 47.734C283.284 47.5282 284.17 47.4253 284.98 47.5796C295.456 49.3802 305.983 48.0169 316.484 48.2227C320.735 48.2998 324.328 49.6631 327.922 52.2868C325.67 52.7498 323.772 52.2097 321.899 51.901C312.359 50.229 302.997 50.8464 293.508 52.827C282.525 55.142 271.417 55.2449 260.89 50.2033C259.675 49.6117 257.221 49.2001 258.385 47.1681C259.321 45.5475 261.649 44.2614 263.522 45.599C269.544 49.8946 275.896 49.4573 282.475 47.7597V47.734ZM285.663 17.4329C291.255 21.5742 291.028 28.2106 284.575 30.7828C277.945 33.4322 271.518 36.5704 264.635 38.7568C256.133 41.4834 248.364 46.1649 240.292 51.7467C241.33 46.0363 245.1 43.5155 248.997 41.5605C252.362 39.8629 256.234 39.297 259.726 37.8308C265.875 35.2328 272.201 32.712 276.68 27.4132C281.134 22.1401 280.982 20.9312 276.908 15.0922C280.147 14.9893 283.057 15.5037 285.663 17.4329ZM275.288 26.1014C272.631 29.8568 268.355 30.7314 264.458 33.5352C265.597 28.8279 266.356 24.6352 263.016 20.9312C260.131 17.7159 256.816 15.2208 252.793 13.5488C259.574 12.7257 266.052 13.7031 272.328 15.8381C278.224 17.8444 278.856 21.0083 275.288 26.0757V26.1014ZM270.759 13.2144C257.727 10.1792 245.226 11.2595 232.878 9.94767C241.152 4.44306 262.307 5.93498 270.759 13.2144ZM131.786 33.8438L158.862 28.5193C150.942 35.8245 141.781 36.8533 131.786 33.8438ZM158.862 32.6091C167.137 26.7959 176.778 25.767 186.495 24.7381C178.22 30.8343 167.82 29.1366 158.862 32.6091ZM172.197 23.5034C183.989 17.7416 195.275 14.0375 207.168 12.4685C195.68 15.5037 186.419 25.5612 172.197 23.5034ZM200.032 4.72601C188.57 5.29191 177.84 4.64883 167.263 3.90288C175.943 1.15057 188.342 1.3821 200.032 4.72601ZM112.15 27.5418C121.639 23.8892 127.484 14.0375 138.036 12.1341C151.524 9.69042 164.581 5.11184 178.751 6.68091C190.113 7.94131 201.703 6.21789 213.596 9.27886C207.826 10.2306 202.563 10.8994 197.376 12.1083C187.304 14.4491 177.84 18.3846 168.377 22.3973C154.965 28.0563 140.744 30.1398 126.573 32.3519C122.221 33.0207 117.894 31.786 113.542 31.4774C112.352 31.4002 111.239 31.0401 110.986 29.6768C110.809 28.7508 111.34 27.8762 112.15 27.5675V27.5418ZM41.4741 65.8168C50.9127 60.7752 60.326 55.4507 70.6503 50.9493C67.0064 56.8912 53.5444 63.759 41.4741 65.8168ZM98.8143 38.371C82.1386 44.9302 64.9568 50.229 49.0402 58.7432C64.147 48.1712 80.0889 39.6571 98.8143 38.371Z" fill="#D0DFE6"/>
</svg>
