<svg width="44" height="44" viewBox="0 0 44 44" fill="none" xmlns="http://www.w3.org/2000/svg">
<path d="M2 19.5981C2 11.2181 2 7.02698 4.60444 4.42476C7.20889 1.82253 11.3978 1.82031 19.7778 1.82031H24.2222C32.6022 1.82031 36.7933 1.82031 39.3956 4.42476C41.9978 7.0292 42 11.2181 42 19.5981V24.0425C42 32.4225 42 36.6136 39.3956 39.2159C36.7911 41.8181 32.6022 41.8203 24.2222 41.8203H19.7778C11.3978 41.8203 7.20667 41.8203 4.60444 39.2159C2.00222 36.6114 2 32.4225 2 24.0425V19.5981Z" stroke="#2B333E" stroke-width="2.5"/>
<path d="M32 9.73706C33.1505 9.73706 34.0838 10.6696 34.084 11.8201C34.084 12.9707 33.1506 13.9041 32 13.9041C30.8496 13.9039 29.917 12.9706 29.917 11.8201C29.9172 10.6697 30.8497 9.73724 32 9.73706Z" fill="#2B333E" stroke="#2B333E" stroke-width="2.5"/>
<path d="M21.9997 28.4869C25.6816 28.4869 28.6663 25.5021 28.6663 21.8202C28.6663 18.1383 25.6816 15.1536 21.9997 15.1536C18.3178 15.1536 15.333 18.1383 15.333 21.8202C15.333 25.5021 18.3178 28.4869 21.9997 28.4869Z" stroke="#2B333E" stroke-width="2.5"/>
</svg>
