<svg width="40" height="40" viewBox="0 0 40 40" fill="none" xmlns="http://www.w3.org/2000/svg">
<path d="M1.42871 35.5347V4.10617C1.42871 3.34841 1.72973 2.62168 2.26555 2.08586C2.80137 1.55004 3.52809 1.24902 4.28585 1.24902H35.7144C36.4722 1.24902 37.1989 1.55004 37.7347 2.08586C38.2706 2.62168 38.5716 3.34841 38.5716 4.10617V35.5347C38.5716 36.2925 38.2706 37.0192 37.7347 37.555C37.1989 38.0909 36.4722 38.3919 35.7144 38.3919H27.143V24.849H29.1716C29.6338 24.849 30.0771 24.6654 30.404 24.3386C30.7308 24.0117 30.9144 23.5684 30.9144 23.1062V20.9062C30.9144 20.4439 30.7308 20.0006 30.404 19.6738C30.0771 19.3469 29.6338 19.1633 29.1716 19.1633H27.2573V16.4776C27.2573 14.0776 28.343 14.0776 29.4287 14.0776H30.8287C31.0587 14.0871 31.2879 14.0459 31.5002 13.957C31.7125 13.8682 31.9027 13.7338 32.0573 13.5633C32.2233 13.4052 32.3548 13.2144 32.4433 13.003C32.5318 12.7915 32.5755 12.564 32.5716 12.3347V10.2205C32.5792 9.9878 32.5409 9.75592 32.4588 9.53807C32.3768 9.32023 32.2526 9.12069 32.0934 8.95087C31.9342 8.78104 31.7431 8.64426 31.531 8.54835C31.3189 8.45243 31.09 8.39927 30.8573 8.39188H27.5716C26.6128 8.35584 25.6577 8.52834 24.7722 8.89747C23.8866 9.2666 23.0918 9.82357 22.4425 10.5299C21.7932 11.2362 21.305 12.0751 21.0116 12.9885C20.7182 13.9019 20.6265 14.8681 20.743 15.8205V19.1633H18.9144C18.6832 19.1595 18.4534 19.2018 18.2387 19.2877C18.0239 19.3736 17.8284 19.5014 17.6635 19.6636C17.4987 19.8258 17.3677 20.0192 17.2783 20.2325C17.189 20.4459 17.143 20.6749 17.143 20.9062V23.1062C17.143 23.3375 17.189 23.5665 17.2783 23.7798C17.3677 23.9931 17.4987 24.1865 17.6635 24.3488C17.8284 24.511 18.0239 24.6388 18.2387 24.7247C18.4534 24.8105 18.6832 24.8528 18.9144 24.849H20.743V38.3919H4.28585C3.52809 38.3919 2.80137 38.0909 2.26555 37.555C1.72973 37.0192 1.42871 36.2925 1.42871 35.5347Z" stroke="#2B333E" stroke-width="2.5" stroke-linecap="round" stroke-linejoin="round"/>
</svg>
