<svg width="44" height="44" viewBox="0 0 44 44" fill="none" xmlns="http://www.w3.org/2000/svg">
<path d="M32.9825 2H11.0175C6.0375 2 2 6.0375 2 11.0175V32.9825C2 37.9625 6.0375 42 11.0175 42H32.9825C37.9625 42 42 37.9625 42 32.9825V11.0175C42 6.0375 37.9625 2 32.9825 2ZM32.4737 26.7738C29.6762 29.9938 23.4188 33.9163 21.9963 34.5163C20.5725 35.1163 20.7825 34.1338 20.8412 33.7975C20.875 33.5963 21.0312 32.6562 21.0312 32.6562C21.0763 32.3162 21.1225 31.7875 20.9875 31.45C20.8375 31.0788 20.2463 30.8862 19.8125 30.7925C13.4037 29.945 8.65875 25.465 8.65875 20.115C8.65875 14.1475 14.6413 9.2925 21.995 9.2925C29.3488 9.2925 35.3312 14.1475 35.3312 20.115C35.3312 22.5037 34.405 24.6538 32.4725 26.7738H32.4737Z" stroke="#2B333E" stroke-width="2.5" stroke-miterlimit="10"/>
<path d="M30.8948 17.2325H27.1486C27.0086 17.2325 26.8936 17.3463 26.8936 17.4875V17.4925V23.3025V23.3075C26.8936 23.4488 27.0073 23.5625 27.1486 23.5625H30.8948C31.0361 23.5625 31.1498 23.4488 31.1498 23.3075V22.3613C31.1498 22.2213 31.0348 22.1063 30.8948 22.1063H28.3486V21.1238H30.8948C31.0361 21.1238 31.1498 21.01 31.1498 20.8688V19.9225C31.1498 19.7825 31.0348 19.6675 30.8948 19.6675H28.3486V18.685H30.8948C31.0361 18.685 31.1498 18.5713 31.1498 18.43V17.4838C31.1498 17.3438 31.0348 17.2288 30.8948 17.2288V17.2325Z" fill="#2B333E"/>
<path d="M17.0357 22.1062H14.4895V17.4862C14.4895 17.3462 14.3745 17.2312 14.2345 17.2312H13.2882C13.147 17.2312 13.0332 17.345 13.0332 17.4862V23.3025V23.3075C13.0332 23.4487 13.147 23.5625 13.2882 23.5625H17.0345C17.1745 23.5625 17.2895 23.4487 17.2895 23.3075V22.3612C17.2895 22.2212 17.1745 22.1062 17.0345 22.1062H17.0357Z" fill="#2B333E"/>
<path d="M19.2908 17.2312H18.3458C18.205 17.2312 18.0908 17.3454 18.0908 17.4862V23.3062C18.0908 23.447 18.205 23.5612 18.3458 23.5612H19.2908C19.4317 23.5612 19.5458 23.447 19.5458 23.3062V17.4862C19.5458 17.3454 19.4317 17.2312 19.2908 17.2312Z" fill="#2B333E"/>
<path d="M25.7298 17.2312H24.7836C24.6423 17.2312 24.5286 17.345 24.5286 17.4862V20.9425L21.8661 17.3462C21.8598 17.3375 21.8523 17.3287 21.8461 17.32C21.8461 17.32 21.8461 17.32 21.8448 17.3187C21.8398 17.3137 21.8348 17.3075 21.8298 17.3025C21.8286 17.3012 21.8261 17.3 21.8248 17.2987C21.8198 17.295 21.8161 17.2912 21.8111 17.2875C21.8086 17.2862 21.8061 17.2837 21.8036 17.2825C21.7998 17.2787 21.7948 17.2762 21.7898 17.2737C21.7873 17.2725 21.7848 17.27 21.7823 17.2687C21.7773 17.2662 21.7736 17.2637 21.7686 17.2612C21.7661 17.26 21.7636 17.2587 21.7611 17.2575C21.7561 17.255 21.7511 17.2525 21.7461 17.2512C21.7436 17.2512 21.7411 17.2487 21.7373 17.2487C21.7323 17.2475 21.7273 17.245 21.7223 17.2437C21.7198 17.2437 21.7161 17.2425 21.7136 17.2412C21.7086 17.2412 21.7036 17.2387 21.6986 17.2375C21.6948 17.2375 21.6911 17.2375 21.6873 17.2362C21.6823 17.2362 21.6786 17.235 21.6736 17.235C21.6686 17.235 21.6648 17.235 21.6598 17.235C21.6573 17.235 21.6536 17.235 21.6511 17.235H20.7111C20.5711 17.235 20.4561 17.3487 20.4561 17.49V23.31C20.4561 23.45 20.5698 23.565 20.7111 23.565H21.6573C21.7986 23.565 21.9123 23.4512 21.9123 23.31V19.8537L24.5786 23.455C24.5973 23.4812 24.6198 23.5025 24.6448 23.5187C24.6448 23.5187 24.6473 23.52 24.6473 23.5212C24.6523 23.525 24.6573 23.5275 24.6636 23.5312C24.6661 23.5325 24.6686 23.5337 24.6711 23.535C24.6748 23.5375 24.6798 23.5387 24.6836 23.5412C24.6873 23.5437 24.6923 23.545 24.6961 23.5462C24.6986 23.5462 24.7011 23.5487 24.7036 23.5487C24.7098 23.5512 24.7148 23.5525 24.7211 23.5537C24.7211 23.5537 24.7236 23.5537 24.7248 23.5537C24.7461 23.5587 24.7686 23.5625 24.7911 23.5625H25.7311C25.8711 23.5625 25.9861 23.4487 25.9861 23.3075V17.4875C25.9861 17.3475 25.8723 17.2325 25.7311 17.2325L25.7298 17.2312Z" fill="#2B333E"/>
</svg>
