<svg width="1099" height="33" viewBox="0 0 1099 33" fill="none" xmlns="http://www.w3.org/2000/svg">
<path d="M552.265 2.15482C553.789 0.614939 556.273 0.614939 557.796 2.15482C559.319 3.69469 559.319 6.20536 557.796 7.74523L541.204 24.5165C539.681 26.0564 539.681 28.567 541.204 30.1069C542.727 31.6468 545.211 31.6468 546.735 30.1069L563.327 13.3357C564.85 11.7958 567.334 11.7958 568.857 13.3357C570.381 14.8755 570.381 17.3862 568.857 18.9261C567.334 20.4659 564.85 20.4659 563.327 18.9261L546.735 2.15482C545.211 0.614939 542.727 0.614939 541.204 2.15482C539.681 3.69469 539.681 6.20536 541.204 7.74523L557.796 24.5165C559.319 26.0564 559.319 28.567 557.796 30.1069C556.273 31.6468 553.789 31.6468 552.265 30.1069L535.673 13.3357C534.15 11.7958 531.666 11.7958 530.143 13.3357C528.619 14.8755 528.619 17.3862 530.143 18.9261C531.666 20.4659 534.15 20.4659 535.673 18.9261L552.265 2.15482Z" stroke="#495C69" stroke-width="1.5" stroke-miterlimit="10"/>
<path d="M521 16.1309H1" stroke="#495C69" stroke-width="1.5" stroke-linecap="round"/>
<path d="M1098 16.1309L578 16.1309" stroke="#495C69" stroke-width="1.5" stroke-linecap="round"/>
</svg>
