<svg width="897" height="26" viewBox="0 0 897 26" fill="none" xmlns="http://www.w3.org/2000/svg">
<path d="M450.793 1.91593C452.057 0.69469 454.116 0.69469 455.38 1.91593C456.643 3.13717 456.643 5.12832 455.38 6.34956L441.62 19.6504C440.357 20.8717 440.357 22.8628 441.62 24.0841C442.884 25.3053 444.943 25.3053 446.207 24.0841L459.966 10.7832C461.229 9.56195 463.289 9.56195 464.553 10.7832C465.816 12.0044 465.816 13.9956 464.553 15.2168C463.289 16.4381 461.229 16.4381 459.966 15.2168L446.207 1.91593C444.943 0.69469 442.884 0.69469 441.62 1.91593C440.357 3.13717 440.357 5.12832 441.62 6.34956L455.38 19.6504C456.643 20.8717 456.643 22.8628 455.38 24.0841C454.116 25.3053 452.057 25.3053 450.793 24.0841L437.034 10.7832C435.771 9.56195 433.711 9.56195 432.447 10.7832C431.184 12.0044 431.184 13.9956 432.447 15.2168C433.711 16.4381 435.771 16.4381 437.034 15.2168L450.793 1.91593Z" stroke="#495C69" stroke-width="1.5" stroke-miterlimit="10"/>
<path d="M425.5 13H1.5" stroke="#495C69" stroke-width="1.5" stroke-linecap="round"/>
<path d="M895.5 13L471.5 13" stroke="#495C69" stroke-width="1.5" stroke-linecap="round"/>
</svg>
