<svg width="27" height="26" viewBox="0 0 27 26" fill="none" xmlns="http://www.w3.org/2000/svg">
<path d="M20.8438 20.3333C21.551 20.3333 22.2293 20.6143 22.7294 21.1144C23.2295 21.6145 23.5104 22.2928 23.5104 23C23.5104 23.7072 23.2295 24.3855 22.7294 24.8856C22.2293 25.3857 21.551 25.6667 20.8438 25.6667C20.1365 25.6667 19.4582 25.3857 18.9581 24.8856C18.458 24.3855 18.1771 23.7072 18.1771 23C18.1771 22.2928 18.458 21.6145 18.9581 21.1144C19.4582 20.6143 20.1365 20.3333 20.8438 20.3333ZM20.8438 21.6667C20.4901 21.6667 20.151 21.8071 19.9009 22.0572C19.6509 22.3072 19.5104 22.6464 19.5104 23C19.5104 23.3536 19.6509 23.6928 19.9009 23.9428C20.151 24.1929 20.4901 24.3333 20.8438 24.3333C21.1974 24.3333 21.5365 24.1929 21.7866 23.9428C22.0366 23.6928 22.1771 23.3536 22.1771 23C22.1771 22.6464 22.0366 22.3072 21.7866 22.0572C21.5365 21.8071 21.1974 21.6667 20.8438 21.6667ZM8.84375 20.3333C9.55099 20.3333 10.2293 20.6143 10.7294 21.1144C11.2295 21.6145 11.5104 22.2928 11.5104 23C11.5104 23.7072 11.2295 24.3855 10.7294 24.8856C10.2293 25.3857 9.55099 25.6667 8.84375 25.6667C8.13651 25.6667 7.45823 25.3857 6.95813 24.8856C6.45803 24.3855 6.17708 23.7072 6.17708 23C6.17708 22.2928 6.45803 21.6145 6.95813 21.1144C7.45823 20.6143 8.13651 20.3333 8.84375 20.3333ZM8.84375 21.6667C8.49013 21.6667 8.15099 21.8071 7.90094 22.0572C7.65089 22.3072 7.51042 22.6464 7.51042 23C7.51042 23.3536 7.65089 23.6928 7.90094 23.9428C8.15099 24.1929 8.49013 24.3333 8.84375 24.3333C9.19737 24.3333 9.53651 24.1929 9.78656 23.9428C9.78656 23.9428 10.1771 23.3536 10.1771 23C10.1771 22.6464 10.0366 22.3072 9.78656 22.0572C9.53651 21.8071 9.19737 21.6667 8.84375 21.6667ZM23.5104 4.33333H5.20375L8.60375 12.3333H19.5104C19.9504 12.3333 20.3371 12.12 20.5771 11.8L24.5771 6.46667C24.7504 6.24 24.8438 5.96 24.8438 5.66667C24.8438 5.31304 24.7033 4.97391 24.4532 4.72386C24.2032 4.47381 23.864 4.33333 23.5104 4.33333ZM19.5104 13.6667H8.67042L7.64375 15.7467L7.51042 16.3333C7.51042 16.687 7.65089 17.0261 7.90094 17.2761C8.15099 17.5262 8.49013 17.6667 8.84375 17.6667H23.5104V19H8.84375C8.13651 19 7.45823 18.719 6.95813 18.219C6.45803 17.7189 6.17708 17.0406 6.17708 16.3333C6.17669 15.8809 6.2914 15.4359 6.51042 15.04L7.47042 13.08L2.63042 1.66667H0.84375V0.333332H3.51042L4.64375 3H23.5104C24.2177 3 24.8959 3.28095 25.396 3.78105C25.8961 4.28114 26.1771 4.95942 26.1771 5.66667C26.1771 6.33333 25.9504 6.89333 25.5771 7.34667L21.6971 12.5333C21.2171 13.2133 20.4171 13.6667 19.5104 13.6667Z" fill="#2D2E36" stroke="#2D2E36" stroke-width="0.5"/>
</svg>
