<svg width="24" height="24" viewBox="0 0 24 24" fill="none" xmlns="http://www.w3.org/2000/svg">
<path d="M21.9027 22.9233L13.5533 14.574C12.8867 15.142 12.12 15.5816 11.2533 15.8927C10.3867 16.2038 9.51556 16.3593 8.64 16.3593C6.50489 16.3593 4.69778 15.6202 3.21867 14.142C1.73956 12.6638 1 10.8571 1 8.722C1 6.58689 1.73867 4.77933 3.216 3.29933C4.69333 1.81933 6.49956 1.07844 8.63467 1.07667C10.7698 1.07489 12.5778 1.81445 14.0587 3.29533C15.5396 4.77622 16.28 6.58378 16.28 8.718C16.28 9.64422 16.116 10.5407 15.788 11.4073C15.46 12.274 15.0289 13.0153 14.4947 13.6313L22.844 21.9793L21.9027 22.9233ZM8.64133 15.0247C10.4102 15.0247 11.9036 14.4158 13.1213 13.198C14.3391 11.9802 14.948 10.4864 14.948 8.71667C14.948 6.94689 14.3391 5.45356 13.1213 4.23667C11.9036 3.01978 10.4102 2.41089 8.64133 2.41C6.87244 2.40911 5.37867 3.018 4.16 4.23667C2.94133 5.45533 2.33244 6.94867 2.33333 8.71667C2.33422 10.4847 2.94311 11.978 4.16 13.1967C5.37689 14.4153 6.87022 15.0242 8.64 15.0233" fill="#2D2E36"/>
<path d="M8.64133 15.0247C10.4102 15.0247 11.9036 14.4158 13.1213 13.198C14.3391 11.9802 14.948 10.4864 14.948 8.71667C14.948 6.94689 14.3391 5.45356 13.1213 4.23667C11.9036 3.01978 10.4102 2.41089 8.64133 2.41C6.87244 2.40911 5.37867 3.018 4.16 4.23667C2.94133 5.45533 2.33244 6.94867 2.33333 8.71667C2.33422 10.4847 2.94311 11.978 4.16 13.1967C5.37689 14.4153 6.87022 15.0242 8.64 15.0233M21.9027 22.9233L13.5533 14.574C12.8867 15.142 12.12 15.5816 11.2533 15.8927C10.3867 16.2038 9.51556 16.3593 8.64 16.3593C6.50489 16.3593 4.69778 15.6202 3.21867 14.142C1.73956 12.6638 1 10.8571 1 8.722C1 6.58689 1.73867 4.77933 3.216 3.29933C4.69333 1.81933 6.49956 1.07844 8.63467 1.07667C10.7698 1.07489 12.5778 1.81445 14.0587 3.29533C15.5396 4.77622 16.28 6.58378 16.28 8.718C16.28 9.64422 16.116 10.5407 15.788 11.4073C15.46 12.274 15.0289 13.0153 14.4947 13.6313L22.844 21.9793L21.9027 22.9233Z" stroke="#2D2E36" stroke-width="0.5"/>
</svg>
