<svg width="22" height="22" viewBox="0 0 22 22" fill="none" xmlns="http://www.w3.org/2000/svg">
<path d="M10.8438 13C16.3638 13 20.8438 15.0933 20.8438 17.6667V21H0.84375V17.6667C0.84375 15.0933 5.32375 13 10.8438 13ZM19.5104 17.6667C19.5104 15.8267 15.6304 14.3333 10.8438 14.3333C6.05708 14.3333 2.17708 15.8267 2.17708 17.6667V19.6667H19.5104V17.6667ZM10.8438 1C12.0814 1 13.2684 1.49167 14.1436 2.36684C15.0188 3.24201 15.5104 4.42899 15.5104 5.66667C15.5104 6.90434 15.0188 8.09133 14.1436 8.9665C13.2684 9.84167 12.0814 10.3333 10.8438 10.3333C9.60607 10.3333 8.41909 9.84167 7.54392 8.9665C6.66875 8.09133 6.17708 6.90434 6.17708 5.66667C6.17708 4.42899 6.66875 3.24201 7.54392 2.36684C8.41909 1.49167 9.60607 1 10.8438 1ZM10.8438 2.33333C9.95969 2.33333 9.11185 2.68452 8.48673 3.30964C7.86161 3.93477 7.51042 4.78261 7.51042 5.66667C7.51042 6.55072 7.86161 7.39857 8.48673 8.02369C9.11185 8.64881 9.95969 9 10.8438 9C11.7278 9 12.5757 8.64881 13.2008 8.02369C13.8259 7.39857 14.1771 6.55072 14.1771 5.66667C14.1771 4.78261 13.8259 3.93477 13.2008 3.30964C12.5757 2.68452 11.7278 2.33333 10.8438 2.33333Z" fill="#2D2E36" stroke="#2D2E36" stroke-width="0.5"/>
</svg>
