<svg width="1202" height="32" viewBox="0 0 1202 32" fill="none" xmlns="http://www.w3.org/2000/svg">
<path d="M603.064 2.14491C604.574 0.618363 607.037 0.618363 608.547 2.14491C610.057 3.67146 610.057 6.1604 608.547 7.68695L592.098 24.3131C590.588 25.8396 590.588 28.3285 592.098 29.8551C593.609 31.3816 596.071 31.3816 597.581 29.8551L614.03 13.229C615.54 11.7024 618.002 11.7024 619.512 13.229C621.023 14.7555 621.023 17.2445 619.512 18.771C618.002 20.2976 615.54 20.2976 614.03 18.771L597.581 2.14491C596.071 0.618363 593.609 0.618363 592.098 2.14491C590.588 3.67146 590.588 6.1604 592.098 7.68695L608.547 24.3131C610.057 25.8396 610.057 28.3285 608.547 29.8551C607.037 31.3816 604.574 31.3816 603.064 29.8551L586.616 13.229C585.105 11.7024 582.643 11.7024 581.133 13.229C579.622 14.7555 579.622 17.2445 581.133 18.771C582.643 20.2976 585.105 20.2976 586.616 18.771L603.064 2.14491Z" stroke="#495C69" stroke-width="1.5" stroke-miterlimit="10"/>
<path d="M572 16L1 16" stroke="#495C69" stroke-width="1.5" stroke-linecap="round"/>
<path d="M1201 16.0001L629 16" stroke="#495C69" stroke-width="1.5" stroke-linecap="round"/>
</svg>
