<svg width="16" height="18" viewBox="0 0 16 18" fill="none" xmlns="http://www.w3.org/2000/svg">
<path fill-rule="evenodd" clip-rule="evenodd" d="M3.08141 3.2L3.84565 16.0452C3.85715 16.2366 3.94128 16.4164 4.08085 16.548C4.22042 16.6795 4.40492 16.7528 4.59671 16.7529H11.4033C11.5951 16.7528 11.7796 16.6795 11.9192 16.548C12.0587 16.4164 12.1428 16.2366 12.1544 16.0452L12.9186 3.2H3.08141ZM14.0508 3.2L13.2819 16.112C13.2533 16.5909 13.043 17.0409 12.6938 17.3699C12.3447 17.6989 11.8831 17.8822 11.4033 17.8824H4.59671C4.11694 17.8822 3.65532 17.6989 3.30616 17.3699C2.957 17.0409 2.74666 16.5909 2.71812 16.112L1.94918 3.2H0V2.54118C0 2.41637 0.0495798 2.29667 0.137832 2.20842C0.226085 2.12017 0.34578 2.07059 0.470588 2.07059H15.5294C15.6542 2.07059 15.7739 2.12017 15.8622 2.20842C15.9504 2.29667 16 2.41637 16 2.54118V3.2H14.0508ZM9.88235 0C10.0072 0 10.1269 0.0495798 10.2151 0.137832C10.3034 0.226085 10.3529 0.345781 10.3529 0.470588V1.12941H5.64706V0.470588C5.64706 0.345781 5.69664 0.226085 5.78489 0.137832C5.87314 0.0495798 5.99284 0 6.11765 0H9.88235ZM5.64706 5.64706H6.77647L7.24706 14.1176H6.11765L5.64706 5.64706ZM9.22353 5.64706H10.3529L9.88235 14.1176H8.75294L9.22353 5.64706Z" fill="#495C69"/>
</svg>
