<svg width="288" height="362" viewBox="0 0 288 362" fill="none" xmlns="http://www.w3.org/2000/svg">
<path d="M5.75372 11.5H0.828125V350.539H5.75372M5.75372 11.5V6.2304M5.75372 11.5L10.6793 11.4608V6.2304M5.75372 11.5V350.539M5.75372 350.539V355.77M5.75372 350.539H10.6793V355.77M10.6793 355.77V361H276.445V355.77M10.6793 355.77H5.75372M10.6793 355.77H276.445M276.445 355.77V350.539H281.371M276.445 355.77H281.371M281.371 350.539H286.296V11.4608H281.371M281.371 350.539V11.4608M281.371 350.539V355.77M281.371 11.4608H276.445V6.2304M281.371 11.4608V6.2304M276.445 6.2304V1H10.6793V6.2304M276.445 6.2304H10.6793M276.445 6.2304H281.371M10.6793 6.2304H5.75372M5.75372 6.2304H0.828125V1H5.75372V6.2304ZM5.75372 355.77H0.828125V361H5.75372V355.77ZM281.371 6.2304H286.296V1H281.371V6.2304ZM281.371 355.77V361H286.296V355.77H281.371Z" stroke="#495C69" stroke-width="1.5" stroke-miterlimit="10"/>
</svg>
