<svg width="292" height="362" viewBox="0 0 292 362" fill="none" xmlns="http://www.w3.org/2000/svg">
<path d="M6.00379 11.5H1V350.539H6.00379M6.00379 11.5V6.2304M6.00379 11.5L11.0076 11.4608V6.2304M6.00379 11.5V350.539M6.00379 350.539V355.77M6.00379 350.539H11.0076V355.77M11.0076 355.77V361H280.992V355.77M11.0076 355.77H6.00379M11.0076 355.77H280.992M280.992 355.77V350.539H285.996M280.992 355.77H285.996M285.996 350.539H291V11.4608H285.996M285.996 350.539V11.4608M285.996 350.539V355.77M285.996 11.4608H280.992V6.2304M285.996 11.4608V6.2304M280.992 6.2304V1H11.0076V6.2304M280.992 6.2304H11.0076M280.992 6.2304H285.996M11.0076 6.2304H6.00379M6.00379 6.2304H1V1H6.00379V6.2304ZM6.00379 355.77H1V361H6.00379V355.77ZM285.996 6.2304H291V1H285.996V6.2304ZM285.996 355.77V361H291V355.77H285.996Z" stroke="#495C69" stroke-width="1.5" stroke-miterlimit="10"/>
</svg>
