<svg width="253" height="358" viewBox="0 0 253 358" fill="none" xmlns="http://www.w3.org/2000/svg">
<path d="M5.90808 11.5H0.904297V346.539H5.90808M5.90808 11.5V6.2304M5.90808 11.5L10.9119 11.4608V6.2304M5.90808 11.5V346.539M5.90808 346.539V351.77M5.90808 346.539H10.9119V351.77M10.9119 351.77V357H241.897V351.77M10.9119 351.77H5.90808M10.9119 351.77H241.897M241.897 351.77H251.904V357H246.901V351.77V346.539M241.897 351.77V346.539H246.901M246.901 346.539H251.904V11.4608H246.901M246.901 346.539V11.4608M246.901 11.4608H241.897V6.2304M246.901 11.4608V6.2304M241.897 6.2304V1H10.9119V6.2304M241.897 6.2304H10.9119M241.897 6.2304H246.901M10.9119 6.2304H5.90808M5.90808 6.2304H0.904297V1H5.90808V6.2304ZM5.90808 351.77H0.904297V357H5.90808V351.77ZM246.901 6.2304H251.904V1H246.901V6.2304Z" stroke="#495C69" stroke-width="1.5" stroke-miterlimit="10"/>
</svg>
