<svg width="169" height="60" viewBox="0 0 169 60" fill="none" xmlns="http://www.w3.org/2000/svg">
<path d="M62.4588 45.5216L60.7053 43.2686C60.5682 42.0931 60.4898 40.9273 60.4898 39.7518C60.4898 38.5763 60.3233 37.4988 60 36.5192H60.4898L63.8694 40.4571V41.8678L63.1641 44.9633L62.4588 45.5216ZM113.554 60L111.095 58.5208C109.734 55.8465 108.176 53.2016 106.423 50.5763C104.669 47.951 103.367 45.1396 102.524 42.142L101.75 41.858L98.9388 45.5118C98.2824 46.2661 97.5771 46.9224 96.8326 47.4808C96.0784 48.0392 95.2163 48.3233 94.2367 48.3233L93.9526 46.9225C94.56 47.1086 95.1379 46.9714 95.6767 46.5012C96.2155 46.031 96.7151 45.5216 97.1853 44.9535C98.0277 43.5918 98.7526 42.2694 99.36 40.9861C99.9673 39.6931 100.271 38.2139 100.271 36.5192L96.4702 25.058L95.2065 24.7739V25.3322H94.4326L92.4637 25.0482C89.8873 25.7535 87.3404 26.5763 84.8326 27.5069C82.3249 28.4376 79.9053 29.6816 77.5543 31.2294L76.2906 30.5927V30.0343L75.0955 29.5445L74.7429 27.8596H75.0955V27.2229L73.4792 25.8122V25.3225L72.4996 24.4114V23.8531H71.52L69.4825 27.5069L71.2359 28.418L71.52 30.0343L71.2359 34.5992L74.7526 36.2841C75.1249 36.8424 75.5265 37.4008 75.9477 37.9396C76.369 38.4784 76.4865 39.0955 76.3004 39.8008H75.5951L74.7526 40.7118L72.7837 38.5371L72.0098 35.7257L71.2359 35.3731L70.7461 37.9788L71.0302 39.311L69.698 51.6833L70.2563 54.4947L68.7086 55.5527L66.4555 48.8718L68.209 48.3135L68.6988 36.0098L67.4351 30.0343H66.4555L63.1543 32.2874C62.498 31.7682 62.0571 31.0825 61.822 30.2106C61.5869 29.3486 61.4694 28.4376 61.4694 27.5069L63.3698 25.822L68.2188 17.2506H67.4449L64.6335 18.6514L64.4278 19.1412H63.8694C63.5363 18.5829 63.2914 17.8874 63.1347 17.0645C62.9682 16.2416 62.8898 15.4384 62.8898 14.6351L63.1739 14.1453L64.9273 11.8237C65.4465 10.511 66.0343 9.29633 66.72 8.1698C67.3959 7.04327 67.6506 5.73061 67.4547 4.23184L67.249 2.83102H67.9543L70.2759 4.23184L70.56 5.35837L69.2277 9.3649L66.7004 10.6971L65.5053 14.6351H66.4849L70.2857 13.2343L71.2653 9.02204H72.3233L74.0082 9.86449V10.7069L73.5184 13.8025L71.7649 16.0555L71.0596 17.4563L70.2857 17.7404V18.6514C70.942 18.6514 71.6082 18.8278 72.2939 19.1804C72.9698 19.5331 73.5477 20.0131 74.018 20.6204L74.302 21.3257H74.7918C75.3502 22.08 75.9282 22.8343 76.5159 23.6082C77.1037 24.382 77.3975 25.2147 77.3975 26.1061L76.6237 26.9486V27.5069H77.3975L79.5722 26.7331V26.0963L79.0824 23.8433L79.5722 20.7478L79.2882 19.1314H79.5722L82.3837 20.6106V25.3225H83.3731L85.4106 23.0008L85.6947 18.9257L85.2049 16.8882H83.8726L82.3935 17.4465L79.582 16.6041L79.2979 15.8302L78.5926 15.5461V14.351C79.7681 14.5371 80.8065 14.5469 81.7175 14.3902C82.6286 14.2237 83.5102 13.7437 84.3526 12.9502L86.4588 11.5494V11.2653H87.1641L91.5233 12.4604H91.2392L90.4653 14.3608L85.6849 16.3298V16.8882L88.4277 18.6416L88.6335 22.1584L88.4277 23.3535H89.4073L94.4718 21.9429V21.6588H95.7355V20.6008C95.1771 17.7404 94.609 14.9192 94.0506 12.1273C93.4922 9.33551 92.7184 6.61225 91.729 3.93796L90.9551 3.65388L90.4653 0.911021L90.7494 0H91.729L94.2563 1.75347V2.31184H94.7461C95.0694 5.26041 95.6081 8.20898 96.3624 11.1282C97.1069 14.0571 97.7437 16.9959 98.2628 19.9543L103.327 21.6392H102.769V22.6971H102.064V23.3339L99.4677 23.8237V24.7347L101.789 31.6898H102.279L102.563 27.4776L102.073 26.0669L102.779 25.7829L106.364 27.4678L106.854 29.9951L104.327 38.9878C104.797 41.5641 105.669 44.0816 106.962 46.5404C108.255 48.9992 109.646 51.36 111.144 53.6033L111.85 53.8873C112.555 53.329 113.104 52.6727 113.505 51.9184C113.907 51.1641 114.269 50.4196 114.593 49.6653H115.229V50.5078C114.808 51.4482 114.593 52.5159 114.593 53.7012C114.593 54.8865 114.524 55.9151 114.387 56.7576H114.593L114.877 57.3943L114.593 58.7265H114.103L113.613 59.9216L113.554 60ZM67.9347 24.7837C68.591 24.1763 69.3061 23.6376 70.08 23.1673C70.8539 22.6971 71.3339 21.9918 71.52 21.0612L70.2563 19.1608H69.4825C68.64 20.2384 67.7976 21.3355 66.9551 22.462C66.1127 23.5886 65.5249 24.8033 65.2016 26.1159H65.6914L67.9445 24.7837H67.9347ZM80.3069 49.7339L79.0433 48.6073L78.338 45.2376L78.7592 39.3306L77.5641 33.7078H78.0539L80.0914 34.8343L81.3551 37.4302H82.0604L86.9094 36.5192V34.8343L86.1355 33.7078C85.4792 33.9429 84.8424 33.9527 84.2351 33.7469C83.6277 33.5314 83.0596 33.169 82.5502 32.6596L82.3445 31.2588C83.3339 31.4449 84.2057 31.3371 84.9796 30.9453C85.7535 30.5437 86.4686 30.0931 87.1249 29.5739L87.409 28.9371L89.378 28.6531L92.6792 29.8482V30.622L92.4735 31.2588L91.6996 31.5429C90.8571 34.1192 90.4359 36.8131 90.4359 39.6245C90.4359 42.4359 90.2498 45.2474 89.8775 48.0588C88.2416 48.2449 86.6057 48.3918 84.9894 48.48C83.373 48.578 81.8155 48.9992 80.3167 49.7437L80.3069 49.7339ZM85.3714 11.0792L83.0498 10.1682L81.3649 5.67184H82.3445C83.0008 6.23021 83.7159 6.70041 84.4898 7.07265C85.2637 7.4449 85.8122 8.01306 86.1453 8.75755V9.6L85.3714 11.0792ZM86.6351 46.3641V44.6106L85.8612 41.0253L86.9192 40.4669V39.5559H85.6555C85.0971 40.1633 84.5192 40.4669 83.9314 40.4669H82.0702C82.2563 41.5935 82.2269 42.5633 81.9624 43.3861C81.6979 44.209 81.5804 45.1984 81.5804 46.3739H86.6449L86.6351 46.3641ZM107.579 13.822C106.922 13.4498 106.247 13.0286 105.541 12.5584C104.836 12.0882 104.248 11.4808 103.788 10.7265C103.602 10.1682 103.298 9.6 102.877 9.04163C102.455 8.48327 102.24 7.82694 102.24 7.07265L103.014 6.78857C103.993 6.97469 104.924 7.34694 105.786 7.9151C106.648 8.47347 107.51 9.22776 108.353 10.1682L108.842 12.7739H107.784V13.8318H107.569L107.579 13.822Z" fill="#2D2E36"/>
<path d="M133.538 42.3568V41.9356H132.833L132.128 42.1511L130.022 41.4458C128.944 40.3683 128.17 39.1732 127.7 37.8605C127.23 36.5478 126.289 35.4213 124.889 34.4907H125.8L131.844 37.0181C132.314 37.8115 132.784 38.5952 133.254 39.3691C133.725 40.143 133.891 41.0638 133.744 42.1413L133.538 42.347V42.3568ZM133.538 59.5781L133.049 58.5985C131.971 58.7846 131.041 58.6768 130.276 58.285C129.503 57.8834 128.719 57.5503 127.925 57.2662V56.9821C128.533 57.1683 129.121 57.1487 129.679 56.9136C130.237 56.6785 130.825 56.4727 131.432 56.2768V55.3658L133.754 54.9446L135.86 55.1503L141.62 53.2499C142.414 52.5054 142.854 51.6532 142.923 50.7225C142.992 49.7821 143.031 48.783 143.031 47.6956H142.541L138.397 48.6066L137.202 47.9013L136.076 47.2646L134.665 45.8638V45.1585H135.37L137.476 45.374L143.236 43.7576L143.52 40.7307L143.236 40.2409H143.52V39.8197L143.236 39.1144H142.531L142.11 39.8197H141.405C140.611 38.8793 139.749 37.9095 138.838 36.9005C137.927 35.8915 137.232 34.8532 136.761 33.7756H137.888C138.828 34.0989 139.798 34.334 140.807 34.4809C141.816 34.6278 142.619 35.1568 143.236 36.0972L144.432 38.2034L148.369 39.8197L148.859 41.2303L150.691 41.436L152.307 41.2303L153.218 41.436L155.54 41.2303L156.735 41.436L157.646 40.9462V41.2303L156.941 42.3568L155.53 43.0621L154.825 43.9732V44.463L149.065 46.0793C148.272 47.0197 147.919 48.1364 148.007 49.4491C148.105 50.7617 147.909 51.9568 147.449 53.0344L154.619 53.2401L155.109 52.6034H156.725C158.557 53.0246 160.438 53.2793 162.387 53.3772C164.337 53.4752 166.237 53.7495 168.118 54.2197V55.3462L165.796 56.2572V56.9625L163.2 57.2466C160.712 56.7764 158.195 56.4923 155.648 56.4042C153.091 56.3062 150.593 56.1887 148.164 56.0515L146.969 56.267L144.863 56.0515C143.031 56.845 141.15 57.4719 139.2 57.9127C137.251 58.3536 135.37 58.9119 133.538 59.5683V59.5781ZM135.86 30.7585L134.665 27.2417L135.37 26.8205L135.576 27.7315H136.987L140.219 26.3307L140.709 25.4197L141.62 24.7144V22.6083H140.915L136.977 24.2932H137.183V23.5878L136.056 23.0981L134.861 20.7764H135.566L137.467 21.2662L141.61 19.3658L141.816 17.9552L140.484 17.7495L137.183 18.6605L136.056 15.2123L135.351 14.7225C134.273 13.9683 133.538 13.0964 133.137 12.0874C132.735 11.0785 132.236 10.1087 131.628 9.16826L128.18 6.57234L128.817 6.85642V6.36662L128.396 6.15111H128.611C129.218 6.62132 129.914 6.97397 130.688 7.20907C131.462 7.44417 132.314 7.46377 133.254 7.27764L138.172 3.62377H138.799V3.13397C140.817 2.66377 142.825 2.19356 144.843 1.72336C146.861 1.25315 148.869 0.880908 150.887 0.596827V0.312744H152.503L159.037 1.92907V2.41887L158.547 3.12417H157.842L157.636 3.82948C157.029 3.96662 156.608 4.2703 156.373 4.7405C156.138 5.2107 155.854 5.68091 155.53 6.14132C155.06 7.97315 154.796 9.89315 154.727 11.9013C154.658 13.9193 154.149 15.7903 153.218 17.5242L145.137 21.2466L144.853 24.2736H145.832C146.577 23.9503 147.341 23.6662 148.115 23.4311C148.889 23.196 149.741 23.147 150.681 23.294L153.914 23.7838V24.2736L153.003 25.1846L135.85 30.7389L135.86 30.7585ZM140.503 8.68825L140.925 6.36662L140.719 5.4556L141.209 4.75029L139.103 4.04499L136.291 6.36662L135.38 7.76744L136.507 10.0891L137.212 10.2948L140.513 8.67846L140.503 8.68825ZM141.414 14.9478L141.62 13.8213L141.199 11.4997H140.494L138.172 12.6262V13.116L138.799 14.9478L137.888 15.2319V15.6532L138.593 15.9372L141.405 14.9576L141.414 14.9478ZM149.496 7.28744V4.96581L149.78 3.63356L149.496 2.65397H148.869L143.952 4.05478V4.54458C144.422 4.68172 144.686 4.95601 144.755 5.35764C144.823 5.75928 144.863 6.1707 144.863 6.59193C145.519 7.24825 146.263 7.53234 147.116 7.43438C147.958 7.33642 148.751 7.29724 149.506 7.29724L149.496 7.28744ZM148.869 13.1258V11.9307C149.153 11.3234 149.329 10.5985 149.398 9.75601C149.467 8.91356 149.506 8.0907 149.506 7.29724H149.085L148.379 8.27683L145.362 9.60907L145.156 12.2148L145.362 13.3413H146.763L148.869 13.1356V13.1258ZM146.763 17.5536L146.978 16.3585L145.852 16.1429C145.529 16.2801 145.323 16.5544 145.254 16.956C145.186 17.3576 145.147 17.6907 145.147 17.9748H145.568L146.763 17.5536ZM149.79 37.0278C148.712 36.4205 147.821 35.6074 147.116 34.6083C146.41 33.6091 145.754 32.6295 145.147 31.6891H146.273L152.807 34.2948V34.9315L152.102 35.9111H150.907H150.485L149.78 37.0376L149.79 37.0278ZM149.085 16.3683V15.947L148.879 14.9674H148.174L147.684 15.2515V15.6727L149.094 16.378L149.085 16.3683ZM163.21 36.3323L162.505 35.4213H161.8C161.516 34.3438 161.065 33.3348 160.428 32.3944C159.791 31.454 159.263 30.5234 158.841 29.583H159.968C161.183 29.916 162.378 30.4254 163.553 31.1307C164.729 31.836 165.777 32.6491 166.717 33.5895L167.423 34.9217L165.316 35.627V35.9111H165.111L164.405 35.627L163.21 36.3323Z" fill="#2D2E36"/>
<path d="M46.4505 38.8712C47.4458 36.2359 48 33.3801 48 30.3999C48 30.2076 47.9887 30.021 47.983 29.8287C47.983 29.8118 47.9887 29.7892 47.9887 29.7722C47.9887 29.7383 47.983 29.7043 47.9773 29.6761C47.5928 16.7769 36.9896 6.3999 24 6.3999C11.0104 6.3999 0 17.1671 0 30.3999C0 33.3801 0.548538 36.2359 1.54948 38.8712C1.56644 38.9503 1.60038 39.0295 1.63996 39.0974C5.12912 48.0436 13.8322 54.3999 24 54.3999C34.1677 54.3999 42.8708 48.0436 46.36 39.0974C46.3996 39.0295 46.4335 38.9503 46.4505 38.8712ZM24.7691 16.8617V7.96635C29.8643 8.14166 34.5353 10.0135 38.2281 13.0446L35.6154 16.873C35.3779 17.1841 35.016 17.3594 34.6258 17.3594C34.6088 17.3594 34.5919 17.3594 34.5749 17.3594H13.4138C13.4138 17.3594 13.3798 17.3594 13.3629 17.3594C12.9727 17.3594 12.6107 17.1784 12.4015 16.907L9.76625 13.0446C13.459 10.0135 18.1301 8.14166 23.2252 7.96635V16.8617H24.7634H24.7691ZM24.7691 52.8448V49.4517C24.7691 49.4517 24.7691 49.4291 24.7691 49.4122C24.7408 48.3942 23.9378 47.5686 22.9368 47.4894C22.9029 47.4894 22.8746 47.4838 22.8407 47.4838H16.9425C16.3826 47.4838 15.9246 47.0257 15.9246 46.4659C15.9246 45.906 16.3826 45.448 16.9425 45.448H31.0631C32.1659 45.448 33.065 44.5488 33.065 43.4461C33.065 42.3434 32.1659 41.4442 31.0631 41.4442H25.2215C24.9726 41.4442 24.7691 41.2406 24.7691 40.9918V30.9598H23.2309V40.9918C23.2309 42.0889 24.1244 42.9824 25.2215 42.9824H31.0631C31.3176 42.9824 31.5268 43.1916 31.5268 43.4461C31.5268 43.7006 31.3176 43.9098 31.0631 43.9098H16.9425C15.5344 43.9098 14.3864 45.0578 14.3864 46.4659C14.3864 47.874 15.5344 49.022 16.9425 49.022H22.7842C23.033 49.022 23.2366 49.2255 23.2366 49.4744V52.8448C14.4147 52.545 6.87087 47.1388 3.47219 39.4876H8.75965C10.1678 39.4876 11.3101 38.3396 11.3101 36.9315V34.9975C11.3101 34.0474 12.0848 33.2727 13.0349 33.2727C13.9849 33.2727 14.7596 34.0474 14.7596 34.9975V36.2416C14.7596 38.0399 16.2243 39.5045 18.0226 39.5045C19.8209 39.5045 21.2856 38.0399 21.2856 36.2416V32.5036C21.2856 32.0794 20.9406 31.7345 20.5165 31.7345C20.0924 31.7345 19.7474 32.0794 19.7474 32.5036V36.2416C19.7474 37.1916 18.9727 37.9663 18.0226 37.9663C17.0726 37.9663 16.2978 37.1916 16.2978 36.2416V34.9975C16.2978 33.1991 14.8332 31.7345 13.0349 31.7345C11.2366 31.7345 9.77191 33.1991 9.77191 34.9975V36.9315C9.77191 37.4913 9.3195 37.9437 8.75965 37.9437H2.85579C2.01319 35.5856 1.54948 33.0465 1.54948 30.3999C1.54948 23.9701 4.26955 18.1624 8.61828 14.0625L11.1687 17.8005C11.689 18.4791 12.4694 18.8749 13.3233 18.8919C13.3402 18.8919 13.3629 18.8919 13.3798 18.8919H34.6371C34.6371 18.8919 34.6767 18.8919 34.6937 18.8919C35.5476 18.8749 36.328 18.4791 36.8708 17.7665L39.3987 14.0625C43.4307 17.8627 46.0603 23.1275 46.4222 29.0031H7.28934C6.11875 29.0031 5.16305 28.1209 5.16305 27.0352C5.16305 25.9494 6.11875 25.0672 7.28934 25.0672H22.7333V23.529H7.28934C5.2705 23.529 3.62488 25.1011 3.62488 27.0352C3.62488 28.9692 5.11781 30.3886 7.00094 30.53C7.04052 30.5356 7.08576 30.5413 7.131 30.5413H46.4561C46.4392 33.1369 45.9811 35.6252 45.1498 37.9437H39.246C38.6861 37.9437 38.2337 37.4857 38.2337 36.9315V34.9975C38.2337 33.1991 36.7691 31.7345 34.9708 31.7345C33.1725 31.7345 31.7078 33.1991 31.7078 34.9975V36.2416C31.7078 37.1916 30.9331 37.9663 29.983 37.9663C29.033 37.9663 28.2582 37.1916 28.2582 36.2416V32.5036C28.2582 32.0794 27.9133 31.7345 27.4891 31.7345C27.065 31.7345 26.7201 32.0794 26.7201 32.5036V36.2416C26.7201 38.0399 28.1847 39.5045 29.983 39.5045C31.7813 39.5045 33.246 38.0399 33.246 36.2416V34.9975C33.246 34.0474 34.0207 33.2727 34.9708 33.2727C35.9208 33.2727 36.6955 34.0474 36.6955 34.9975V36.9315C36.6955 38.3396 37.8435 39.4876 39.246 39.4876H44.5334C41.1347 47.1388 33.5909 52.545 24.7691 52.8448Z" fill="#2D2E36"/>
<path d="M24.7696 19.3955H23.2314V28.5906H24.7696V19.3955Z" fill="#2D2E36"/>
<path d="M32.0413 13.4296C32.0413 12.2703 31.1026 11.3315 29.9433 11.3315C29.5192 11.3315 29.1742 11.6765 29.1742 12.1006C29.1742 12.5248 29.5192 12.8697 29.9433 12.8697C30.2543 12.8697 30.5032 13.1185 30.5032 13.4296C30.5032 13.7406 30.2543 13.9894 29.9433 13.9894H25.2666V15.5276H29.9433C31.1026 15.5276 32.0413 14.5888 32.0413 13.4296Z" fill="#2D2E36"/>
<path d="M17.4972 13.4296C17.4972 13.1185 17.746 12.8697 18.057 12.8697C18.4811 12.8697 18.8261 12.5248 18.8261 12.1006C18.8261 11.6765 18.4811 11.3315 18.057 11.3315C16.8977 11.3315 15.959 12.2703 15.959 13.4296C15.959 14.5888 16.8977 15.5276 18.057 15.5276H22.7337V13.9894H18.057C17.746 13.9894 17.4972 13.7406 17.4972 13.4296Z" fill="#2D2E36"/>
<path d="M37.7362 22.5114C37.7362 21.1033 36.5882 19.9553 35.1801 19.9553H31.7588C31.3347 19.9553 30.9897 20.3003 30.9897 20.7244C30.9897 21.1485 31.3347 21.4935 31.7588 21.4935H35.1801C35.7399 21.4935 36.198 21.9516 36.198 22.5114C36.198 23.0713 35.7399 23.5293 35.1801 23.5293H25.2725V25.0675H35.1801C36.5882 25.0675 37.7362 23.9195 37.7362 22.5114Z" fill="#2D2E36"/>
</svg>
